G75*
%MOIN*%
%OFA0B0*%
%FSLAX25Y25*%
%IPPOS*%
%LPD*%
%AMOC8*
5,1,8,0,0,1.08239X$1,22.5*
%
%ADD10C,0.00000*%
%ADD11R,0.05906X0.05118*%
%ADD12R,0.01378X0.06299*%
%ADD13C,0.05315*%
%ADD14C,0.02578*%
%ADD15C,0.00787*%
%ADD16C,0.01000*%
D10*
X0021079Y0005938D02*
X0351787Y0005938D01*
X0352072Y0005941D01*
X0352358Y0005952D01*
X0352643Y0005969D01*
X0352927Y0005993D01*
X0353211Y0006024D01*
X0353494Y0006062D01*
X0353775Y0006107D01*
X0354056Y0006158D01*
X0354336Y0006216D01*
X0354614Y0006281D01*
X0354890Y0006353D01*
X0355164Y0006431D01*
X0355437Y0006516D01*
X0355707Y0006608D01*
X0355975Y0006706D01*
X0356241Y0006810D01*
X0356504Y0006921D01*
X0356764Y0007038D01*
X0357022Y0007161D01*
X0357276Y0007291D01*
X0357527Y0007427D01*
X0357775Y0007568D01*
X0358019Y0007716D01*
X0358260Y0007869D01*
X0358496Y0008029D01*
X0358729Y0008194D01*
X0358958Y0008364D01*
X0359183Y0008540D01*
X0359403Y0008722D01*
X0359619Y0008908D01*
X0359830Y0009100D01*
X0360037Y0009297D01*
X0360239Y0009499D01*
X0360436Y0009706D01*
X0360628Y0009917D01*
X0360814Y0010133D01*
X0360996Y0010353D01*
X0361172Y0010578D01*
X0361342Y0010807D01*
X0361507Y0011040D01*
X0361667Y0011276D01*
X0361820Y0011517D01*
X0361968Y0011761D01*
X0362109Y0012009D01*
X0362245Y0012260D01*
X0362375Y0012514D01*
X0362498Y0012772D01*
X0362615Y0013032D01*
X0362726Y0013295D01*
X0362830Y0013561D01*
X0362928Y0013829D01*
X0363020Y0014099D01*
X0363105Y0014372D01*
X0363183Y0014646D01*
X0363255Y0014922D01*
X0363320Y0015200D01*
X0363378Y0015480D01*
X0363429Y0015761D01*
X0363474Y0016042D01*
X0363512Y0016325D01*
X0363543Y0016609D01*
X0363567Y0016893D01*
X0363584Y0017178D01*
X0363595Y0017464D01*
X0363598Y0017749D01*
X0363598Y0053182D01*
X0363598Y0053183D02*
X0363642Y0053516D01*
X0363677Y0053851D01*
X0363704Y0054186D01*
X0363724Y0054522D01*
X0363735Y0054858D01*
X0363738Y0055194D01*
X0363733Y0055530D01*
X0363720Y0055867D01*
X0363698Y0056202D01*
X0363669Y0056537D01*
X0363631Y0056872D01*
X0363586Y0057205D01*
X0363532Y0057537D01*
X0363470Y0057868D01*
X0363401Y0058197D01*
X0363323Y0058524D01*
X0363238Y0058849D01*
X0363144Y0059172D01*
X0363043Y0059493D01*
X0362935Y0059811D01*
X0362818Y0060127D01*
X0362694Y0060440D01*
X0362563Y0060749D01*
X0362424Y0061056D01*
X0362277Y0061358D01*
X0362124Y0061658D01*
X0361963Y0061953D01*
X0361795Y0062245D01*
X0361620Y0062532D01*
X0361438Y0062815D01*
X0361250Y0063093D01*
X0361054Y0063367D01*
X0360852Y0063636D01*
X0360644Y0063900D01*
X0360430Y0064159D01*
X0360209Y0064413D01*
X0359982Y0064662D01*
X0359749Y0064904D01*
X0359511Y0065142D01*
X0359266Y0065373D01*
X0359017Y0065598D01*
X0358762Y0065817D01*
X0358501Y0066030D01*
X0358236Y0066237D01*
X0357965Y0066437D01*
X0357690Y0066631D01*
X0357411Y0066817D01*
X0357127Y0066997D01*
X0356838Y0067171D01*
X0356546Y0067337D01*
X0356249Y0067496D01*
X0355949Y0067647D01*
X0355645Y0067792D01*
X0355338Y0067929D01*
X0355028Y0068059D01*
X0354714Y0068181D01*
X0354398Y0068295D01*
X0354079Y0068402D01*
X0353758Y0068501D01*
X0353434Y0068592D01*
X0353108Y0068676D01*
X0352780Y0068751D01*
X0352451Y0068819D01*
X0352120Y0068879D01*
X0351787Y0068930D01*
X0021079Y0068930D01*
X0020746Y0068879D01*
X0020415Y0068819D01*
X0020086Y0068751D01*
X0019758Y0068676D01*
X0019432Y0068592D01*
X0019108Y0068501D01*
X0018787Y0068402D01*
X0018468Y0068295D01*
X0018152Y0068181D01*
X0017838Y0068059D01*
X0017528Y0067929D01*
X0017221Y0067792D01*
X0016917Y0067647D01*
X0016617Y0067496D01*
X0016320Y0067337D01*
X0016028Y0067171D01*
X0015739Y0066997D01*
X0015455Y0066817D01*
X0015176Y0066631D01*
X0014901Y0066437D01*
X0014630Y0066237D01*
X0014365Y0066030D01*
X0014104Y0065817D01*
X0013849Y0065598D01*
X0013600Y0065373D01*
X0013355Y0065142D01*
X0013117Y0064904D01*
X0012884Y0064662D01*
X0012657Y0064413D01*
X0012436Y0064159D01*
X0012222Y0063900D01*
X0012014Y0063636D01*
X0011812Y0063367D01*
X0011616Y0063093D01*
X0011428Y0062815D01*
X0011246Y0062532D01*
X0011071Y0062245D01*
X0010903Y0061953D01*
X0010742Y0061658D01*
X0010589Y0061358D01*
X0010442Y0061056D01*
X0010303Y0060749D01*
X0010172Y0060440D01*
X0010048Y0060127D01*
X0009931Y0059811D01*
X0009823Y0059493D01*
X0009722Y0059172D01*
X0009628Y0058849D01*
X0009543Y0058524D01*
X0009465Y0058197D01*
X0009396Y0057868D01*
X0009334Y0057537D01*
X0009280Y0057205D01*
X0009235Y0056872D01*
X0009197Y0056537D01*
X0009168Y0056202D01*
X0009146Y0055867D01*
X0009133Y0055530D01*
X0009128Y0055194D01*
X0009131Y0054858D01*
X0009142Y0054522D01*
X0009162Y0054186D01*
X0009189Y0053851D01*
X0009224Y0053516D01*
X0009268Y0053183D01*
X0009268Y0053182D02*
X0009268Y0017749D01*
X0009271Y0017464D01*
X0009282Y0017178D01*
X0009299Y0016893D01*
X0009323Y0016609D01*
X0009354Y0016325D01*
X0009392Y0016042D01*
X0009437Y0015761D01*
X0009488Y0015480D01*
X0009546Y0015200D01*
X0009611Y0014922D01*
X0009683Y0014646D01*
X0009761Y0014372D01*
X0009846Y0014099D01*
X0009938Y0013829D01*
X0010036Y0013561D01*
X0010140Y0013295D01*
X0010251Y0013032D01*
X0010368Y0012772D01*
X0010491Y0012514D01*
X0010621Y0012260D01*
X0010757Y0012009D01*
X0010898Y0011761D01*
X0011046Y0011517D01*
X0011199Y0011276D01*
X0011359Y0011040D01*
X0011524Y0010807D01*
X0011694Y0010578D01*
X0011870Y0010353D01*
X0012052Y0010133D01*
X0012238Y0009917D01*
X0012430Y0009706D01*
X0012627Y0009499D01*
X0012829Y0009297D01*
X0013036Y0009100D01*
X0013247Y0008908D01*
X0013463Y0008722D01*
X0013683Y0008540D01*
X0013908Y0008364D01*
X0014137Y0008194D01*
X0014370Y0008029D01*
X0014606Y0007869D01*
X0014847Y0007716D01*
X0015091Y0007568D01*
X0015339Y0007427D01*
X0015590Y0007291D01*
X0015844Y0007161D01*
X0016102Y0007038D01*
X0016362Y0006921D01*
X0016625Y0006810D01*
X0016891Y0006706D01*
X0017159Y0006608D01*
X0017429Y0006516D01*
X0017702Y0006431D01*
X0017976Y0006353D01*
X0018252Y0006281D01*
X0018530Y0006216D01*
X0018810Y0006158D01*
X0019091Y0006107D01*
X0019372Y0006062D01*
X0019655Y0006024D01*
X0019939Y0005993D01*
X0020223Y0005969D01*
X0020508Y0005952D01*
X0020794Y0005941D01*
X0021079Y0005938D01*
X0042929Y0054363D02*
X0042931Y0054514D01*
X0042937Y0054664D01*
X0042947Y0054815D01*
X0042961Y0054965D01*
X0042979Y0055114D01*
X0043000Y0055264D01*
X0043026Y0055412D01*
X0043056Y0055560D01*
X0043089Y0055707D01*
X0043127Y0055853D01*
X0043168Y0055998D01*
X0043213Y0056142D01*
X0043262Y0056284D01*
X0043315Y0056425D01*
X0043371Y0056565D01*
X0043431Y0056703D01*
X0043494Y0056840D01*
X0043562Y0056975D01*
X0043632Y0057108D01*
X0043706Y0057239D01*
X0043784Y0057368D01*
X0043865Y0057495D01*
X0043949Y0057620D01*
X0044037Y0057743D01*
X0044128Y0057863D01*
X0044222Y0057981D01*
X0044319Y0058096D01*
X0044419Y0058209D01*
X0044522Y0058319D01*
X0044628Y0058426D01*
X0044737Y0058531D01*
X0044848Y0058632D01*
X0044962Y0058731D01*
X0045078Y0058826D01*
X0045198Y0058919D01*
X0045319Y0059008D01*
X0045443Y0059094D01*
X0045569Y0059177D01*
X0045697Y0059256D01*
X0045827Y0059332D01*
X0045959Y0059405D01*
X0046093Y0059473D01*
X0046229Y0059539D01*
X0046367Y0059601D01*
X0046506Y0059659D01*
X0046646Y0059713D01*
X0046788Y0059764D01*
X0046931Y0059811D01*
X0047076Y0059854D01*
X0047221Y0059893D01*
X0047368Y0059929D01*
X0047515Y0059960D01*
X0047663Y0059988D01*
X0047812Y0060012D01*
X0047961Y0060032D01*
X0048111Y0060048D01*
X0048261Y0060060D01*
X0048412Y0060068D01*
X0048563Y0060072D01*
X0048713Y0060072D01*
X0048864Y0060068D01*
X0049015Y0060060D01*
X0049165Y0060048D01*
X0049315Y0060032D01*
X0049464Y0060012D01*
X0049613Y0059988D01*
X0049761Y0059960D01*
X0049908Y0059929D01*
X0050055Y0059893D01*
X0050200Y0059854D01*
X0050345Y0059811D01*
X0050488Y0059764D01*
X0050630Y0059713D01*
X0050770Y0059659D01*
X0050909Y0059601D01*
X0051047Y0059539D01*
X0051183Y0059473D01*
X0051317Y0059405D01*
X0051449Y0059332D01*
X0051579Y0059256D01*
X0051707Y0059177D01*
X0051833Y0059094D01*
X0051957Y0059008D01*
X0052078Y0058919D01*
X0052198Y0058826D01*
X0052314Y0058731D01*
X0052428Y0058632D01*
X0052539Y0058531D01*
X0052648Y0058426D01*
X0052754Y0058319D01*
X0052857Y0058209D01*
X0052957Y0058096D01*
X0053054Y0057981D01*
X0053148Y0057863D01*
X0053239Y0057743D01*
X0053327Y0057620D01*
X0053411Y0057495D01*
X0053492Y0057368D01*
X0053570Y0057239D01*
X0053644Y0057108D01*
X0053714Y0056975D01*
X0053782Y0056840D01*
X0053845Y0056703D01*
X0053905Y0056565D01*
X0053961Y0056425D01*
X0054014Y0056284D01*
X0054063Y0056142D01*
X0054108Y0055998D01*
X0054149Y0055853D01*
X0054187Y0055707D01*
X0054220Y0055560D01*
X0054250Y0055412D01*
X0054276Y0055264D01*
X0054297Y0055114D01*
X0054315Y0054965D01*
X0054329Y0054815D01*
X0054339Y0054664D01*
X0054345Y0054514D01*
X0054347Y0054363D01*
X0054345Y0054212D01*
X0054339Y0054062D01*
X0054329Y0053911D01*
X0054315Y0053761D01*
X0054297Y0053612D01*
X0054276Y0053462D01*
X0054250Y0053314D01*
X0054220Y0053166D01*
X0054187Y0053019D01*
X0054149Y0052873D01*
X0054108Y0052728D01*
X0054063Y0052584D01*
X0054014Y0052442D01*
X0053961Y0052301D01*
X0053905Y0052161D01*
X0053845Y0052023D01*
X0053782Y0051886D01*
X0053714Y0051751D01*
X0053644Y0051618D01*
X0053570Y0051487D01*
X0053492Y0051358D01*
X0053411Y0051231D01*
X0053327Y0051106D01*
X0053239Y0050983D01*
X0053148Y0050863D01*
X0053054Y0050745D01*
X0052957Y0050630D01*
X0052857Y0050517D01*
X0052754Y0050407D01*
X0052648Y0050300D01*
X0052539Y0050195D01*
X0052428Y0050094D01*
X0052314Y0049995D01*
X0052198Y0049900D01*
X0052078Y0049807D01*
X0051957Y0049718D01*
X0051833Y0049632D01*
X0051707Y0049549D01*
X0051579Y0049470D01*
X0051449Y0049394D01*
X0051317Y0049321D01*
X0051183Y0049253D01*
X0051047Y0049187D01*
X0050909Y0049125D01*
X0050770Y0049067D01*
X0050630Y0049013D01*
X0050488Y0048962D01*
X0050345Y0048915D01*
X0050200Y0048872D01*
X0050055Y0048833D01*
X0049908Y0048797D01*
X0049761Y0048766D01*
X0049613Y0048738D01*
X0049464Y0048714D01*
X0049315Y0048694D01*
X0049165Y0048678D01*
X0049015Y0048666D01*
X0048864Y0048658D01*
X0048713Y0048654D01*
X0048563Y0048654D01*
X0048412Y0048658D01*
X0048261Y0048666D01*
X0048111Y0048678D01*
X0047961Y0048694D01*
X0047812Y0048714D01*
X0047663Y0048738D01*
X0047515Y0048766D01*
X0047368Y0048797D01*
X0047221Y0048833D01*
X0047076Y0048872D01*
X0046931Y0048915D01*
X0046788Y0048962D01*
X0046646Y0049013D01*
X0046506Y0049067D01*
X0046367Y0049125D01*
X0046229Y0049187D01*
X0046093Y0049253D01*
X0045959Y0049321D01*
X0045827Y0049394D01*
X0045697Y0049470D01*
X0045569Y0049549D01*
X0045443Y0049632D01*
X0045319Y0049718D01*
X0045198Y0049807D01*
X0045078Y0049900D01*
X0044962Y0049995D01*
X0044848Y0050094D01*
X0044737Y0050195D01*
X0044628Y0050300D01*
X0044522Y0050407D01*
X0044419Y0050517D01*
X0044319Y0050630D01*
X0044222Y0050745D01*
X0044128Y0050863D01*
X0044037Y0050983D01*
X0043949Y0051106D01*
X0043865Y0051231D01*
X0043784Y0051358D01*
X0043706Y0051487D01*
X0043632Y0051618D01*
X0043562Y0051751D01*
X0043494Y0051886D01*
X0043431Y0052023D01*
X0043371Y0052161D01*
X0043315Y0052301D01*
X0043262Y0052442D01*
X0043213Y0052584D01*
X0043168Y0052728D01*
X0043127Y0052873D01*
X0043089Y0053019D01*
X0043056Y0053166D01*
X0043026Y0053314D01*
X0043000Y0053462D01*
X0042979Y0053612D01*
X0042961Y0053761D01*
X0042947Y0053911D01*
X0042937Y0054062D01*
X0042931Y0054212D01*
X0042929Y0054363D01*
X0176000Y0054363D02*
X0176002Y0054524D01*
X0176008Y0054684D01*
X0176018Y0054845D01*
X0176032Y0055005D01*
X0176050Y0055164D01*
X0176071Y0055324D01*
X0176097Y0055482D01*
X0176127Y0055640D01*
X0176160Y0055797D01*
X0176198Y0055954D01*
X0176239Y0056109D01*
X0176284Y0056263D01*
X0176333Y0056416D01*
X0176386Y0056568D01*
X0176442Y0056718D01*
X0176502Y0056867D01*
X0176566Y0057015D01*
X0176633Y0057161D01*
X0176704Y0057305D01*
X0176779Y0057447D01*
X0176857Y0057588D01*
X0176938Y0057726D01*
X0177023Y0057863D01*
X0177112Y0057997D01*
X0177203Y0058129D01*
X0177298Y0058259D01*
X0177396Y0058386D01*
X0177497Y0058511D01*
X0177601Y0058634D01*
X0177708Y0058753D01*
X0177818Y0058870D01*
X0177931Y0058985D01*
X0178047Y0059096D01*
X0178165Y0059205D01*
X0178286Y0059310D01*
X0178410Y0059413D01*
X0178536Y0059513D01*
X0178665Y0059609D01*
X0178796Y0059702D01*
X0178929Y0059792D01*
X0179064Y0059879D01*
X0179202Y0059962D01*
X0179341Y0060041D01*
X0179483Y0060118D01*
X0179626Y0060191D01*
X0179771Y0060260D01*
X0179918Y0060325D01*
X0180066Y0060387D01*
X0180216Y0060446D01*
X0180367Y0060500D01*
X0180519Y0060551D01*
X0180673Y0060598D01*
X0180828Y0060641D01*
X0180983Y0060680D01*
X0181140Y0060716D01*
X0181298Y0060748D01*
X0181456Y0060775D01*
X0181615Y0060799D01*
X0181774Y0060819D01*
X0181934Y0060835D01*
X0182095Y0060847D01*
X0182255Y0060855D01*
X0182416Y0060859D01*
X0182576Y0060859D01*
X0182737Y0060855D01*
X0182897Y0060847D01*
X0183058Y0060835D01*
X0183218Y0060819D01*
X0183377Y0060799D01*
X0183536Y0060775D01*
X0183694Y0060748D01*
X0183852Y0060716D01*
X0184009Y0060680D01*
X0184164Y0060641D01*
X0184319Y0060598D01*
X0184473Y0060551D01*
X0184625Y0060500D01*
X0184776Y0060446D01*
X0184926Y0060387D01*
X0185074Y0060325D01*
X0185221Y0060260D01*
X0185366Y0060191D01*
X0185509Y0060118D01*
X0185651Y0060041D01*
X0185790Y0059962D01*
X0185928Y0059879D01*
X0186063Y0059792D01*
X0186196Y0059702D01*
X0186327Y0059609D01*
X0186456Y0059513D01*
X0186582Y0059413D01*
X0186706Y0059310D01*
X0186827Y0059205D01*
X0186945Y0059096D01*
X0187061Y0058985D01*
X0187174Y0058870D01*
X0187284Y0058753D01*
X0187391Y0058634D01*
X0187495Y0058511D01*
X0187596Y0058386D01*
X0187694Y0058259D01*
X0187789Y0058129D01*
X0187880Y0057997D01*
X0187969Y0057863D01*
X0188054Y0057726D01*
X0188135Y0057588D01*
X0188213Y0057447D01*
X0188288Y0057305D01*
X0188359Y0057161D01*
X0188426Y0057015D01*
X0188490Y0056867D01*
X0188550Y0056718D01*
X0188606Y0056568D01*
X0188659Y0056416D01*
X0188708Y0056263D01*
X0188753Y0056109D01*
X0188794Y0055954D01*
X0188832Y0055797D01*
X0188865Y0055640D01*
X0188895Y0055482D01*
X0188921Y0055324D01*
X0188942Y0055164D01*
X0188960Y0055005D01*
X0188974Y0054845D01*
X0188984Y0054684D01*
X0188990Y0054524D01*
X0188992Y0054363D01*
X0188990Y0054202D01*
X0188984Y0054042D01*
X0188974Y0053881D01*
X0188960Y0053721D01*
X0188942Y0053562D01*
X0188921Y0053402D01*
X0188895Y0053244D01*
X0188865Y0053086D01*
X0188832Y0052929D01*
X0188794Y0052772D01*
X0188753Y0052617D01*
X0188708Y0052463D01*
X0188659Y0052310D01*
X0188606Y0052158D01*
X0188550Y0052008D01*
X0188490Y0051859D01*
X0188426Y0051711D01*
X0188359Y0051565D01*
X0188288Y0051421D01*
X0188213Y0051279D01*
X0188135Y0051138D01*
X0188054Y0051000D01*
X0187969Y0050863D01*
X0187880Y0050729D01*
X0187789Y0050597D01*
X0187694Y0050467D01*
X0187596Y0050340D01*
X0187495Y0050215D01*
X0187391Y0050092D01*
X0187284Y0049973D01*
X0187174Y0049856D01*
X0187061Y0049741D01*
X0186945Y0049630D01*
X0186827Y0049521D01*
X0186706Y0049416D01*
X0186582Y0049313D01*
X0186456Y0049213D01*
X0186327Y0049117D01*
X0186196Y0049024D01*
X0186063Y0048934D01*
X0185928Y0048847D01*
X0185790Y0048764D01*
X0185651Y0048685D01*
X0185509Y0048608D01*
X0185366Y0048535D01*
X0185221Y0048466D01*
X0185074Y0048401D01*
X0184926Y0048339D01*
X0184776Y0048280D01*
X0184625Y0048226D01*
X0184473Y0048175D01*
X0184319Y0048128D01*
X0184164Y0048085D01*
X0184009Y0048046D01*
X0183852Y0048010D01*
X0183694Y0047978D01*
X0183536Y0047951D01*
X0183377Y0047927D01*
X0183218Y0047907D01*
X0183058Y0047891D01*
X0182897Y0047879D01*
X0182737Y0047871D01*
X0182576Y0047867D01*
X0182416Y0047867D01*
X0182255Y0047871D01*
X0182095Y0047879D01*
X0181934Y0047891D01*
X0181774Y0047907D01*
X0181615Y0047927D01*
X0181456Y0047951D01*
X0181298Y0047978D01*
X0181140Y0048010D01*
X0180983Y0048046D01*
X0180828Y0048085D01*
X0180673Y0048128D01*
X0180519Y0048175D01*
X0180367Y0048226D01*
X0180216Y0048280D01*
X0180066Y0048339D01*
X0179918Y0048401D01*
X0179771Y0048466D01*
X0179626Y0048535D01*
X0179483Y0048608D01*
X0179341Y0048685D01*
X0179202Y0048764D01*
X0179064Y0048847D01*
X0178929Y0048934D01*
X0178796Y0049024D01*
X0178665Y0049117D01*
X0178536Y0049213D01*
X0178410Y0049313D01*
X0178286Y0049416D01*
X0178165Y0049521D01*
X0178047Y0049630D01*
X0177931Y0049741D01*
X0177818Y0049856D01*
X0177708Y0049973D01*
X0177601Y0050092D01*
X0177497Y0050215D01*
X0177396Y0050340D01*
X0177298Y0050467D01*
X0177203Y0050597D01*
X0177112Y0050729D01*
X0177023Y0050863D01*
X0176938Y0051000D01*
X0176857Y0051138D01*
X0176779Y0051279D01*
X0176704Y0051421D01*
X0176633Y0051565D01*
X0176566Y0051711D01*
X0176502Y0051859D01*
X0176442Y0052008D01*
X0176386Y0052158D01*
X0176333Y0052310D01*
X0176284Y0052463D01*
X0176239Y0052617D01*
X0176198Y0052772D01*
X0176160Y0052929D01*
X0176127Y0053086D01*
X0176097Y0053244D01*
X0176071Y0053402D01*
X0176050Y0053562D01*
X0176032Y0053721D01*
X0176018Y0053881D01*
X0176008Y0054042D01*
X0176002Y0054202D01*
X0176000Y0054363D01*
X0318913Y0054363D02*
X0318915Y0054524D01*
X0318921Y0054684D01*
X0318931Y0054845D01*
X0318945Y0055005D01*
X0318963Y0055164D01*
X0318984Y0055324D01*
X0319010Y0055482D01*
X0319040Y0055640D01*
X0319073Y0055797D01*
X0319111Y0055954D01*
X0319152Y0056109D01*
X0319197Y0056263D01*
X0319246Y0056416D01*
X0319299Y0056568D01*
X0319355Y0056718D01*
X0319415Y0056867D01*
X0319479Y0057015D01*
X0319546Y0057161D01*
X0319617Y0057305D01*
X0319692Y0057447D01*
X0319770Y0057588D01*
X0319851Y0057726D01*
X0319936Y0057863D01*
X0320025Y0057997D01*
X0320116Y0058129D01*
X0320211Y0058259D01*
X0320309Y0058386D01*
X0320410Y0058511D01*
X0320514Y0058634D01*
X0320621Y0058753D01*
X0320731Y0058870D01*
X0320844Y0058985D01*
X0320960Y0059096D01*
X0321078Y0059205D01*
X0321199Y0059310D01*
X0321323Y0059413D01*
X0321449Y0059513D01*
X0321578Y0059609D01*
X0321709Y0059702D01*
X0321842Y0059792D01*
X0321977Y0059879D01*
X0322115Y0059962D01*
X0322254Y0060041D01*
X0322396Y0060118D01*
X0322539Y0060191D01*
X0322684Y0060260D01*
X0322831Y0060325D01*
X0322979Y0060387D01*
X0323129Y0060446D01*
X0323280Y0060500D01*
X0323432Y0060551D01*
X0323586Y0060598D01*
X0323741Y0060641D01*
X0323896Y0060680D01*
X0324053Y0060716D01*
X0324211Y0060748D01*
X0324369Y0060775D01*
X0324528Y0060799D01*
X0324687Y0060819D01*
X0324847Y0060835D01*
X0325008Y0060847D01*
X0325168Y0060855D01*
X0325329Y0060859D01*
X0325489Y0060859D01*
X0325650Y0060855D01*
X0325810Y0060847D01*
X0325971Y0060835D01*
X0326131Y0060819D01*
X0326290Y0060799D01*
X0326449Y0060775D01*
X0326607Y0060748D01*
X0326765Y0060716D01*
X0326922Y0060680D01*
X0327077Y0060641D01*
X0327232Y0060598D01*
X0327386Y0060551D01*
X0327538Y0060500D01*
X0327689Y0060446D01*
X0327839Y0060387D01*
X0327987Y0060325D01*
X0328134Y0060260D01*
X0328279Y0060191D01*
X0328422Y0060118D01*
X0328564Y0060041D01*
X0328703Y0059962D01*
X0328841Y0059879D01*
X0328976Y0059792D01*
X0329109Y0059702D01*
X0329240Y0059609D01*
X0329369Y0059513D01*
X0329495Y0059413D01*
X0329619Y0059310D01*
X0329740Y0059205D01*
X0329858Y0059096D01*
X0329974Y0058985D01*
X0330087Y0058870D01*
X0330197Y0058753D01*
X0330304Y0058634D01*
X0330408Y0058511D01*
X0330509Y0058386D01*
X0330607Y0058259D01*
X0330702Y0058129D01*
X0330793Y0057997D01*
X0330882Y0057863D01*
X0330967Y0057726D01*
X0331048Y0057588D01*
X0331126Y0057447D01*
X0331201Y0057305D01*
X0331272Y0057161D01*
X0331339Y0057015D01*
X0331403Y0056867D01*
X0331463Y0056718D01*
X0331519Y0056568D01*
X0331572Y0056416D01*
X0331621Y0056263D01*
X0331666Y0056109D01*
X0331707Y0055954D01*
X0331745Y0055797D01*
X0331778Y0055640D01*
X0331808Y0055482D01*
X0331834Y0055324D01*
X0331855Y0055164D01*
X0331873Y0055005D01*
X0331887Y0054845D01*
X0331897Y0054684D01*
X0331903Y0054524D01*
X0331905Y0054363D01*
X0331903Y0054202D01*
X0331897Y0054042D01*
X0331887Y0053881D01*
X0331873Y0053721D01*
X0331855Y0053562D01*
X0331834Y0053402D01*
X0331808Y0053244D01*
X0331778Y0053086D01*
X0331745Y0052929D01*
X0331707Y0052772D01*
X0331666Y0052617D01*
X0331621Y0052463D01*
X0331572Y0052310D01*
X0331519Y0052158D01*
X0331463Y0052008D01*
X0331403Y0051859D01*
X0331339Y0051711D01*
X0331272Y0051565D01*
X0331201Y0051421D01*
X0331126Y0051279D01*
X0331048Y0051138D01*
X0330967Y0051000D01*
X0330882Y0050863D01*
X0330793Y0050729D01*
X0330702Y0050597D01*
X0330607Y0050467D01*
X0330509Y0050340D01*
X0330408Y0050215D01*
X0330304Y0050092D01*
X0330197Y0049973D01*
X0330087Y0049856D01*
X0329974Y0049741D01*
X0329858Y0049630D01*
X0329740Y0049521D01*
X0329619Y0049416D01*
X0329495Y0049313D01*
X0329369Y0049213D01*
X0329240Y0049117D01*
X0329109Y0049024D01*
X0328976Y0048934D01*
X0328841Y0048847D01*
X0328703Y0048764D01*
X0328564Y0048685D01*
X0328422Y0048608D01*
X0328279Y0048535D01*
X0328134Y0048466D01*
X0327987Y0048401D01*
X0327839Y0048339D01*
X0327689Y0048280D01*
X0327538Y0048226D01*
X0327386Y0048175D01*
X0327232Y0048128D01*
X0327077Y0048085D01*
X0326922Y0048046D01*
X0326765Y0048010D01*
X0326607Y0047978D01*
X0326449Y0047951D01*
X0326290Y0047927D01*
X0326131Y0047907D01*
X0325971Y0047891D01*
X0325810Y0047879D01*
X0325650Y0047871D01*
X0325489Y0047867D01*
X0325329Y0047867D01*
X0325168Y0047871D01*
X0325008Y0047879D01*
X0324847Y0047891D01*
X0324687Y0047907D01*
X0324528Y0047927D01*
X0324369Y0047951D01*
X0324211Y0047978D01*
X0324053Y0048010D01*
X0323896Y0048046D01*
X0323741Y0048085D01*
X0323586Y0048128D01*
X0323432Y0048175D01*
X0323280Y0048226D01*
X0323129Y0048280D01*
X0322979Y0048339D01*
X0322831Y0048401D01*
X0322684Y0048466D01*
X0322539Y0048535D01*
X0322396Y0048608D01*
X0322254Y0048685D01*
X0322115Y0048764D01*
X0321977Y0048847D01*
X0321842Y0048934D01*
X0321709Y0049024D01*
X0321578Y0049117D01*
X0321449Y0049213D01*
X0321323Y0049313D01*
X0321199Y0049416D01*
X0321078Y0049521D01*
X0320960Y0049630D01*
X0320844Y0049741D01*
X0320731Y0049856D01*
X0320621Y0049973D01*
X0320514Y0050092D01*
X0320410Y0050215D01*
X0320309Y0050340D01*
X0320211Y0050467D01*
X0320116Y0050597D01*
X0320025Y0050729D01*
X0319936Y0050863D01*
X0319851Y0051000D01*
X0319770Y0051138D01*
X0319692Y0051279D01*
X0319617Y0051421D01*
X0319546Y0051565D01*
X0319479Y0051711D01*
X0319415Y0051859D01*
X0319355Y0052008D01*
X0319299Y0052158D01*
X0319246Y0052310D01*
X0319197Y0052463D01*
X0319152Y0052617D01*
X0319111Y0052772D01*
X0319073Y0052929D01*
X0319040Y0053086D01*
X0319010Y0053244D01*
X0318984Y0053402D01*
X0318963Y0053562D01*
X0318945Y0053721D01*
X0318931Y0053881D01*
X0318921Y0054042D01*
X0318915Y0054202D01*
X0318913Y0054363D01*
D11*
X0261236Y0039993D03*
X0261236Y0032513D03*
X0190370Y0032513D03*
X0190370Y0039993D03*
X0119504Y0039993D03*
X0119504Y0032513D03*
X0048638Y0032513D03*
X0048638Y0039993D03*
D12*
X0336236Y0047572D03*
X0338795Y0047572D03*
X0341354Y0047572D03*
X0343913Y0047572D03*
X0346472Y0047572D03*
X0349031Y0047572D03*
X0351591Y0047572D03*
X0351591Y0024934D03*
X0349031Y0024934D03*
X0346472Y0024934D03*
X0343913Y0024934D03*
X0341354Y0024934D03*
X0338795Y0024934D03*
X0336236Y0024934D03*
D13*
X0302575Y0024442D03*
X0292732Y0024442D03*
X0282890Y0024442D03*
X0231709Y0024442D03*
X0221866Y0024442D03*
X0212024Y0024442D03*
X0160843Y0024442D03*
X0151000Y0024442D03*
X0141157Y0024442D03*
X0089976Y0024442D03*
X0080134Y0024442D03*
X0070291Y0024442D03*
X0070291Y0048064D03*
X0080134Y0048064D03*
X0089976Y0048064D03*
X0141157Y0048064D03*
X0151000Y0048064D03*
X0160843Y0048064D03*
X0212024Y0048064D03*
X0221866Y0048064D03*
X0231709Y0048064D03*
X0282890Y0048064D03*
X0292732Y0048064D03*
X0302575Y0048064D03*
D14*
X0349031Y0042552D03*
X0355724Y0040190D03*
X0347850Y0034285D03*
X0339976Y0034285D03*
X0269110Y0035859D03*
X0198244Y0035859D03*
X0127378Y0035859D03*
X0056512Y0035859D03*
X0350311Y0016962D03*
D15*
X0351591Y0018241D01*
X0351591Y0024934D01*
X0351591Y0020391D01*
X0351975Y0020391D01*
X0351975Y0017360D01*
X0350682Y0016067D01*
X0349940Y0016067D01*
X0349375Y0016632D01*
X0348562Y0017445D01*
X0347933Y0017445D01*
X0350419Y0019930D01*
X0350419Y0020471D01*
X0350718Y0020391D01*
X0351590Y0020391D01*
X0351590Y0024934D01*
X0351591Y0024934D01*
X0351590Y0024934D01*
X0351590Y0029478D01*
X0350718Y0029478D01*
X0350364Y0029383D01*
X0350046Y0029199D01*
X0349924Y0029078D01*
X0347931Y0029078D01*
X0347860Y0029007D01*
X0347860Y0032002D01*
X0348796Y0032002D01*
X0350133Y0033339D01*
X0350133Y0035230D01*
X0348796Y0036567D01*
X0346905Y0036567D01*
X0345568Y0035230D01*
X0345568Y0033964D01*
X0345085Y0033481D01*
X0345085Y0029007D01*
X0345014Y0029078D01*
X0342813Y0029078D01*
X0342742Y0029007D01*
X0342742Y0033481D01*
X0342259Y0033964D01*
X0342259Y0035230D01*
X0340922Y0036567D01*
X0339031Y0036567D01*
X0337694Y0035230D01*
X0337694Y0033339D01*
X0339031Y0032002D01*
X0339967Y0032002D01*
X0339967Y0029007D01*
X0339896Y0029078D01*
X0337695Y0029078D01*
X0337516Y0028899D01*
X0337337Y0029078D01*
X0335136Y0029078D01*
X0334554Y0028496D01*
X0334554Y0021373D01*
X0335136Y0020791D01*
X0337337Y0020791D01*
X0337516Y0020970D01*
X0337695Y0020791D01*
X0339896Y0020791D01*
X0340075Y0020970D01*
X0340254Y0020791D01*
X0341843Y0020791D01*
X0341272Y0020219D01*
X0264272Y0020219D01*
X0262624Y0021867D01*
X0262624Y0028960D01*
X0264601Y0028960D01*
X0265183Y0029542D01*
X0265183Y0031126D01*
X0268307Y0031126D01*
X0269120Y0031938D01*
X0270498Y0033316D01*
X0270498Y0034019D01*
X0271393Y0034914D01*
X0271393Y0036805D01*
X0270056Y0038142D01*
X0268165Y0038142D01*
X0266828Y0036805D01*
X0266828Y0034914D01*
X0267499Y0034242D01*
X0267158Y0033900D01*
X0265183Y0033900D01*
X0265183Y0035484D01*
X0264601Y0036066D01*
X0257872Y0036066D01*
X0257290Y0035484D01*
X0257290Y0029542D01*
X0257872Y0028960D01*
X0259849Y0028960D01*
X0259849Y0020718D01*
X0261735Y0018832D01*
X0193612Y0018832D01*
X0191757Y0020686D01*
X0191757Y0028960D01*
X0193734Y0028960D01*
X0194317Y0029542D01*
X0194317Y0031126D01*
X0197441Y0031126D01*
X0198254Y0031938D01*
X0199631Y0033316D01*
X0199631Y0034019D01*
X0200527Y0034914D01*
X0200527Y0036805D01*
X0199190Y0038142D01*
X0197299Y0038142D01*
X0195961Y0036805D01*
X0195961Y0034914D01*
X0196633Y0034242D01*
X0196291Y0033900D01*
X0194317Y0033900D01*
X0194317Y0035484D01*
X0193734Y0036066D01*
X0187006Y0036066D01*
X0186424Y0035484D01*
X0186424Y0029542D01*
X0187006Y0028960D01*
X0188983Y0028960D01*
X0188983Y0019537D01*
X0191075Y0017445D01*
X0123346Y0017445D01*
X0120891Y0019899D01*
X0120891Y0028960D01*
X0122868Y0028960D01*
X0123450Y0029542D01*
X0123450Y0031126D01*
X0126575Y0031126D01*
X0127387Y0031938D01*
X0128765Y0033316D01*
X0128765Y0034019D01*
X0129661Y0034914D01*
X0129661Y0036805D01*
X0128323Y0038142D01*
X0126432Y0038142D01*
X0125095Y0036805D01*
X0125095Y0034914D01*
X0125767Y0034242D01*
X0125425Y0033900D01*
X0123450Y0033900D01*
X0123450Y0035484D01*
X0122868Y0036066D01*
X0116140Y0036066D01*
X0115557Y0035484D01*
X0115557Y0029542D01*
X0116140Y0028960D01*
X0118117Y0028960D01*
X0118117Y0018749D01*
X0118929Y0017937D01*
X0118929Y0017937D01*
X0120879Y0015987D01*
X0052362Y0015987D01*
X0050025Y0018324D01*
X0050025Y0028960D01*
X0052002Y0028960D01*
X0052584Y0029542D01*
X0052584Y0031126D01*
X0055709Y0031126D01*
X0056521Y0031938D01*
X0057899Y0033316D01*
X0057899Y0034019D01*
X0058794Y0034914D01*
X0058794Y0036805D01*
X0057457Y0038142D01*
X0055566Y0038142D01*
X0054229Y0036805D01*
X0054229Y0034914D01*
X0054901Y0034242D01*
X0054559Y0033900D01*
X0052584Y0033900D01*
X0052584Y0035484D01*
X0052002Y0036066D01*
X0045273Y0036066D01*
X0044691Y0035484D01*
X0044691Y0029542D01*
X0045273Y0028960D01*
X0047250Y0028960D01*
X0047250Y0017175D01*
X0048063Y0016362D01*
X0050400Y0014025D01*
X0051213Y0013212D01*
X0346908Y0013212D01*
X0348216Y0011904D01*
X0352406Y0011904D01*
X0356137Y0015635D01*
X0356137Y0036615D01*
X0355324Y0037428D01*
X0354845Y0037908D01*
X0356670Y0037908D01*
X0358007Y0039245D01*
X0358007Y0041136D01*
X0356670Y0042473D01*
X0355404Y0042473D01*
X0355143Y0042733D01*
X0355143Y0052576D01*
X0354331Y0053389D01*
X0353543Y0054176D01*
X0344520Y0054176D01*
X0343707Y0053363D01*
X0342526Y0052182D01*
X0342526Y0051644D01*
X0342455Y0051715D01*
X0340254Y0051715D01*
X0340075Y0051536D01*
X0339896Y0051715D01*
X0337695Y0051715D01*
X0337516Y0051536D01*
X0337337Y0051715D01*
X0335136Y0051715D01*
X0334554Y0051133D01*
X0334554Y0044011D01*
X0334849Y0043716D01*
X0334849Y0042537D01*
X0333693Y0041381D01*
X0294120Y0041381D01*
X0294120Y0044687D01*
X0294801Y0044969D01*
X0295828Y0045996D01*
X0296383Y0047338D01*
X0296383Y0048790D01*
X0295828Y0050132D01*
X0294801Y0051160D01*
X0293459Y0051715D01*
X0292006Y0051715D01*
X0290664Y0051160D01*
X0289637Y0050132D01*
X0289081Y0048790D01*
X0289081Y0047338D01*
X0289637Y0045996D01*
X0290664Y0044969D01*
X0291345Y0044687D01*
X0291345Y0041381D01*
X0265183Y0041381D01*
X0265183Y0042964D01*
X0264601Y0043546D01*
X0257872Y0043546D01*
X0257290Y0042964D01*
X0257290Y0041487D01*
X0223254Y0041487D01*
X0223254Y0044687D01*
X0223934Y0044969D01*
X0224961Y0045996D01*
X0225517Y0047338D01*
X0225517Y0048790D01*
X0224961Y0050132D01*
X0223934Y0051160D01*
X0222592Y0051715D01*
X0221140Y0051715D01*
X0219798Y0051160D01*
X0218771Y0050132D01*
X0218215Y0048790D01*
X0218215Y0047338D01*
X0218771Y0045996D01*
X0219798Y0044969D01*
X0220479Y0044687D01*
X0220479Y0041487D01*
X0194317Y0041487D01*
X0194317Y0042964D01*
X0193734Y0043546D01*
X0187006Y0043546D01*
X0186424Y0042964D01*
X0186424Y0041487D01*
X0152387Y0041487D01*
X0152387Y0044687D01*
X0153068Y0044969D01*
X0154095Y0045996D01*
X0154651Y0047338D01*
X0154651Y0048790D01*
X0154095Y0050132D01*
X0153068Y0051160D01*
X0151726Y0051715D01*
X0150274Y0051715D01*
X0148932Y0051160D01*
X0147905Y0050132D01*
X0147349Y0048790D01*
X0147349Y0047338D01*
X0147905Y0045996D01*
X0148932Y0044969D01*
X0149613Y0044687D01*
X0149613Y0041487D01*
X0123450Y0041487D01*
X0123450Y0042964D01*
X0122868Y0043546D01*
X0116140Y0043546D01*
X0115557Y0042964D01*
X0115557Y0041487D01*
X0081521Y0041487D01*
X0081521Y0044687D01*
X0082202Y0044969D01*
X0083229Y0045996D01*
X0083785Y0047338D01*
X0083785Y0048790D01*
X0083229Y0050132D01*
X0082202Y0051160D01*
X0080860Y0051715D01*
X0079408Y0051715D01*
X0078066Y0051160D01*
X0077039Y0050132D01*
X0076483Y0048790D01*
X0076483Y0047338D01*
X0077039Y0045996D01*
X0078066Y0044969D01*
X0078746Y0044687D01*
X0078746Y0041487D01*
X0052584Y0041487D01*
X0052584Y0042964D01*
X0052002Y0043546D01*
X0045273Y0043546D01*
X0044691Y0042964D01*
X0044691Y0037023D01*
X0045273Y0036441D01*
X0052002Y0036441D01*
X0052584Y0037023D01*
X0052584Y0038500D01*
X0115557Y0038500D01*
X0115557Y0037023D01*
X0116140Y0036441D01*
X0122868Y0036441D01*
X0123450Y0037023D01*
X0123450Y0038500D01*
X0186424Y0038500D01*
X0186424Y0037023D01*
X0187006Y0036441D01*
X0193734Y0036441D01*
X0194317Y0037023D01*
X0194317Y0038500D01*
X0257290Y0038500D01*
X0257290Y0037023D01*
X0257872Y0036441D01*
X0264601Y0036441D01*
X0265183Y0037023D01*
X0265183Y0038606D01*
X0334842Y0038606D01*
X0337624Y0041387D01*
X0337624Y0043500D01*
X0337695Y0043429D01*
X0339896Y0043429D01*
X0340075Y0043608D01*
X0340254Y0043429D01*
X0342455Y0043429D01*
X0342634Y0043608D01*
X0342813Y0043429D01*
X0345014Y0043429D01*
X0345085Y0043500D01*
X0345085Y0040600D01*
X0347250Y0038434D01*
X0348063Y0037622D01*
X0349244Y0037622D01*
X0351975Y0034891D01*
X0351975Y0029478D01*
X0351591Y0029478D01*
X0351591Y0024934D01*
X0351590Y0024800D02*
X0351591Y0024800D01*
X0351590Y0024014D02*
X0351591Y0024014D01*
X0351590Y0023228D02*
X0351591Y0023228D01*
X0351590Y0022442D02*
X0351591Y0022442D01*
X0351590Y0021656D02*
X0351591Y0021656D01*
X0351590Y0020871D02*
X0351591Y0020871D01*
X0351975Y0020085D02*
X0350419Y0020085D01*
X0349787Y0019299D02*
X0351975Y0019299D01*
X0351975Y0018513D02*
X0349001Y0018513D01*
X0348215Y0017727D02*
X0351975Y0017727D01*
X0351556Y0016941D02*
X0349066Y0016941D01*
X0349852Y0016155D02*
X0350770Y0016155D01*
X0351257Y0014679D02*
X0353362Y0016785D01*
X0353362Y0035466D01*
X0349819Y0039009D01*
X0348638Y0039009D01*
X0346472Y0041174D01*
X0346472Y0047572D01*
X0343913Y0047572D02*
X0343913Y0051608D01*
X0345094Y0052789D01*
X0352969Y0052789D01*
X0353756Y0052001D01*
X0353756Y0042159D01*
X0355724Y0040190D01*
X0358007Y0040518D02*
X0361205Y0040518D01*
X0361205Y0039732D02*
X0358007Y0039732D01*
X0357709Y0038947D02*
X0361205Y0038947D01*
X0361205Y0038161D02*
X0356923Y0038161D01*
X0355377Y0037375D02*
X0361205Y0037375D01*
X0361205Y0036589D02*
X0356137Y0036589D01*
X0356137Y0035803D02*
X0361205Y0035803D01*
X0361205Y0035017D02*
X0356137Y0035017D01*
X0356137Y0034231D02*
X0361205Y0034231D01*
X0361205Y0033445D02*
X0356137Y0033445D01*
X0356137Y0032659D02*
X0361205Y0032659D01*
X0361205Y0031873D02*
X0356137Y0031873D01*
X0356137Y0031087D02*
X0361205Y0031087D01*
X0361205Y0030302D02*
X0356137Y0030302D01*
X0356137Y0029516D02*
X0361205Y0029516D01*
X0361205Y0028730D02*
X0356137Y0028730D01*
X0356137Y0027944D02*
X0361205Y0027944D01*
X0361205Y0027158D02*
X0356137Y0027158D01*
X0356137Y0026372D02*
X0361205Y0026372D01*
X0361205Y0025586D02*
X0356137Y0025586D01*
X0356137Y0024800D02*
X0361205Y0024800D01*
X0361205Y0024014D02*
X0356137Y0024014D01*
X0356137Y0023228D02*
X0361205Y0023228D01*
X0361205Y0022442D02*
X0356137Y0022442D01*
X0356137Y0021656D02*
X0361205Y0021656D01*
X0361205Y0020871D02*
X0356137Y0020871D01*
X0356137Y0020085D02*
X0361205Y0020085D01*
X0361205Y0019299D02*
X0356137Y0019299D01*
X0356137Y0018513D02*
X0361205Y0018513D01*
X0361205Y0017749D02*
X0361089Y0016276D01*
X0360178Y0013474D01*
X0358446Y0011090D01*
X0356063Y0009358D01*
X0353261Y0008448D01*
X0351787Y0008332D01*
X0021079Y0008332D01*
X0019606Y0008448D01*
X0016803Y0009358D01*
X0014420Y0011090D01*
X0012688Y0013474D01*
X0011777Y0016276D01*
X0011661Y0017749D01*
X0011661Y0052881D01*
X0011705Y0053049D01*
X0011661Y0053352D01*
X0011661Y0053658D01*
X0011619Y0053761D01*
X0011522Y0055024D01*
X0011882Y0058011D01*
X0013003Y0060804D01*
X0014808Y0063211D01*
X0017175Y0065068D01*
X0019942Y0066250D01*
X0021303Y0066537D01*
X0351563Y0066537D01*
X0352924Y0066250D01*
X0355691Y0065068D01*
X0358058Y0063211D01*
X0359863Y0060804D01*
X0360984Y0058011D01*
X0361344Y0055024D01*
X0361247Y0053761D01*
X0361205Y0053658D01*
X0361205Y0053352D01*
X0361161Y0053049D01*
X0361205Y0052881D01*
X0361205Y0017749D01*
X0361203Y0017727D02*
X0356137Y0017727D01*
X0356137Y0016941D02*
X0361141Y0016941D01*
X0361049Y0016155D02*
X0356137Y0016155D01*
X0355871Y0015369D02*
X0360794Y0015369D01*
X0360539Y0014583D02*
X0355085Y0014583D01*
X0354299Y0013797D02*
X0360283Y0013797D01*
X0359842Y0013011D02*
X0353513Y0013011D01*
X0352727Y0012226D02*
X0359271Y0012226D01*
X0358700Y0011440D02*
X0014166Y0011440D01*
X0013595Y0012226D02*
X0347895Y0012226D01*
X0347109Y0013011D02*
X0013024Y0013011D01*
X0012583Y0013797D02*
X0050628Y0013797D01*
X0049842Y0014583D02*
X0012327Y0014583D01*
X0012072Y0015369D02*
X0049056Y0015369D01*
X0048270Y0016155D02*
X0011817Y0016155D01*
X0011725Y0016941D02*
X0047484Y0016941D01*
X0047250Y0017727D02*
X0011663Y0017727D01*
X0011661Y0018513D02*
X0047250Y0018513D01*
X0047250Y0019299D02*
X0011661Y0019299D01*
X0011661Y0020085D02*
X0047250Y0020085D01*
X0047250Y0020871D02*
X0011661Y0020871D01*
X0011661Y0021656D02*
X0047250Y0021656D01*
X0047250Y0022442D02*
X0011661Y0022442D01*
X0011661Y0023228D02*
X0047250Y0023228D01*
X0047250Y0024014D02*
X0011661Y0024014D01*
X0011661Y0024800D02*
X0047250Y0024800D01*
X0047250Y0025586D02*
X0011661Y0025586D01*
X0011661Y0026372D02*
X0047250Y0026372D01*
X0047250Y0027158D02*
X0011661Y0027158D01*
X0011661Y0027944D02*
X0047250Y0027944D01*
X0047250Y0028730D02*
X0011661Y0028730D01*
X0011661Y0029516D02*
X0044718Y0029516D01*
X0044691Y0030302D02*
X0011661Y0030302D01*
X0011661Y0031087D02*
X0044691Y0031087D01*
X0044691Y0031873D02*
X0011661Y0031873D01*
X0011661Y0032659D02*
X0044691Y0032659D01*
X0044691Y0033445D02*
X0011661Y0033445D01*
X0011661Y0034231D02*
X0044691Y0034231D01*
X0044691Y0035017D02*
X0011661Y0035017D01*
X0011661Y0035803D02*
X0045011Y0035803D01*
X0045125Y0036589D02*
X0011661Y0036589D01*
X0011661Y0037375D02*
X0044691Y0037375D01*
X0044691Y0038161D02*
X0011661Y0038161D01*
X0011661Y0038947D02*
X0044691Y0038947D01*
X0044691Y0039732D02*
X0011661Y0039732D01*
X0011661Y0040518D02*
X0044691Y0040518D01*
X0044691Y0041304D02*
X0011661Y0041304D01*
X0011661Y0042090D02*
X0044691Y0042090D01*
X0044691Y0042876D02*
X0011661Y0042876D01*
X0011661Y0043662D02*
X0078746Y0043662D01*
X0078746Y0042876D02*
X0052584Y0042876D01*
X0052584Y0042090D02*
X0078746Y0042090D01*
X0081521Y0042090D02*
X0115557Y0042090D01*
X0115557Y0042876D02*
X0081521Y0042876D01*
X0081521Y0043662D02*
X0149613Y0043662D01*
X0149613Y0042876D02*
X0123450Y0042876D01*
X0123450Y0042090D02*
X0149613Y0042090D01*
X0152387Y0042090D02*
X0186424Y0042090D01*
X0186424Y0042876D02*
X0152387Y0042876D01*
X0152387Y0043662D02*
X0220479Y0043662D01*
X0220479Y0042876D02*
X0194317Y0042876D01*
X0194317Y0042090D02*
X0220479Y0042090D01*
X0223254Y0042090D02*
X0257290Y0042090D01*
X0257290Y0042876D02*
X0223254Y0042876D01*
X0223254Y0043662D02*
X0291345Y0043662D01*
X0291345Y0042876D02*
X0265183Y0042876D01*
X0265183Y0042090D02*
X0291345Y0042090D01*
X0294120Y0042090D02*
X0334403Y0042090D01*
X0334849Y0042876D02*
X0294120Y0042876D01*
X0294120Y0043662D02*
X0334849Y0043662D01*
X0334554Y0044448D02*
X0303385Y0044448D01*
X0303301Y0044413D02*
X0304643Y0044969D01*
X0305670Y0045996D01*
X0306226Y0047338D01*
X0306226Y0048790D01*
X0305670Y0050132D01*
X0304643Y0051160D01*
X0303301Y0051715D01*
X0301849Y0051715D01*
X0300507Y0051160D01*
X0299479Y0050132D01*
X0298924Y0048790D01*
X0298924Y0047338D01*
X0299479Y0045996D01*
X0300507Y0044969D01*
X0301849Y0044413D01*
X0303301Y0044413D01*
X0301764Y0044448D02*
X0294120Y0044448D01*
X0295065Y0045234D02*
X0300242Y0045234D01*
X0299470Y0046020D02*
X0295837Y0046020D01*
X0296163Y0046806D02*
X0299144Y0046806D01*
X0298924Y0047592D02*
X0296383Y0047592D01*
X0296383Y0048378D02*
X0298924Y0048378D01*
X0299078Y0049163D02*
X0296229Y0049163D01*
X0295903Y0049949D02*
X0299404Y0049949D01*
X0300082Y0050735D02*
X0295225Y0050735D01*
X0293927Y0051521D02*
X0301380Y0051521D01*
X0303770Y0051521D02*
X0316965Y0051521D01*
X0317290Y0050735D02*
X0305067Y0050735D01*
X0305746Y0049949D02*
X0317616Y0049949D01*
X0317873Y0049328D02*
X0320374Y0046827D01*
X0323641Y0045474D01*
X0327178Y0045474D01*
X0330445Y0046827D01*
X0332946Y0049328D01*
X0334299Y0052595D01*
X0334299Y0056132D01*
X0332946Y0059399D01*
X0330445Y0061900D01*
X0327178Y0063253D01*
X0323641Y0063253D01*
X0320374Y0061900D01*
X0317873Y0059399D01*
X0316520Y0056132D01*
X0316520Y0052595D01*
X0317873Y0049328D01*
X0318037Y0049163D02*
X0306071Y0049163D01*
X0306226Y0048378D02*
X0318823Y0048378D01*
X0319609Y0047592D02*
X0306226Y0047592D01*
X0306006Y0046806D02*
X0320425Y0046806D01*
X0322323Y0046020D02*
X0305680Y0046020D01*
X0304908Y0045234D02*
X0334554Y0045234D01*
X0334554Y0046020D02*
X0328496Y0046020D01*
X0330394Y0046806D02*
X0334554Y0046806D01*
X0334554Y0047592D02*
X0331210Y0047592D01*
X0331996Y0048378D02*
X0334554Y0048378D01*
X0334554Y0049163D02*
X0332781Y0049163D01*
X0333203Y0049949D02*
X0334554Y0049949D01*
X0334554Y0050735D02*
X0333529Y0050735D01*
X0333854Y0051521D02*
X0334941Y0051521D01*
X0334180Y0052307D02*
X0342651Y0052307D01*
X0343437Y0053093D02*
X0334299Y0053093D01*
X0334299Y0053879D02*
X0344223Y0053879D01*
X0353840Y0053879D02*
X0361256Y0053879D01*
X0361316Y0054665D02*
X0334299Y0054665D01*
X0334299Y0055451D02*
X0361293Y0055451D01*
X0361198Y0056237D02*
X0334256Y0056237D01*
X0333930Y0057023D02*
X0361103Y0057023D01*
X0361008Y0057808D02*
X0333605Y0057808D01*
X0333279Y0058594D02*
X0360750Y0058594D01*
X0360435Y0059380D02*
X0332954Y0059380D01*
X0332179Y0060166D02*
X0360119Y0060166D01*
X0359752Y0060952D02*
X0331393Y0060952D01*
X0330607Y0061738D02*
X0359162Y0061738D01*
X0358573Y0062524D02*
X0328938Y0062524D01*
X0321881Y0062524D02*
X0186025Y0062524D01*
X0187532Y0061900D02*
X0184264Y0063253D01*
X0180728Y0063253D01*
X0177460Y0061900D01*
X0174960Y0059399D01*
X0173606Y0056132D01*
X0173606Y0052595D01*
X0174960Y0049328D01*
X0177460Y0046827D01*
X0180728Y0045474D01*
X0184264Y0045474D01*
X0187532Y0046827D01*
X0190032Y0049328D01*
X0191386Y0052595D01*
X0191386Y0056132D01*
X0190032Y0059399D01*
X0187532Y0061900D01*
X0187693Y0061738D02*
X0320212Y0061738D01*
X0319426Y0060952D02*
X0188479Y0060952D01*
X0189265Y0060166D02*
X0318640Y0060166D01*
X0317865Y0059380D02*
X0190040Y0059380D01*
X0190366Y0058594D02*
X0317540Y0058594D01*
X0317214Y0057808D02*
X0190691Y0057808D01*
X0191017Y0057023D02*
X0316889Y0057023D01*
X0316563Y0056237D02*
X0191342Y0056237D01*
X0191386Y0055451D02*
X0316520Y0055451D01*
X0316520Y0054665D02*
X0191386Y0054665D01*
X0191386Y0053879D02*
X0316520Y0053879D01*
X0316520Y0053093D02*
X0191386Y0053093D01*
X0191266Y0052307D02*
X0316639Y0052307D01*
X0336236Y0047572D02*
X0336236Y0041962D01*
X0334268Y0039993D01*
X0292732Y0039993D01*
X0292732Y0048064D01*
X0289081Y0048378D02*
X0286541Y0048378D01*
X0286541Y0048790D02*
X0286541Y0047338D01*
X0285985Y0045996D01*
X0284958Y0044969D01*
X0283616Y0044413D01*
X0282163Y0044413D01*
X0280822Y0044969D01*
X0279794Y0045996D01*
X0279239Y0047338D01*
X0279239Y0048790D01*
X0279794Y0050132D01*
X0280822Y0051160D01*
X0282163Y0051715D01*
X0283616Y0051715D01*
X0284958Y0051160D01*
X0285985Y0050132D01*
X0286541Y0048790D01*
X0286386Y0049163D02*
X0289236Y0049163D01*
X0289561Y0049949D02*
X0286061Y0049949D01*
X0285382Y0050735D02*
X0290240Y0050735D01*
X0291537Y0051521D02*
X0284085Y0051521D01*
X0281695Y0051521D02*
X0232904Y0051521D01*
X0232435Y0051715D02*
X0230982Y0051715D01*
X0229640Y0051160D01*
X0228613Y0050132D01*
X0228057Y0048790D01*
X0228057Y0047338D01*
X0228613Y0045996D01*
X0229640Y0044969D01*
X0230982Y0044413D01*
X0232435Y0044413D01*
X0233777Y0044969D01*
X0234804Y0045996D01*
X0235360Y0047338D01*
X0235360Y0048790D01*
X0234804Y0050132D01*
X0233777Y0051160D01*
X0232435Y0051715D01*
X0230514Y0051521D02*
X0223061Y0051521D01*
X0224359Y0050735D02*
X0229216Y0050735D01*
X0228538Y0049949D02*
X0225037Y0049949D01*
X0225363Y0049163D02*
X0228212Y0049163D01*
X0228057Y0048378D02*
X0225517Y0048378D01*
X0225517Y0047592D02*
X0228057Y0047592D01*
X0228278Y0046806D02*
X0225297Y0046806D01*
X0224971Y0046020D02*
X0228603Y0046020D01*
X0229375Y0045234D02*
X0224199Y0045234D01*
X0223254Y0044448D02*
X0230898Y0044448D01*
X0232519Y0044448D02*
X0282079Y0044448D01*
X0283700Y0044448D02*
X0291345Y0044448D01*
X0290399Y0045234D02*
X0285223Y0045234D01*
X0285995Y0046020D02*
X0289627Y0046020D01*
X0289302Y0046806D02*
X0286320Y0046806D01*
X0286541Y0047592D02*
X0289081Y0047592D01*
X0279785Y0046020D02*
X0234814Y0046020D01*
X0235139Y0046806D02*
X0279459Y0046806D01*
X0279239Y0047592D02*
X0235360Y0047592D01*
X0235360Y0048378D02*
X0279239Y0048378D01*
X0279393Y0049163D02*
X0235205Y0049163D01*
X0234880Y0049949D02*
X0279719Y0049949D01*
X0280397Y0050735D02*
X0234201Y0050735D01*
X0221866Y0048064D02*
X0221866Y0039993D01*
X0220479Y0044448D02*
X0212834Y0044448D01*
X0212750Y0044413D02*
X0214092Y0044969D01*
X0215119Y0045996D01*
X0215675Y0047338D01*
X0215675Y0048790D01*
X0215119Y0050132D01*
X0214092Y0051160D01*
X0212750Y0051715D01*
X0211297Y0051715D01*
X0209955Y0051160D01*
X0208928Y0050132D01*
X0208372Y0048790D01*
X0208372Y0047338D01*
X0208928Y0045996D01*
X0209955Y0044969D01*
X0211297Y0044413D01*
X0212750Y0044413D01*
X0211213Y0044448D02*
X0161653Y0044448D01*
X0161569Y0044413D02*
X0162911Y0044969D01*
X0163938Y0045996D01*
X0164494Y0047338D01*
X0164494Y0048790D01*
X0163938Y0050132D01*
X0162911Y0051160D01*
X0161569Y0051715D01*
X0160116Y0051715D01*
X0158774Y0051160D01*
X0157747Y0050132D01*
X0157191Y0048790D01*
X0157191Y0047338D01*
X0157747Y0045996D01*
X0158774Y0044969D01*
X0160116Y0044413D01*
X0161569Y0044413D01*
X0160032Y0044448D02*
X0152387Y0044448D01*
X0153333Y0045234D02*
X0158509Y0045234D01*
X0157737Y0046020D02*
X0154105Y0046020D01*
X0154431Y0046806D02*
X0157412Y0046806D01*
X0157191Y0047592D02*
X0154651Y0047592D01*
X0154651Y0048378D02*
X0157191Y0048378D01*
X0157346Y0049163D02*
X0154497Y0049163D01*
X0154171Y0049949D02*
X0157671Y0049949D01*
X0158350Y0050735D02*
X0153492Y0050735D01*
X0152195Y0051521D02*
X0159647Y0051521D01*
X0162038Y0051521D02*
X0174051Y0051521D01*
X0174377Y0050735D02*
X0163335Y0050735D01*
X0164014Y0049949D02*
X0174702Y0049949D01*
X0175124Y0049163D02*
X0164339Y0049163D01*
X0164494Y0048378D02*
X0175910Y0048378D01*
X0176696Y0047592D02*
X0164494Y0047592D01*
X0164273Y0046806D02*
X0177512Y0046806D01*
X0179409Y0046020D02*
X0163948Y0046020D01*
X0163176Y0045234D02*
X0209690Y0045234D01*
X0208918Y0046020D02*
X0185583Y0046020D01*
X0187480Y0046806D02*
X0208593Y0046806D01*
X0208372Y0047592D02*
X0188296Y0047592D01*
X0189082Y0048378D02*
X0208372Y0048378D01*
X0208527Y0049163D02*
X0189868Y0049163D01*
X0190290Y0049949D02*
X0208852Y0049949D01*
X0209531Y0050735D02*
X0190615Y0050735D01*
X0190941Y0051521D02*
X0210828Y0051521D01*
X0213219Y0051521D02*
X0220671Y0051521D01*
X0219374Y0050735D02*
X0214516Y0050735D01*
X0215195Y0049949D02*
X0218695Y0049949D01*
X0218369Y0049163D02*
X0215520Y0049163D01*
X0215675Y0048378D02*
X0218215Y0048378D01*
X0218215Y0047592D02*
X0215675Y0047592D01*
X0215454Y0046806D02*
X0218435Y0046806D01*
X0218761Y0046020D02*
X0215129Y0046020D01*
X0214357Y0045234D02*
X0219533Y0045234D01*
X0234042Y0045234D02*
X0280557Y0045234D01*
X0292732Y0039993D02*
X0261236Y0039993D01*
X0257290Y0038161D02*
X0194317Y0038161D01*
X0194317Y0037375D02*
X0196531Y0037375D01*
X0195961Y0036589D02*
X0193883Y0036589D01*
X0193997Y0035803D02*
X0195961Y0035803D01*
X0195961Y0035017D02*
X0194317Y0035017D01*
X0194317Y0034231D02*
X0196622Y0034231D01*
X0198244Y0033891D02*
X0196866Y0032513D01*
X0190370Y0032513D01*
X0190370Y0020111D01*
X0193037Y0017445D01*
X0345971Y0017445D01*
X0349031Y0020505D01*
X0349031Y0024934D01*
X0346472Y0024934D02*
X0346472Y0032907D01*
X0347850Y0034285D01*
X0345568Y0034231D02*
X0342259Y0034231D01*
X0342259Y0035017D02*
X0345568Y0035017D01*
X0346140Y0035803D02*
X0341686Y0035803D01*
X0338266Y0035803D02*
X0271393Y0035803D01*
X0271393Y0036589D02*
X0350277Y0036589D01*
X0349560Y0035803D02*
X0351063Y0035803D01*
X0351849Y0035017D02*
X0350133Y0035017D01*
X0350133Y0034231D02*
X0351975Y0034231D01*
X0351975Y0033445D02*
X0350133Y0033445D01*
X0349453Y0032659D02*
X0351975Y0032659D01*
X0351975Y0031873D02*
X0347860Y0031873D01*
X0347860Y0031087D02*
X0351975Y0031087D01*
X0351975Y0030302D02*
X0347860Y0030302D01*
X0347860Y0029516D02*
X0351975Y0029516D01*
X0351591Y0028730D02*
X0351590Y0028730D01*
X0351590Y0027944D02*
X0351591Y0027944D01*
X0351590Y0027158D02*
X0351591Y0027158D01*
X0351590Y0026372D02*
X0351591Y0026372D01*
X0351590Y0025586D02*
X0351591Y0025586D01*
X0343913Y0024934D02*
X0343913Y0020899D01*
X0341846Y0018832D01*
X0263697Y0018832D01*
X0261236Y0021293D01*
X0261236Y0032513D01*
X0267732Y0032513D01*
X0269110Y0033891D01*
X0269110Y0035859D01*
X0266828Y0035803D02*
X0264863Y0035803D01*
X0264749Y0036589D02*
X0266828Y0036589D01*
X0267397Y0037375D02*
X0265183Y0037375D01*
X0265183Y0038161D02*
X0347524Y0038161D01*
X0346738Y0038947D02*
X0335183Y0038947D01*
X0335969Y0039732D02*
X0345952Y0039732D01*
X0345166Y0040518D02*
X0336755Y0040518D01*
X0337541Y0041304D02*
X0345085Y0041304D01*
X0345085Y0042090D02*
X0337624Y0042090D01*
X0337624Y0042876D02*
X0345085Y0042876D01*
X0349031Y0042552D02*
X0349031Y0047572D01*
X0351591Y0047572D02*
X0351591Y0039206D01*
X0351587Y0039203D01*
X0354750Y0036041D01*
X0354750Y0016210D01*
X0351831Y0013292D01*
X0348791Y0013292D01*
X0347483Y0014600D01*
X0051787Y0014600D01*
X0048638Y0017749D01*
X0048638Y0032513D01*
X0055134Y0032513D01*
X0056512Y0033891D01*
X0056512Y0035859D01*
X0058794Y0035803D02*
X0115877Y0035803D01*
X0115991Y0036589D02*
X0058794Y0036589D01*
X0058225Y0037375D02*
X0115557Y0037375D01*
X0115557Y0038161D02*
X0052584Y0038161D01*
X0052584Y0037375D02*
X0054799Y0037375D01*
X0054229Y0036589D02*
X0052150Y0036589D01*
X0052265Y0035803D02*
X0054229Y0035803D01*
X0054229Y0035017D02*
X0052584Y0035017D01*
X0052584Y0034231D02*
X0054890Y0034231D01*
X0057899Y0033445D02*
X0115557Y0033445D01*
X0115557Y0032659D02*
X0057242Y0032659D01*
X0056456Y0031873D02*
X0115557Y0031873D01*
X0115557Y0031087D02*
X0052584Y0031087D01*
X0052584Y0030302D02*
X0115557Y0030302D01*
X0115584Y0029516D02*
X0052557Y0029516D01*
X0050025Y0028730D02*
X0118117Y0028730D01*
X0118117Y0027944D02*
X0091064Y0027944D01*
X0090703Y0028093D02*
X0089250Y0028093D01*
X0087908Y0027537D01*
X0086881Y0026510D01*
X0086325Y0025168D01*
X0086325Y0023716D01*
X0086881Y0022374D01*
X0087908Y0021347D01*
X0089250Y0020791D01*
X0090703Y0020791D01*
X0092045Y0021347D01*
X0093072Y0022374D01*
X0093628Y0023716D01*
X0093628Y0025168D01*
X0093072Y0026510D01*
X0092045Y0027537D01*
X0090703Y0028093D01*
X0088889Y0027944D02*
X0081221Y0027944D01*
X0080860Y0028093D02*
X0079408Y0028093D01*
X0078066Y0027537D01*
X0077039Y0026510D01*
X0076483Y0025168D01*
X0076483Y0023716D01*
X0077039Y0022374D01*
X0078066Y0021347D01*
X0079408Y0020791D01*
X0080860Y0020791D01*
X0082202Y0021347D01*
X0083229Y0022374D01*
X0083785Y0023716D01*
X0083785Y0025168D01*
X0083229Y0026510D01*
X0082202Y0027537D01*
X0080860Y0028093D01*
X0079047Y0027944D02*
X0071379Y0027944D01*
X0071018Y0028093D02*
X0069565Y0028093D01*
X0068223Y0027537D01*
X0067196Y0026510D01*
X0066640Y0025168D01*
X0066640Y0023716D01*
X0067196Y0022374D01*
X0068223Y0021347D01*
X0069565Y0020791D01*
X0071018Y0020791D01*
X0072360Y0021347D01*
X0073387Y0022374D01*
X0073943Y0023716D01*
X0073943Y0025168D01*
X0073387Y0026510D01*
X0072360Y0027537D01*
X0071018Y0028093D01*
X0069204Y0027944D02*
X0050025Y0027944D01*
X0050025Y0027158D02*
X0067844Y0027158D01*
X0067139Y0026372D02*
X0050025Y0026372D01*
X0050025Y0025586D02*
X0066813Y0025586D01*
X0066640Y0024800D02*
X0050025Y0024800D01*
X0050025Y0024014D02*
X0066640Y0024014D01*
X0066842Y0023228D02*
X0050025Y0023228D01*
X0050025Y0022442D02*
X0067168Y0022442D01*
X0067913Y0021656D02*
X0050025Y0021656D01*
X0050025Y0020871D02*
X0069373Y0020871D01*
X0071210Y0020871D02*
X0079215Y0020871D01*
X0077756Y0021656D02*
X0072669Y0021656D01*
X0073415Y0022442D02*
X0077010Y0022442D01*
X0076685Y0023228D02*
X0073741Y0023228D01*
X0073943Y0024014D02*
X0076483Y0024014D01*
X0076483Y0024800D02*
X0073943Y0024800D01*
X0073770Y0025586D02*
X0076656Y0025586D01*
X0076981Y0026372D02*
X0073444Y0026372D01*
X0072739Y0027158D02*
X0077686Y0027158D01*
X0082582Y0027158D02*
X0087529Y0027158D01*
X0086824Y0026372D02*
X0083287Y0026372D01*
X0083612Y0025586D02*
X0086498Y0025586D01*
X0086325Y0024800D02*
X0083785Y0024800D01*
X0083785Y0024014D02*
X0086325Y0024014D01*
X0086527Y0023228D02*
X0083583Y0023228D01*
X0083258Y0022442D02*
X0086853Y0022442D01*
X0087598Y0021656D02*
X0082512Y0021656D01*
X0081052Y0020871D02*
X0089058Y0020871D01*
X0090895Y0020871D02*
X0118117Y0020871D01*
X0118117Y0021656D02*
X0092354Y0021656D01*
X0093100Y0022442D02*
X0118117Y0022442D01*
X0118117Y0023228D02*
X0093426Y0023228D01*
X0093628Y0024014D02*
X0118117Y0024014D01*
X0118117Y0024800D02*
X0093628Y0024800D01*
X0093455Y0025586D02*
X0118117Y0025586D01*
X0118117Y0026372D02*
X0093129Y0026372D01*
X0092424Y0027158D02*
X0118117Y0027158D01*
X0120891Y0027158D02*
X0138710Y0027158D01*
X0139089Y0027537D02*
X0138062Y0026510D01*
X0137506Y0025168D01*
X0137506Y0023716D01*
X0138062Y0022374D01*
X0139089Y0021347D01*
X0140431Y0020791D01*
X0141884Y0020791D01*
X0143226Y0021347D01*
X0144253Y0022374D01*
X0144809Y0023716D01*
X0144809Y0025168D01*
X0144253Y0026510D01*
X0143226Y0027537D01*
X0141884Y0028093D01*
X0140431Y0028093D01*
X0139089Y0027537D01*
X0140070Y0027944D02*
X0120891Y0027944D01*
X0120891Y0028730D02*
X0188983Y0028730D01*
X0188983Y0027944D02*
X0161930Y0027944D01*
X0161569Y0028093D02*
X0160116Y0028093D01*
X0158774Y0027537D01*
X0157747Y0026510D01*
X0157191Y0025168D01*
X0157191Y0023716D01*
X0157747Y0022374D01*
X0158774Y0021347D01*
X0160116Y0020791D01*
X0161569Y0020791D01*
X0162911Y0021347D01*
X0163938Y0022374D01*
X0164494Y0023716D01*
X0164494Y0025168D01*
X0163938Y0026510D01*
X0162911Y0027537D01*
X0161569Y0028093D01*
X0159755Y0027944D02*
X0152087Y0027944D01*
X0151726Y0028093D02*
X0150274Y0028093D01*
X0148932Y0027537D01*
X0147905Y0026510D01*
X0147349Y0025168D01*
X0147349Y0023716D01*
X0147905Y0022374D01*
X0148932Y0021347D01*
X0150274Y0020791D01*
X0151726Y0020791D01*
X0153068Y0021347D01*
X0154095Y0022374D01*
X0154651Y0023716D01*
X0154651Y0025168D01*
X0154095Y0026510D01*
X0153068Y0027537D01*
X0151726Y0028093D01*
X0149913Y0027944D02*
X0142245Y0027944D01*
X0143605Y0027158D02*
X0148552Y0027158D01*
X0147847Y0026372D02*
X0144310Y0026372D01*
X0144636Y0025586D02*
X0147522Y0025586D01*
X0147349Y0024800D02*
X0144809Y0024800D01*
X0144809Y0024014D02*
X0147349Y0024014D01*
X0147551Y0023228D02*
X0144607Y0023228D01*
X0144281Y0022442D02*
X0147876Y0022442D01*
X0148622Y0021656D02*
X0143535Y0021656D01*
X0142076Y0020871D02*
X0150082Y0020871D01*
X0151918Y0020871D02*
X0159924Y0020871D01*
X0158465Y0021656D02*
X0153378Y0021656D01*
X0154124Y0022442D02*
X0157719Y0022442D01*
X0157393Y0023228D02*
X0154449Y0023228D01*
X0154651Y0024014D02*
X0157191Y0024014D01*
X0157191Y0024800D02*
X0154651Y0024800D01*
X0154478Y0025586D02*
X0157364Y0025586D01*
X0157690Y0026372D02*
X0154153Y0026372D01*
X0153448Y0027158D02*
X0158395Y0027158D01*
X0163290Y0027158D02*
X0188983Y0027158D01*
X0188983Y0026372D02*
X0163995Y0026372D01*
X0164321Y0025586D02*
X0188983Y0025586D01*
X0188983Y0024800D02*
X0164494Y0024800D01*
X0164494Y0024014D02*
X0188983Y0024014D01*
X0188983Y0023228D02*
X0164292Y0023228D01*
X0163966Y0022442D02*
X0188983Y0022442D01*
X0188983Y0021656D02*
X0163220Y0021656D01*
X0161761Y0020871D02*
X0188983Y0020871D01*
X0188983Y0020085D02*
X0120891Y0020085D01*
X0120891Y0020871D02*
X0140239Y0020871D01*
X0138780Y0021656D02*
X0120891Y0021656D01*
X0120891Y0022442D02*
X0138034Y0022442D01*
X0137708Y0023228D02*
X0120891Y0023228D01*
X0120891Y0024014D02*
X0137506Y0024014D01*
X0137506Y0024800D02*
X0120891Y0024800D01*
X0120891Y0025586D02*
X0137679Y0025586D01*
X0138005Y0026372D02*
X0120891Y0026372D01*
X0123424Y0029516D02*
X0186450Y0029516D01*
X0186424Y0030302D02*
X0123450Y0030302D01*
X0123450Y0031087D02*
X0186424Y0031087D01*
X0186424Y0031873D02*
X0127322Y0031873D01*
X0128108Y0032659D02*
X0186424Y0032659D01*
X0186424Y0033445D02*
X0128765Y0033445D01*
X0128978Y0034231D02*
X0186424Y0034231D01*
X0186424Y0035017D02*
X0129661Y0035017D01*
X0129661Y0035803D02*
X0186743Y0035803D01*
X0186857Y0036589D02*
X0129661Y0036589D01*
X0129091Y0037375D02*
X0186424Y0037375D01*
X0186424Y0038161D02*
X0123450Y0038161D01*
X0123450Y0037375D02*
X0125665Y0037375D01*
X0125095Y0036589D02*
X0123017Y0036589D01*
X0123131Y0035803D02*
X0125095Y0035803D01*
X0125095Y0035017D02*
X0123450Y0035017D01*
X0123450Y0034231D02*
X0125756Y0034231D01*
X0127378Y0033891D02*
X0126000Y0032513D01*
X0119504Y0032513D01*
X0119504Y0019324D01*
X0122771Y0016057D01*
X0347988Y0016057D01*
X0349366Y0014679D01*
X0351257Y0014679D01*
X0357846Y0010654D02*
X0015020Y0010654D01*
X0016102Y0009868D02*
X0356764Y0009868D01*
X0355212Y0009082D02*
X0017654Y0009082D01*
X0052194Y0016155D02*
X0120711Y0016155D01*
X0119925Y0016941D02*
X0051408Y0016941D01*
X0050622Y0017727D02*
X0119139Y0017727D01*
X0118353Y0018513D02*
X0050025Y0018513D01*
X0050025Y0019299D02*
X0118117Y0019299D01*
X0118117Y0020085D02*
X0050025Y0020085D01*
X0058112Y0034231D02*
X0115557Y0034231D01*
X0115557Y0035017D02*
X0058794Y0035017D01*
X0080134Y0039993D02*
X0080134Y0048064D01*
X0083785Y0048378D02*
X0086325Y0048378D01*
X0086325Y0048790D02*
X0086325Y0047338D01*
X0086881Y0045996D01*
X0087908Y0044969D01*
X0089250Y0044413D01*
X0090703Y0044413D01*
X0092045Y0044969D01*
X0093072Y0045996D01*
X0093628Y0047338D01*
X0093628Y0048790D01*
X0093072Y0050132D01*
X0092045Y0051160D01*
X0090703Y0051715D01*
X0089250Y0051715D01*
X0087908Y0051160D01*
X0086881Y0050132D01*
X0086325Y0048790D01*
X0086480Y0049163D02*
X0083631Y0049163D01*
X0083305Y0049949D02*
X0086805Y0049949D01*
X0087484Y0050735D02*
X0082626Y0050735D01*
X0081329Y0051521D02*
X0088781Y0051521D01*
X0091172Y0051521D02*
X0139962Y0051521D01*
X0140431Y0051715D02*
X0139089Y0051160D01*
X0138062Y0050132D01*
X0137506Y0048790D01*
X0137506Y0047338D01*
X0138062Y0045996D01*
X0139089Y0044969D01*
X0140431Y0044413D01*
X0141884Y0044413D01*
X0143226Y0044969D01*
X0144253Y0045996D01*
X0144809Y0047338D01*
X0144809Y0048790D01*
X0144253Y0050132D01*
X0143226Y0051160D01*
X0141884Y0051715D01*
X0140431Y0051715D01*
X0142353Y0051521D02*
X0149805Y0051521D01*
X0148508Y0050735D02*
X0143650Y0050735D01*
X0144329Y0049949D02*
X0147829Y0049949D01*
X0147503Y0049163D02*
X0144654Y0049163D01*
X0144809Y0048378D02*
X0147349Y0048378D01*
X0147349Y0047592D02*
X0144809Y0047592D01*
X0144588Y0046806D02*
X0147569Y0046806D01*
X0147895Y0046020D02*
X0144263Y0046020D01*
X0143491Y0045234D02*
X0148667Y0045234D01*
X0149613Y0044448D02*
X0141968Y0044448D01*
X0140347Y0044448D02*
X0090787Y0044448D01*
X0089166Y0044448D02*
X0081521Y0044448D01*
X0082467Y0045234D02*
X0087643Y0045234D01*
X0086871Y0046020D02*
X0083239Y0046020D01*
X0083565Y0046806D02*
X0086546Y0046806D01*
X0086325Y0047592D02*
X0083785Y0047592D01*
X0077029Y0046020D02*
X0073397Y0046020D01*
X0073387Y0045996D02*
X0073943Y0047338D01*
X0073943Y0048790D01*
X0073387Y0050132D01*
X0072360Y0051160D01*
X0071018Y0051715D01*
X0069565Y0051715D01*
X0068223Y0051160D01*
X0067196Y0050132D01*
X0066640Y0048790D01*
X0066640Y0047338D01*
X0067196Y0045996D01*
X0068223Y0044969D01*
X0069565Y0044413D01*
X0071018Y0044413D01*
X0072360Y0044969D01*
X0073387Y0045996D01*
X0073722Y0046806D02*
X0076703Y0046806D01*
X0076483Y0047592D02*
X0073943Y0047592D01*
X0073943Y0048378D02*
X0076483Y0048378D01*
X0076637Y0049163D02*
X0073788Y0049163D01*
X0073462Y0049949D02*
X0076963Y0049949D01*
X0077641Y0050735D02*
X0072784Y0050735D01*
X0071486Y0051521D02*
X0078939Y0051521D01*
X0069096Y0051521D02*
X0056230Y0051521D01*
X0055905Y0050735D02*
X0067799Y0050735D01*
X0067120Y0049949D02*
X0055579Y0049949D01*
X0055507Y0049774D02*
X0056740Y0052752D01*
X0056740Y0055975D01*
X0055507Y0058953D01*
X0053227Y0061232D01*
X0050249Y0062466D01*
X0047026Y0062466D01*
X0044048Y0061232D01*
X0041769Y0058953D01*
X0040535Y0055975D01*
X0040535Y0052752D01*
X0041769Y0049774D01*
X0044048Y0047495D01*
X0047026Y0046261D01*
X0050249Y0046261D01*
X0053227Y0047495D01*
X0055507Y0049774D01*
X0054896Y0049163D02*
X0066795Y0049163D01*
X0066640Y0048378D02*
X0054110Y0048378D01*
X0053324Y0047592D02*
X0066640Y0047592D01*
X0066861Y0046806D02*
X0051564Y0046806D01*
X0045711Y0046806D02*
X0011661Y0046806D01*
X0011661Y0047592D02*
X0043951Y0047592D01*
X0043165Y0048378D02*
X0011661Y0048378D01*
X0011661Y0049163D02*
X0042379Y0049163D01*
X0041696Y0049949D02*
X0011661Y0049949D01*
X0011661Y0050735D02*
X0041371Y0050735D01*
X0041045Y0051521D02*
X0011661Y0051521D01*
X0011661Y0052307D02*
X0040720Y0052307D01*
X0040535Y0053093D02*
X0011698Y0053093D01*
X0011610Y0053879D02*
X0040535Y0053879D01*
X0040535Y0054665D02*
X0011550Y0054665D01*
X0011574Y0055451D02*
X0040535Y0055451D01*
X0040644Y0056237D02*
X0011668Y0056237D01*
X0011763Y0057023D02*
X0040969Y0057023D01*
X0041295Y0057808D02*
X0011858Y0057808D01*
X0012116Y0058594D02*
X0041620Y0058594D01*
X0042196Y0059380D02*
X0012432Y0059380D01*
X0012747Y0060166D02*
X0042982Y0060166D01*
X0043768Y0060952D02*
X0013114Y0060952D01*
X0013704Y0061738D02*
X0045269Y0061738D01*
X0052006Y0061738D02*
X0177299Y0061738D01*
X0176513Y0060952D02*
X0053508Y0060952D01*
X0054293Y0060166D02*
X0175727Y0060166D01*
X0174952Y0059380D02*
X0055079Y0059380D01*
X0055655Y0058594D02*
X0174626Y0058594D01*
X0174301Y0057808D02*
X0055981Y0057808D01*
X0056306Y0057023D02*
X0173975Y0057023D01*
X0173650Y0056237D02*
X0056632Y0056237D01*
X0056740Y0055451D02*
X0173606Y0055451D01*
X0173606Y0054665D02*
X0056740Y0054665D01*
X0056740Y0053879D02*
X0173606Y0053879D01*
X0173606Y0053093D02*
X0056740Y0053093D01*
X0056556Y0052307D02*
X0173726Y0052307D01*
X0151000Y0048064D02*
X0151000Y0039993D01*
X0138824Y0045234D02*
X0092310Y0045234D01*
X0093082Y0046020D02*
X0138052Y0046020D01*
X0137727Y0046806D02*
X0093407Y0046806D01*
X0093628Y0047592D02*
X0137506Y0047592D01*
X0137506Y0048378D02*
X0093628Y0048378D01*
X0093473Y0049163D02*
X0137661Y0049163D01*
X0137986Y0049949D02*
X0093148Y0049949D01*
X0092469Y0050735D02*
X0138665Y0050735D01*
X0178967Y0062524D02*
X0014293Y0062524D01*
X0014935Y0063310D02*
X0357931Y0063310D01*
X0356930Y0064096D02*
X0015936Y0064096D01*
X0016937Y0064882D02*
X0355929Y0064882D01*
X0354288Y0065668D02*
X0018578Y0065668D01*
X0020908Y0066454D02*
X0351958Y0066454D01*
X0354626Y0053093D02*
X0361168Y0053093D01*
X0361205Y0052307D02*
X0355143Y0052307D01*
X0355143Y0051521D02*
X0361205Y0051521D01*
X0361205Y0050735D02*
X0355143Y0050735D01*
X0355143Y0049949D02*
X0361205Y0049949D01*
X0361205Y0049163D02*
X0355143Y0049163D01*
X0355143Y0048378D02*
X0361205Y0048378D01*
X0361205Y0047592D02*
X0355143Y0047592D01*
X0355143Y0046806D02*
X0361205Y0046806D01*
X0361205Y0046020D02*
X0355143Y0046020D01*
X0355143Y0045234D02*
X0361205Y0045234D01*
X0361205Y0044448D02*
X0355143Y0044448D01*
X0355143Y0043662D02*
X0361205Y0043662D01*
X0361205Y0042876D02*
X0355143Y0042876D01*
X0357053Y0042090D02*
X0361205Y0042090D01*
X0361205Y0041304D02*
X0357838Y0041304D01*
X0349491Y0037375D02*
X0270823Y0037375D01*
X0271393Y0035017D02*
X0337694Y0035017D01*
X0337694Y0034231D02*
X0270710Y0034231D01*
X0270498Y0033445D02*
X0337694Y0033445D01*
X0338374Y0032659D02*
X0269841Y0032659D01*
X0269055Y0031873D02*
X0339967Y0031873D01*
X0339967Y0031087D02*
X0265183Y0031087D01*
X0265183Y0030302D02*
X0339967Y0030302D01*
X0339967Y0029516D02*
X0265156Y0029516D01*
X0262624Y0028730D02*
X0334788Y0028730D01*
X0334554Y0027944D02*
X0303662Y0027944D01*
X0303301Y0028093D02*
X0301849Y0028093D01*
X0300507Y0027537D01*
X0299479Y0026510D01*
X0298924Y0025168D01*
X0298924Y0023716D01*
X0299479Y0022374D01*
X0300507Y0021347D01*
X0301849Y0020791D01*
X0303301Y0020791D01*
X0304643Y0021347D01*
X0305670Y0022374D01*
X0306226Y0023716D01*
X0306226Y0025168D01*
X0305670Y0026510D01*
X0304643Y0027537D01*
X0303301Y0028093D01*
X0301488Y0027944D02*
X0293820Y0027944D01*
X0293459Y0028093D02*
X0292006Y0028093D01*
X0290664Y0027537D01*
X0289637Y0026510D01*
X0289081Y0025168D01*
X0289081Y0023716D01*
X0289637Y0022374D01*
X0290664Y0021347D01*
X0292006Y0020791D01*
X0293459Y0020791D01*
X0294801Y0021347D01*
X0295828Y0022374D01*
X0296383Y0023716D01*
X0296383Y0025168D01*
X0295828Y0026510D01*
X0294801Y0027537D01*
X0293459Y0028093D01*
X0291645Y0027944D02*
X0283977Y0027944D01*
X0283616Y0028093D02*
X0282163Y0028093D01*
X0280822Y0027537D01*
X0279794Y0026510D01*
X0279239Y0025168D01*
X0279239Y0023716D01*
X0279794Y0022374D01*
X0280822Y0021347D01*
X0282163Y0020791D01*
X0283616Y0020791D01*
X0284958Y0021347D01*
X0285985Y0022374D01*
X0286541Y0023716D01*
X0286541Y0025168D01*
X0285985Y0026510D01*
X0284958Y0027537D01*
X0283616Y0028093D01*
X0281802Y0027944D02*
X0262624Y0027944D01*
X0262624Y0027158D02*
X0280442Y0027158D01*
X0279737Y0026372D02*
X0262624Y0026372D01*
X0262624Y0025586D02*
X0279412Y0025586D01*
X0279239Y0024800D02*
X0262624Y0024800D01*
X0262624Y0024014D02*
X0279239Y0024014D01*
X0279441Y0023228D02*
X0262624Y0023228D01*
X0262624Y0022442D02*
X0279766Y0022442D01*
X0280512Y0021656D02*
X0262834Y0021656D01*
X0263620Y0020871D02*
X0281971Y0020871D01*
X0283808Y0020871D02*
X0291814Y0020871D01*
X0290354Y0021656D02*
X0285268Y0021656D01*
X0286013Y0022442D02*
X0289609Y0022442D01*
X0289283Y0023228D02*
X0286339Y0023228D01*
X0286541Y0024014D02*
X0289081Y0024014D01*
X0289081Y0024800D02*
X0286541Y0024800D01*
X0286368Y0025586D02*
X0289254Y0025586D01*
X0289580Y0026372D02*
X0286042Y0026372D01*
X0285338Y0027158D02*
X0290284Y0027158D01*
X0295180Y0027158D02*
X0300127Y0027158D01*
X0299422Y0026372D02*
X0295885Y0026372D01*
X0296210Y0025586D02*
X0299097Y0025586D01*
X0298924Y0024800D02*
X0296383Y0024800D01*
X0296383Y0024014D02*
X0298924Y0024014D01*
X0299126Y0023228D02*
X0296181Y0023228D01*
X0295856Y0022442D02*
X0299451Y0022442D01*
X0300197Y0021656D02*
X0295110Y0021656D01*
X0293651Y0020871D02*
X0301656Y0020871D01*
X0303493Y0020871D02*
X0335056Y0020871D01*
X0334554Y0021656D02*
X0304953Y0021656D01*
X0305698Y0022442D02*
X0334554Y0022442D01*
X0334554Y0023228D02*
X0306024Y0023228D01*
X0306226Y0024014D02*
X0334554Y0024014D01*
X0334554Y0024800D02*
X0306226Y0024800D01*
X0306053Y0025586D02*
X0334554Y0025586D01*
X0334554Y0026372D02*
X0305727Y0026372D01*
X0305023Y0027158D02*
X0334554Y0027158D01*
X0341354Y0024934D02*
X0341354Y0032907D01*
X0339976Y0034285D01*
X0342742Y0033445D02*
X0345085Y0033445D01*
X0345085Y0032659D02*
X0342742Y0032659D01*
X0342742Y0031873D02*
X0345085Y0031873D01*
X0345085Y0031087D02*
X0342742Y0031087D01*
X0342742Y0030302D02*
X0345085Y0030302D01*
X0345085Y0029516D02*
X0342742Y0029516D01*
X0340174Y0020871D02*
X0339975Y0020871D01*
X0337615Y0020871D02*
X0337416Y0020871D01*
X0267488Y0034231D02*
X0265183Y0034231D01*
X0265183Y0035017D02*
X0266828Y0035017D01*
X0257724Y0036589D02*
X0200527Y0036589D01*
X0200527Y0035803D02*
X0257609Y0035803D01*
X0257290Y0035017D02*
X0200527Y0035017D01*
X0199844Y0034231D02*
X0257290Y0034231D01*
X0257290Y0033445D02*
X0199631Y0033445D01*
X0198974Y0032659D02*
X0257290Y0032659D01*
X0257290Y0031873D02*
X0198189Y0031873D01*
X0194317Y0031087D02*
X0257290Y0031087D01*
X0257290Y0030302D02*
X0194317Y0030302D01*
X0194290Y0029516D02*
X0257317Y0029516D01*
X0259849Y0028730D02*
X0191757Y0028730D01*
X0191757Y0027944D02*
X0210936Y0027944D01*
X0211297Y0028093D02*
X0209955Y0027537D01*
X0208928Y0026510D01*
X0208372Y0025168D01*
X0208372Y0023716D01*
X0208928Y0022374D01*
X0209955Y0021347D01*
X0211297Y0020791D01*
X0212750Y0020791D01*
X0214092Y0021347D01*
X0215119Y0022374D01*
X0215675Y0023716D01*
X0215675Y0025168D01*
X0215119Y0026510D01*
X0214092Y0027537D01*
X0212750Y0028093D01*
X0211297Y0028093D01*
X0213111Y0027944D02*
X0220779Y0027944D01*
X0221140Y0028093D02*
X0219798Y0027537D01*
X0218771Y0026510D01*
X0218215Y0025168D01*
X0218215Y0023716D01*
X0218771Y0022374D01*
X0219798Y0021347D01*
X0221140Y0020791D01*
X0222592Y0020791D01*
X0223934Y0021347D01*
X0224961Y0022374D01*
X0225517Y0023716D01*
X0225517Y0025168D01*
X0224961Y0026510D01*
X0223934Y0027537D01*
X0222592Y0028093D01*
X0221140Y0028093D01*
X0222953Y0027944D02*
X0230621Y0027944D01*
X0230982Y0028093D02*
X0229640Y0027537D01*
X0228613Y0026510D01*
X0228057Y0025168D01*
X0228057Y0023716D01*
X0228613Y0022374D01*
X0229640Y0021347D01*
X0230982Y0020791D01*
X0232435Y0020791D01*
X0233777Y0021347D01*
X0234804Y0022374D01*
X0235360Y0023716D01*
X0235360Y0025168D01*
X0234804Y0026510D01*
X0233777Y0027537D01*
X0232435Y0028093D01*
X0230982Y0028093D01*
X0232796Y0027944D02*
X0259849Y0027944D01*
X0259849Y0027158D02*
X0234156Y0027158D01*
X0234861Y0026372D02*
X0259849Y0026372D01*
X0259849Y0025586D02*
X0235187Y0025586D01*
X0235360Y0024800D02*
X0259849Y0024800D01*
X0259849Y0024014D02*
X0235360Y0024014D01*
X0235158Y0023228D02*
X0259849Y0023228D01*
X0259849Y0022442D02*
X0234832Y0022442D01*
X0234087Y0021656D02*
X0259849Y0021656D01*
X0259849Y0020871D02*
X0232627Y0020871D01*
X0230790Y0020871D02*
X0222785Y0020871D01*
X0224244Y0021656D02*
X0229331Y0021656D01*
X0228585Y0022442D02*
X0224990Y0022442D01*
X0225315Y0023228D02*
X0228259Y0023228D01*
X0228057Y0024014D02*
X0225517Y0024014D01*
X0225517Y0024800D02*
X0228057Y0024800D01*
X0228230Y0025586D02*
X0225344Y0025586D01*
X0225019Y0026372D02*
X0228556Y0026372D01*
X0229261Y0027158D02*
X0224314Y0027158D01*
X0219418Y0027158D02*
X0214471Y0027158D01*
X0215176Y0026372D02*
X0218713Y0026372D01*
X0218388Y0025586D02*
X0215502Y0025586D01*
X0215675Y0024800D02*
X0218215Y0024800D01*
X0218215Y0024014D02*
X0215675Y0024014D01*
X0215473Y0023228D02*
X0218417Y0023228D01*
X0218742Y0022442D02*
X0215147Y0022442D01*
X0214401Y0021656D02*
X0219488Y0021656D01*
X0220948Y0020871D02*
X0212942Y0020871D01*
X0211105Y0020871D02*
X0191757Y0020871D01*
X0191757Y0021656D02*
X0209646Y0021656D01*
X0208900Y0022442D02*
X0191757Y0022442D01*
X0191757Y0023228D02*
X0208574Y0023228D01*
X0208372Y0024014D02*
X0191757Y0024014D01*
X0191757Y0024800D02*
X0208372Y0024800D01*
X0208545Y0025586D02*
X0191757Y0025586D01*
X0191757Y0026372D02*
X0208871Y0026372D01*
X0209576Y0027158D02*
X0191757Y0027158D01*
X0192359Y0020085D02*
X0260482Y0020085D01*
X0261268Y0019299D02*
X0193145Y0019299D01*
X0190007Y0018513D02*
X0122277Y0018513D01*
X0121491Y0019299D02*
X0189221Y0019299D01*
X0190793Y0017727D02*
X0123063Y0017727D01*
X0127378Y0033891D02*
X0127378Y0035859D01*
X0078746Y0044448D02*
X0071102Y0044448D01*
X0069481Y0044448D02*
X0011661Y0044448D01*
X0011661Y0045234D02*
X0067958Y0045234D01*
X0067186Y0046020D02*
X0011661Y0046020D01*
X0072625Y0045234D02*
X0077801Y0045234D01*
X0198244Y0035859D02*
X0198244Y0033891D01*
X0199957Y0037375D02*
X0257290Y0037375D01*
D16*
X0261236Y0039993D02*
X0221866Y0039993D01*
X0190370Y0039993D01*
X0151000Y0039993D01*
X0119504Y0039993D01*
X0080134Y0039993D01*
X0048638Y0039993D01*
M02*
