G75*
%MOIN*%
%OFA0B0*%
%FSLAX25Y25*%
%IPPOS*%
%LPD*%
%AMOC8*
5,1,8,0,0,1.08239X$1,22.5*
%
%ADD10C,0.00000*%
%ADD11C,0.00400*%
%ADD12C,0.00600*%
%ADD13C,0.00200*%
%ADD14C,0.00500*%
D10*
X0021079Y0005938D02*
X0351787Y0005938D01*
X0352072Y0005941D01*
X0352358Y0005952D01*
X0352643Y0005969D01*
X0352927Y0005993D01*
X0353211Y0006024D01*
X0353494Y0006062D01*
X0353775Y0006107D01*
X0354056Y0006158D01*
X0354336Y0006216D01*
X0354614Y0006281D01*
X0354890Y0006353D01*
X0355164Y0006431D01*
X0355437Y0006516D01*
X0355707Y0006608D01*
X0355975Y0006706D01*
X0356241Y0006810D01*
X0356504Y0006921D01*
X0356764Y0007038D01*
X0357022Y0007161D01*
X0357276Y0007291D01*
X0357527Y0007427D01*
X0357775Y0007568D01*
X0358019Y0007716D01*
X0358260Y0007869D01*
X0358496Y0008029D01*
X0358729Y0008194D01*
X0358958Y0008364D01*
X0359183Y0008540D01*
X0359403Y0008722D01*
X0359619Y0008908D01*
X0359830Y0009100D01*
X0360037Y0009297D01*
X0360239Y0009499D01*
X0360436Y0009706D01*
X0360628Y0009917D01*
X0360814Y0010133D01*
X0360996Y0010353D01*
X0361172Y0010578D01*
X0361342Y0010807D01*
X0361507Y0011040D01*
X0361667Y0011276D01*
X0361820Y0011517D01*
X0361968Y0011761D01*
X0362109Y0012009D01*
X0362245Y0012260D01*
X0362375Y0012514D01*
X0362498Y0012772D01*
X0362615Y0013032D01*
X0362726Y0013295D01*
X0362830Y0013561D01*
X0362928Y0013829D01*
X0363020Y0014099D01*
X0363105Y0014372D01*
X0363183Y0014646D01*
X0363255Y0014922D01*
X0363320Y0015200D01*
X0363378Y0015480D01*
X0363429Y0015761D01*
X0363474Y0016042D01*
X0363512Y0016325D01*
X0363543Y0016609D01*
X0363567Y0016893D01*
X0363584Y0017178D01*
X0363595Y0017464D01*
X0363598Y0017749D01*
X0363598Y0053182D01*
X0363598Y0053183D02*
X0363642Y0053516D01*
X0363677Y0053851D01*
X0363704Y0054186D01*
X0363724Y0054522D01*
X0363735Y0054858D01*
X0363738Y0055194D01*
X0363733Y0055530D01*
X0363720Y0055867D01*
X0363698Y0056202D01*
X0363669Y0056537D01*
X0363631Y0056872D01*
X0363586Y0057205D01*
X0363532Y0057537D01*
X0363470Y0057868D01*
X0363401Y0058197D01*
X0363323Y0058524D01*
X0363238Y0058849D01*
X0363144Y0059172D01*
X0363043Y0059493D01*
X0362935Y0059811D01*
X0362818Y0060127D01*
X0362694Y0060440D01*
X0362563Y0060749D01*
X0362424Y0061056D01*
X0362277Y0061358D01*
X0362124Y0061658D01*
X0361963Y0061953D01*
X0361795Y0062245D01*
X0361620Y0062532D01*
X0361438Y0062815D01*
X0361250Y0063093D01*
X0361054Y0063367D01*
X0360852Y0063636D01*
X0360644Y0063900D01*
X0360430Y0064159D01*
X0360209Y0064413D01*
X0359982Y0064662D01*
X0359749Y0064904D01*
X0359511Y0065142D01*
X0359266Y0065373D01*
X0359017Y0065598D01*
X0358762Y0065817D01*
X0358501Y0066030D01*
X0358236Y0066237D01*
X0357965Y0066437D01*
X0357690Y0066631D01*
X0357411Y0066817D01*
X0357127Y0066997D01*
X0356838Y0067171D01*
X0356546Y0067337D01*
X0356249Y0067496D01*
X0355949Y0067647D01*
X0355645Y0067792D01*
X0355338Y0067929D01*
X0355028Y0068059D01*
X0354714Y0068181D01*
X0354398Y0068295D01*
X0354079Y0068402D01*
X0353758Y0068501D01*
X0353434Y0068592D01*
X0353108Y0068676D01*
X0352780Y0068751D01*
X0352451Y0068819D01*
X0352120Y0068879D01*
X0351787Y0068930D01*
X0021079Y0068930D01*
X0020746Y0068879D01*
X0020415Y0068819D01*
X0020086Y0068751D01*
X0019758Y0068676D01*
X0019432Y0068592D01*
X0019108Y0068501D01*
X0018787Y0068402D01*
X0018468Y0068295D01*
X0018152Y0068181D01*
X0017838Y0068059D01*
X0017528Y0067929D01*
X0017221Y0067792D01*
X0016917Y0067647D01*
X0016617Y0067496D01*
X0016320Y0067337D01*
X0016028Y0067171D01*
X0015739Y0066997D01*
X0015455Y0066817D01*
X0015176Y0066631D01*
X0014901Y0066437D01*
X0014630Y0066237D01*
X0014365Y0066030D01*
X0014104Y0065817D01*
X0013849Y0065598D01*
X0013600Y0065373D01*
X0013355Y0065142D01*
X0013117Y0064904D01*
X0012884Y0064662D01*
X0012657Y0064413D01*
X0012436Y0064159D01*
X0012222Y0063900D01*
X0012014Y0063636D01*
X0011812Y0063367D01*
X0011616Y0063093D01*
X0011428Y0062815D01*
X0011246Y0062532D01*
X0011071Y0062245D01*
X0010903Y0061953D01*
X0010742Y0061658D01*
X0010589Y0061358D01*
X0010442Y0061056D01*
X0010303Y0060749D01*
X0010172Y0060440D01*
X0010048Y0060127D01*
X0009931Y0059811D01*
X0009823Y0059493D01*
X0009722Y0059172D01*
X0009628Y0058849D01*
X0009543Y0058524D01*
X0009465Y0058197D01*
X0009396Y0057868D01*
X0009334Y0057537D01*
X0009280Y0057205D01*
X0009235Y0056872D01*
X0009197Y0056537D01*
X0009168Y0056202D01*
X0009146Y0055867D01*
X0009133Y0055530D01*
X0009128Y0055194D01*
X0009131Y0054858D01*
X0009142Y0054522D01*
X0009162Y0054186D01*
X0009189Y0053851D01*
X0009224Y0053516D01*
X0009268Y0053183D01*
X0009268Y0053182D02*
X0009268Y0017749D01*
X0009271Y0017464D01*
X0009282Y0017178D01*
X0009299Y0016893D01*
X0009323Y0016609D01*
X0009354Y0016325D01*
X0009392Y0016042D01*
X0009437Y0015761D01*
X0009488Y0015480D01*
X0009546Y0015200D01*
X0009611Y0014922D01*
X0009683Y0014646D01*
X0009761Y0014372D01*
X0009846Y0014099D01*
X0009938Y0013829D01*
X0010036Y0013561D01*
X0010140Y0013295D01*
X0010251Y0013032D01*
X0010368Y0012772D01*
X0010491Y0012514D01*
X0010621Y0012260D01*
X0010757Y0012009D01*
X0010898Y0011761D01*
X0011046Y0011517D01*
X0011199Y0011276D01*
X0011359Y0011040D01*
X0011524Y0010807D01*
X0011694Y0010578D01*
X0011870Y0010353D01*
X0012052Y0010133D01*
X0012238Y0009917D01*
X0012430Y0009706D01*
X0012627Y0009499D01*
X0012829Y0009297D01*
X0013036Y0009100D01*
X0013247Y0008908D01*
X0013463Y0008722D01*
X0013683Y0008540D01*
X0013908Y0008364D01*
X0014137Y0008194D01*
X0014370Y0008029D01*
X0014606Y0007869D01*
X0014847Y0007716D01*
X0015091Y0007568D01*
X0015339Y0007427D01*
X0015590Y0007291D01*
X0015844Y0007161D01*
X0016102Y0007038D01*
X0016362Y0006921D01*
X0016625Y0006810D01*
X0016891Y0006706D01*
X0017159Y0006608D01*
X0017429Y0006516D01*
X0017702Y0006431D01*
X0017976Y0006353D01*
X0018252Y0006281D01*
X0018530Y0006216D01*
X0018810Y0006158D01*
X0019091Y0006107D01*
X0019372Y0006062D01*
X0019655Y0006024D01*
X0019939Y0005993D01*
X0020223Y0005969D01*
X0020508Y0005952D01*
X0020794Y0005941D01*
X0021079Y0005938D01*
X0042929Y0054363D02*
X0042931Y0054514D01*
X0042937Y0054664D01*
X0042947Y0054815D01*
X0042961Y0054965D01*
X0042979Y0055114D01*
X0043000Y0055264D01*
X0043026Y0055412D01*
X0043056Y0055560D01*
X0043089Y0055707D01*
X0043127Y0055853D01*
X0043168Y0055998D01*
X0043213Y0056142D01*
X0043262Y0056284D01*
X0043315Y0056425D01*
X0043371Y0056565D01*
X0043431Y0056703D01*
X0043494Y0056840D01*
X0043562Y0056975D01*
X0043632Y0057108D01*
X0043706Y0057239D01*
X0043784Y0057368D01*
X0043865Y0057495D01*
X0043949Y0057620D01*
X0044037Y0057743D01*
X0044128Y0057863D01*
X0044222Y0057981D01*
X0044319Y0058096D01*
X0044419Y0058209D01*
X0044522Y0058319D01*
X0044628Y0058426D01*
X0044737Y0058531D01*
X0044848Y0058632D01*
X0044962Y0058731D01*
X0045078Y0058826D01*
X0045198Y0058919D01*
X0045319Y0059008D01*
X0045443Y0059094D01*
X0045569Y0059177D01*
X0045697Y0059256D01*
X0045827Y0059332D01*
X0045959Y0059405D01*
X0046093Y0059473D01*
X0046229Y0059539D01*
X0046367Y0059601D01*
X0046506Y0059659D01*
X0046646Y0059713D01*
X0046788Y0059764D01*
X0046931Y0059811D01*
X0047076Y0059854D01*
X0047221Y0059893D01*
X0047368Y0059929D01*
X0047515Y0059960D01*
X0047663Y0059988D01*
X0047812Y0060012D01*
X0047961Y0060032D01*
X0048111Y0060048D01*
X0048261Y0060060D01*
X0048412Y0060068D01*
X0048563Y0060072D01*
X0048713Y0060072D01*
X0048864Y0060068D01*
X0049015Y0060060D01*
X0049165Y0060048D01*
X0049315Y0060032D01*
X0049464Y0060012D01*
X0049613Y0059988D01*
X0049761Y0059960D01*
X0049908Y0059929D01*
X0050055Y0059893D01*
X0050200Y0059854D01*
X0050345Y0059811D01*
X0050488Y0059764D01*
X0050630Y0059713D01*
X0050770Y0059659D01*
X0050909Y0059601D01*
X0051047Y0059539D01*
X0051183Y0059473D01*
X0051317Y0059405D01*
X0051449Y0059332D01*
X0051579Y0059256D01*
X0051707Y0059177D01*
X0051833Y0059094D01*
X0051957Y0059008D01*
X0052078Y0058919D01*
X0052198Y0058826D01*
X0052314Y0058731D01*
X0052428Y0058632D01*
X0052539Y0058531D01*
X0052648Y0058426D01*
X0052754Y0058319D01*
X0052857Y0058209D01*
X0052957Y0058096D01*
X0053054Y0057981D01*
X0053148Y0057863D01*
X0053239Y0057743D01*
X0053327Y0057620D01*
X0053411Y0057495D01*
X0053492Y0057368D01*
X0053570Y0057239D01*
X0053644Y0057108D01*
X0053714Y0056975D01*
X0053782Y0056840D01*
X0053845Y0056703D01*
X0053905Y0056565D01*
X0053961Y0056425D01*
X0054014Y0056284D01*
X0054063Y0056142D01*
X0054108Y0055998D01*
X0054149Y0055853D01*
X0054187Y0055707D01*
X0054220Y0055560D01*
X0054250Y0055412D01*
X0054276Y0055264D01*
X0054297Y0055114D01*
X0054315Y0054965D01*
X0054329Y0054815D01*
X0054339Y0054664D01*
X0054345Y0054514D01*
X0054347Y0054363D01*
X0054345Y0054212D01*
X0054339Y0054062D01*
X0054329Y0053911D01*
X0054315Y0053761D01*
X0054297Y0053612D01*
X0054276Y0053462D01*
X0054250Y0053314D01*
X0054220Y0053166D01*
X0054187Y0053019D01*
X0054149Y0052873D01*
X0054108Y0052728D01*
X0054063Y0052584D01*
X0054014Y0052442D01*
X0053961Y0052301D01*
X0053905Y0052161D01*
X0053845Y0052023D01*
X0053782Y0051886D01*
X0053714Y0051751D01*
X0053644Y0051618D01*
X0053570Y0051487D01*
X0053492Y0051358D01*
X0053411Y0051231D01*
X0053327Y0051106D01*
X0053239Y0050983D01*
X0053148Y0050863D01*
X0053054Y0050745D01*
X0052957Y0050630D01*
X0052857Y0050517D01*
X0052754Y0050407D01*
X0052648Y0050300D01*
X0052539Y0050195D01*
X0052428Y0050094D01*
X0052314Y0049995D01*
X0052198Y0049900D01*
X0052078Y0049807D01*
X0051957Y0049718D01*
X0051833Y0049632D01*
X0051707Y0049549D01*
X0051579Y0049470D01*
X0051449Y0049394D01*
X0051317Y0049321D01*
X0051183Y0049253D01*
X0051047Y0049187D01*
X0050909Y0049125D01*
X0050770Y0049067D01*
X0050630Y0049013D01*
X0050488Y0048962D01*
X0050345Y0048915D01*
X0050200Y0048872D01*
X0050055Y0048833D01*
X0049908Y0048797D01*
X0049761Y0048766D01*
X0049613Y0048738D01*
X0049464Y0048714D01*
X0049315Y0048694D01*
X0049165Y0048678D01*
X0049015Y0048666D01*
X0048864Y0048658D01*
X0048713Y0048654D01*
X0048563Y0048654D01*
X0048412Y0048658D01*
X0048261Y0048666D01*
X0048111Y0048678D01*
X0047961Y0048694D01*
X0047812Y0048714D01*
X0047663Y0048738D01*
X0047515Y0048766D01*
X0047368Y0048797D01*
X0047221Y0048833D01*
X0047076Y0048872D01*
X0046931Y0048915D01*
X0046788Y0048962D01*
X0046646Y0049013D01*
X0046506Y0049067D01*
X0046367Y0049125D01*
X0046229Y0049187D01*
X0046093Y0049253D01*
X0045959Y0049321D01*
X0045827Y0049394D01*
X0045697Y0049470D01*
X0045569Y0049549D01*
X0045443Y0049632D01*
X0045319Y0049718D01*
X0045198Y0049807D01*
X0045078Y0049900D01*
X0044962Y0049995D01*
X0044848Y0050094D01*
X0044737Y0050195D01*
X0044628Y0050300D01*
X0044522Y0050407D01*
X0044419Y0050517D01*
X0044319Y0050630D01*
X0044222Y0050745D01*
X0044128Y0050863D01*
X0044037Y0050983D01*
X0043949Y0051106D01*
X0043865Y0051231D01*
X0043784Y0051358D01*
X0043706Y0051487D01*
X0043632Y0051618D01*
X0043562Y0051751D01*
X0043494Y0051886D01*
X0043431Y0052023D01*
X0043371Y0052161D01*
X0043315Y0052301D01*
X0043262Y0052442D01*
X0043213Y0052584D01*
X0043168Y0052728D01*
X0043127Y0052873D01*
X0043089Y0053019D01*
X0043056Y0053166D01*
X0043026Y0053314D01*
X0043000Y0053462D01*
X0042979Y0053612D01*
X0042961Y0053761D01*
X0042947Y0053911D01*
X0042937Y0054062D01*
X0042931Y0054212D01*
X0042929Y0054363D01*
X0176000Y0054363D02*
X0176002Y0054524D01*
X0176008Y0054684D01*
X0176018Y0054845D01*
X0176032Y0055005D01*
X0176050Y0055164D01*
X0176071Y0055324D01*
X0176097Y0055482D01*
X0176127Y0055640D01*
X0176160Y0055797D01*
X0176198Y0055954D01*
X0176239Y0056109D01*
X0176284Y0056263D01*
X0176333Y0056416D01*
X0176386Y0056568D01*
X0176442Y0056718D01*
X0176502Y0056867D01*
X0176566Y0057015D01*
X0176633Y0057161D01*
X0176704Y0057305D01*
X0176779Y0057447D01*
X0176857Y0057588D01*
X0176938Y0057726D01*
X0177023Y0057863D01*
X0177112Y0057997D01*
X0177203Y0058129D01*
X0177298Y0058259D01*
X0177396Y0058386D01*
X0177497Y0058511D01*
X0177601Y0058634D01*
X0177708Y0058753D01*
X0177818Y0058870D01*
X0177931Y0058985D01*
X0178047Y0059096D01*
X0178165Y0059205D01*
X0178286Y0059310D01*
X0178410Y0059413D01*
X0178536Y0059513D01*
X0178665Y0059609D01*
X0178796Y0059702D01*
X0178929Y0059792D01*
X0179064Y0059879D01*
X0179202Y0059962D01*
X0179341Y0060041D01*
X0179483Y0060118D01*
X0179626Y0060191D01*
X0179771Y0060260D01*
X0179918Y0060325D01*
X0180066Y0060387D01*
X0180216Y0060446D01*
X0180367Y0060500D01*
X0180519Y0060551D01*
X0180673Y0060598D01*
X0180828Y0060641D01*
X0180983Y0060680D01*
X0181140Y0060716D01*
X0181298Y0060748D01*
X0181456Y0060775D01*
X0181615Y0060799D01*
X0181774Y0060819D01*
X0181934Y0060835D01*
X0182095Y0060847D01*
X0182255Y0060855D01*
X0182416Y0060859D01*
X0182576Y0060859D01*
X0182737Y0060855D01*
X0182897Y0060847D01*
X0183058Y0060835D01*
X0183218Y0060819D01*
X0183377Y0060799D01*
X0183536Y0060775D01*
X0183694Y0060748D01*
X0183852Y0060716D01*
X0184009Y0060680D01*
X0184164Y0060641D01*
X0184319Y0060598D01*
X0184473Y0060551D01*
X0184625Y0060500D01*
X0184776Y0060446D01*
X0184926Y0060387D01*
X0185074Y0060325D01*
X0185221Y0060260D01*
X0185366Y0060191D01*
X0185509Y0060118D01*
X0185651Y0060041D01*
X0185790Y0059962D01*
X0185928Y0059879D01*
X0186063Y0059792D01*
X0186196Y0059702D01*
X0186327Y0059609D01*
X0186456Y0059513D01*
X0186582Y0059413D01*
X0186706Y0059310D01*
X0186827Y0059205D01*
X0186945Y0059096D01*
X0187061Y0058985D01*
X0187174Y0058870D01*
X0187284Y0058753D01*
X0187391Y0058634D01*
X0187495Y0058511D01*
X0187596Y0058386D01*
X0187694Y0058259D01*
X0187789Y0058129D01*
X0187880Y0057997D01*
X0187969Y0057863D01*
X0188054Y0057726D01*
X0188135Y0057588D01*
X0188213Y0057447D01*
X0188288Y0057305D01*
X0188359Y0057161D01*
X0188426Y0057015D01*
X0188490Y0056867D01*
X0188550Y0056718D01*
X0188606Y0056568D01*
X0188659Y0056416D01*
X0188708Y0056263D01*
X0188753Y0056109D01*
X0188794Y0055954D01*
X0188832Y0055797D01*
X0188865Y0055640D01*
X0188895Y0055482D01*
X0188921Y0055324D01*
X0188942Y0055164D01*
X0188960Y0055005D01*
X0188974Y0054845D01*
X0188984Y0054684D01*
X0188990Y0054524D01*
X0188992Y0054363D01*
X0188990Y0054202D01*
X0188984Y0054042D01*
X0188974Y0053881D01*
X0188960Y0053721D01*
X0188942Y0053562D01*
X0188921Y0053402D01*
X0188895Y0053244D01*
X0188865Y0053086D01*
X0188832Y0052929D01*
X0188794Y0052772D01*
X0188753Y0052617D01*
X0188708Y0052463D01*
X0188659Y0052310D01*
X0188606Y0052158D01*
X0188550Y0052008D01*
X0188490Y0051859D01*
X0188426Y0051711D01*
X0188359Y0051565D01*
X0188288Y0051421D01*
X0188213Y0051279D01*
X0188135Y0051138D01*
X0188054Y0051000D01*
X0187969Y0050863D01*
X0187880Y0050729D01*
X0187789Y0050597D01*
X0187694Y0050467D01*
X0187596Y0050340D01*
X0187495Y0050215D01*
X0187391Y0050092D01*
X0187284Y0049973D01*
X0187174Y0049856D01*
X0187061Y0049741D01*
X0186945Y0049630D01*
X0186827Y0049521D01*
X0186706Y0049416D01*
X0186582Y0049313D01*
X0186456Y0049213D01*
X0186327Y0049117D01*
X0186196Y0049024D01*
X0186063Y0048934D01*
X0185928Y0048847D01*
X0185790Y0048764D01*
X0185651Y0048685D01*
X0185509Y0048608D01*
X0185366Y0048535D01*
X0185221Y0048466D01*
X0185074Y0048401D01*
X0184926Y0048339D01*
X0184776Y0048280D01*
X0184625Y0048226D01*
X0184473Y0048175D01*
X0184319Y0048128D01*
X0184164Y0048085D01*
X0184009Y0048046D01*
X0183852Y0048010D01*
X0183694Y0047978D01*
X0183536Y0047951D01*
X0183377Y0047927D01*
X0183218Y0047907D01*
X0183058Y0047891D01*
X0182897Y0047879D01*
X0182737Y0047871D01*
X0182576Y0047867D01*
X0182416Y0047867D01*
X0182255Y0047871D01*
X0182095Y0047879D01*
X0181934Y0047891D01*
X0181774Y0047907D01*
X0181615Y0047927D01*
X0181456Y0047951D01*
X0181298Y0047978D01*
X0181140Y0048010D01*
X0180983Y0048046D01*
X0180828Y0048085D01*
X0180673Y0048128D01*
X0180519Y0048175D01*
X0180367Y0048226D01*
X0180216Y0048280D01*
X0180066Y0048339D01*
X0179918Y0048401D01*
X0179771Y0048466D01*
X0179626Y0048535D01*
X0179483Y0048608D01*
X0179341Y0048685D01*
X0179202Y0048764D01*
X0179064Y0048847D01*
X0178929Y0048934D01*
X0178796Y0049024D01*
X0178665Y0049117D01*
X0178536Y0049213D01*
X0178410Y0049313D01*
X0178286Y0049416D01*
X0178165Y0049521D01*
X0178047Y0049630D01*
X0177931Y0049741D01*
X0177818Y0049856D01*
X0177708Y0049973D01*
X0177601Y0050092D01*
X0177497Y0050215D01*
X0177396Y0050340D01*
X0177298Y0050467D01*
X0177203Y0050597D01*
X0177112Y0050729D01*
X0177023Y0050863D01*
X0176938Y0051000D01*
X0176857Y0051138D01*
X0176779Y0051279D01*
X0176704Y0051421D01*
X0176633Y0051565D01*
X0176566Y0051711D01*
X0176502Y0051859D01*
X0176442Y0052008D01*
X0176386Y0052158D01*
X0176333Y0052310D01*
X0176284Y0052463D01*
X0176239Y0052617D01*
X0176198Y0052772D01*
X0176160Y0052929D01*
X0176127Y0053086D01*
X0176097Y0053244D01*
X0176071Y0053402D01*
X0176050Y0053562D01*
X0176032Y0053721D01*
X0176018Y0053881D01*
X0176008Y0054042D01*
X0176002Y0054202D01*
X0176000Y0054363D01*
X0318913Y0054363D02*
X0318915Y0054524D01*
X0318921Y0054684D01*
X0318931Y0054845D01*
X0318945Y0055005D01*
X0318963Y0055164D01*
X0318984Y0055324D01*
X0319010Y0055482D01*
X0319040Y0055640D01*
X0319073Y0055797D01*
X0319111Y0055954D01*
X0319152Y0056109D01*
X0319197Y0056263D01*
X0319246Y0056416D01*
X0319299Y0056568D01*
X0319355Y0056718D01*
X0319415Y0056867D01*
X0319479Y0057015D01*
X0319546Y0057161D01*
X0319617Y0057305D01*
X0319692Y0057447D01*
X0319770Y0057588D01*
X0319851Y0057726D01*
X0319936Y0057863D01*
X0320025Y0057997D01*
X0320116Y0058129D01*
X0320211Y0058259D01*
X0320309Y0058386D01*
X0320410Y0058511D01*
X0320514Y0058634D01*
X0320621Y0058753D01*
X0320731Y0058870D01*
X0320844Y0058985D01*
X0320960Y0059096D01*
X0321078Y0059205D01*
X0321199Y0059310D01*
X0321323Y0059413D01*
X0321449Y0059513D01*
X0321578Y0059609D01*
X0321709Y0059702D01*
X0321842Y0059792D01*
X0321977Y0059879D01*
X0322115Y0059962D01*
X0322254Y0060041D01*
X0322396Y0060118D01*
X0322539Y0060191D01*
X0322684Y0060260D01*
X0322831Y0060325D01*
X0322979Y0060387D01*
X0323129Y0060446D01*
X0323280Y0060500D01*
X0323432Y0060551D01*
X0323586Y0060598D01*
X0323741Y0060641D01*
X0323896Y0060680D01*
X0324053Y0060716D01*
X0324211Y0060748D01*
X0324369Y0060775D01*
X0324528Y0060799D01*
X0324687Y0060819D01*
X0324847Y0060835D01*
X0325008Y0060847D01*
X0325168Y0060855D01*
X0325329Y0060859D01*
X0325489Y0060859D01*
X0325650Y0060855D01*
X0325810Y0060847D01*
X0325971Y0060835D01*
X0326131Y0060819D01*
X0326290Y0060799D01*
X0326449Y0060775D01*
X0326607Y0060748D01*
X0326765Y0060716D01*
X0326922Y0060680D01*
X0327077Y0060641D01*
X0327232Y0060598D01*
X0327386Y0060551D01*
X0327538Y0060500D01*
X0327689Y0060446D01*
X0327839Y0060387D01*
X0327987Y0060325D01*
X0328134Y0060260D01*
X0328279Y0060191D01*
X0328422Y0060118D01*
X0328564Y0060041D01*
X0328703Y0059962D01*
X0328841Y0059879D01*
X0328976Y0059792D01*
X0329109Y0059702D01*
X0329240Y0059609D01*
X0329369Y0059513D01*
X0329495Y0059413D01*
X0329619Y0059310D01*
X0329740Y0059205D01*
X0329858Y0059096D01*
X0329974Y0058985D01*
X0330087Y0058870D01*
X0330197Y0058753D01*
X0330304Y0058634D01*
X0330408Y0058511D01*
X0330509Y0058386D01*
X0330607Y0058259D01*
X0330702Y0058129D01*
X0330793Y0057997D01*
X0330882Y0057863D01*
X0330967Y0057726D01*
X0331048Y0057588D01*
X0331126Y0057447D01*
X0331201Y0057305D01*
X0331272Y0057161D01*
X0331339Y0057015D01*
X0331403Y0056867D01*
X0331463Y0056718D01*
X0331519Y0056568D01*
X0331572Y0056416D01*
X0331621Y0056263D01*
X0331666Y0056109D01*
X0331707Y0055954D01*
X0331745Y0055797D01*
X0331778Y0055640D01*
X0331808Y0055482D01*
X0331834Y0055324D01*
X0331855Y0055164D01*
X0331873Y0055005D01*
X0331887Y0054845D01*
X0331897Y0054684D01*
X0331903Y0054524D01*
X0331905Y0054363D01*
X0331903Y0054202D01*
X0331897Y0054042D01*
X0331887Y0053881D01*
X0331873Y0053721D01*
X0331855Y0053562D01*
X0331834Y0053402D01*
X0331808Y0053244D01*
X0331778Y0053086D01*
X0331745Y0052929D01*
X0331707Y0052772D01*
X0331666Y0052617D01*
X0331621Y0052463D01*
X0331572Y0052310D01*
X0331519Y0052158D01*
X0331463Y0052008D01*
X0331403Y0051859D01*
X0331339Y0051711D01*
X0331272Y0051565D01*
X0331201Y0051421D01*
X0331126Y0051279D01*
X0331048Y0051138D01*
X0330967Y0051000D01*
X0330882Y0050863D01*
X0330793Y0050729D01*
X0330702Y0050597D01*
X0330607Y0050467D01*
X0330509Y0050340D01*
X0330408Y0050215D01*
X0330304Y0050092D01*
X0330197Y0049973D01*
X0330087Y0049856D01*
X0329974Y0049741D01*
X0329858Y0049630D01*
X0329740Y0049521D01*
X0329619Y0049416D01*
X0329495Y0049313D01*
X0329369Y0049213D01*
X0329240Y0049117D01*
X0329109Y0049024D01*
X0328976Y0048934D01*
X0328841Y0048847D01*
X0328703Y0048764D01*
X0328564Y0048685D01*
X0328422Y0048608D01*
X0328279Y0048535D01*
X0328134Y0048466D01*
X0327987Y0048401D01*
X0327839Y0048339D01*
X0327689Y0048280D01*
X0327538Y0048226D01*
X0327386Y0048175D01*
X0327232Y0048128D01*
X0327077Y0048085D01*
X0326922Y0048046D01*
X0326765Y0048010D01*
X0326607Y0047978D01*
X0326449Y0047951D01*
X0326290Y0047927D01*
X0326131Y0047907D01*
X0325971Y0047891D01*
X0325810Y0047879D01*
X0325650Y0047871D01*
X0325489Y0047867D01*
X0325329Y0047867D01*
X0325168Y0047871D01*
X0325008Y0047879D01*
X0324847Y0047891D01*
X0324687Y0047907D01*
X0324528Y0047927D01*
X0324369Y0047951D01*
X0324211Y0047978D01*
X0324053Y0048010D01*
X0323896Y0048046D01*
X0323741Y0048085D01*
X0323586Y0048128D01*
X0323432Y0048175D01*
X0323280Y0048226D01*
X0323129Y0048280D01*
X0322979Y0048339D01*
X0322831Y0048401D01*
X0322684Y0048466D01*
X0322539Y0048535D01*
X0322396Y0048608D01*
X0322254Y0048685D01*
X0322115Y0048764D01*
X0321977Y0048847D01*
X0321842Y0048934D01*
X0321709Y0049024D01*
X0321578Y0049117D01*
X0321449Y0049213D01*
X0321323Y0049313D01*
X0321199Y0049416D01*
X0321078Y0049521D01*
X0320960Y0049630D01*
X0320844Y0049741D01*
X0320731Y0049856D01*
X0320621Y0049973D01*
X0320514Y0050092D01*
X0320410Y0050215D01*
X0320309Y0050340D01*
X0320211Y0050467D01*
X0320116Y0050597D01*
X0320025Y0050729D01*
X0319936Y0050863D01*
X0319851Y0051000D01*
X0319770Y0051138D01*
X0319692Y0051279D01*
X0319617Y0051421D01*
X0319546Y0051565D01*
X0319479Y0051711D01*
X0319415Y0051859D01*
X0319355Y0052008D01*
X0319299Y0052158D01*
X0319246Y0052310D01*
X0319197Y0052463D01*
X0319152Y0052617D01*
X0319111Y0052772D01*
X0319073Y0052929D01*
X0319040Y0053086D01*
X0319010Y0053244D01*
X0318984Y0053402D01*
X0318963Y0053562D01*
X0318945Y0053721D01*
X0318931Y0053881D01*
X0318921Y0054042D01*
X0318915Y0054202D01*
X0318913Y0054363D01*
D11*
X0340638Y0054940D02*
X0341438Y0054940D01*
X0341038Y0054940D02*
X0341038Y0058540D01*
X0340638Y0058540D02*
X0341438Y0058540D01*
X0342906Y0057740D02*
X0342906Y0055740D01*
X0342908Y0055685D01*
X0342913Y0055631D01*
X0342923Y0055577D01*
X0342936Y0055524D01*
X0342952Y0055472D01*
X0342972Y0055421D01*
X0342996Y0055372D01*
X0343022Y0055324D01*
X0343052Y0055279D01*
X0343085Y0055235D01*
X0343121Y0055194D01*
X0343160Y0055155D01*
X0343201Y0055119D01*
X0343245Y0055086D01*
X0343290Y0055056D01*
X0343338Y0055030D01*
X0343387Y0055006D01*
X0343438Y0054986D01*
X0343490Y0054970D01*
X0343543Y0054957D01*
X0343597Y0054947D01*
X0343651Y0054942D01*
X0343706Y0054940D01*
X0344506Y0054940D01*
X0345918Y0054940D02*
X0347918Y0054940D01*
X0346918Y0054940D02*
X0346918Y0058540D01*
X0345918Y0057740D01*
X0344506Y0058540D02*
X0343706Y0058540D01*
X0343651Y0058538D01*
X0343597Y0058533D01*
X0343543Y0058523D01*
X0343490Y0058510D01*
X0343438Y0058494D01*
X0343387Y0058474D01*
X0343338Y0058450D01*
X0343290Y0058424D01*
X0343245Y0058394D01*
X0343201Y0058361D01*
X0343160Y0058325D01*
X0343121Y0058286D01*
X0343085Y0058245D01*
X0343052Y0058201D01*
X0343022Y0058156D01*
X0342996Y0058108D01*
X0342972Y0058059D01*
X0342952Y0058008D01*
X0342936Y0057956D01*
X0342923Y0057903D01*
X0342913Y0057849D01*
X0342908Y0057795D01*
X0342906Y0057740D01*
X0255014Y0037772D02*
X0255014Y0035216D01*
X0251436Y0036238D01*
X0253992Y0037005D02*
X0256036Y0037005D01*
X0256036Y0033498D02*
X0256036Y0032475D01*
X0256034Y0032413D01*
X0256029Y0032352D01*
X0256019Y0032291D01*
X0256006Y0032230D01*
X0255990Y0032171D01*
X0255970Y0032113D01*
X0255946Y0032056D01*
X0255919Y0032000D01*
X0255889Y0031946D01*
X0255855Y0031894D01*
X0255819Y0031845D01*
X0255779Y0031797D01*
X0255737Y0031752D01*
X0255692Y0031710D01*
X0255644Y0031670D01*
X0255595Y0031634D01*
X0255543Y0031600D01*
X0255489Y0031570D01*
X0255433Y0031543D01*
X0255376Y0031519D01*
X0255318Y0031499D01*
X0255259Y0031483D01*
X0255198Y0031470D01*
X0255137Y0031460D01*
X0255076Y0031455D01*
X0255014Y0031453D01*
X0252458Y0031453D01*
X0252396Y0031455D01*
X0252335Y0031460D01*
X0252274Y0031470D01*
X0252213Y0031483D01*
X0252154Y0031499D01*
X0252096Y0031519D01*
X0252039Y0031543D01*
X0251983Y0031570D01*
X0251929Y0031600D01*
X0251877Y0031634D01*
X0251828Y0031670D01*
X0251780Y0031710D01*
X0251735Y0031752D01*
X0251693Y0031797D01*
X0251654Y0031845D01*
X0251617Y0031894D01*
X0251583Y0031946D01*
X0251553Y0032000D01*
X0251526Y0032056D01*
X0251502Y0032113D01*
X0251482Y0032171D01*
X0251466Y0032230D01*
X0251453Y0032291D01*
X0251443Y0032352D01*
X0251438Y0032413D01*
X0251436Y0032475D01*
X0251436Y0033498D01*
X0185170Y0033498D02*
X0185170Y0032475D01*
X0185168Y0032413D01*
X0185163Y0032352D01*
X0185153Y0032291D01*
X0185140Y0032230D01*
X0185124Y0032171D01*
X0185104Y0032113D01*
X0185080Y0032056D01*
X0185053Y0032000D01*
X0185023Y0031946D01*
X0184989Y0031894D01*
X0184953Y0031845D01*
X0184913Y0031797D01*
X0184871Y0031752D01*
X0184826Y0031710D01*
X0184778Y0031670D01*
X0184729Y0031634D01*
X0184677Y0031600D01*
X0184623Y0031570D01*
X0184567Y0031543D01*
X0184510Y0031519D01*
X0184452Y0031499D01*
X0184393Y0031483D01*
X0184332Y0031470D01*
X0184271Y0031460D01*
X0184210Y0031455D01*
X0184148Y0031453D01*
X0181592Y0031453D01*
X0181530Y0031455D01*
X0181469Y0031460D01*
X0181408Y0031470D01*
X0181347Y0031483D01*
X0181288Y0031499D01*
X0181230Y0031519D01*
X0181173Y0031543D01*
X0181117Y0031570D01*
X0181063Y0031600D01*
X0181011Y0031634D01*
X0180962Y0031670D01*
X0180914Y0031710D01*
X0180869Y0031752D01*
X0180827Y0031797D01*
X0180788Y0031845D01*
X0180751Y0031894D01*
X0180717Y0031946D01*
X0180687Y0032000D01*
X0180660Y0032056D01*
X0180636Y0032113D01*
X0180616Y0032171D01*
X0180600Y0032230D01*
X0180587Y0032291D01*
X0180577Y0032352D01*
X0180572Y0032413D01*
X0180570Y0032475D01*
X0180570Y0033498D01*
X0180570Y0035216D02*
X0180570Y0036750D01*
X0180572Y0036813D01*
X0180578Y0036876D01*
X0180587Y0036938D01*
X0180601Y0036999D01*
X0180618Y0037060D01*
X0180639Y0037119D01*
X0180664Y0037177D01*
X0180692Y0037234D01*
X0180723Y0037288D01*
X0180758Y0037340D01*
X0180796Y0037391D01*
X0180837Y0037439D01*
X0180881Y0037484D01*
X0180927Y0037526D01*
X0180976Y0037566D01*
X0181027Y0037602D01*
X0181081Y0037635D01*
X0181136Y0037665D01*
X0181194Y0037691D01*
X0181252Y0037714D01*
X0181312Y0037733D01*
X0181373Y0037748D01*
X0181435Y0037760D01*
X0181498Y0037768D01*
X0181561Y0037772D01*
X0181623Y0037772D01*
X0181686Y0037768D01*
X0181749Y0037760D01*
X0181811Y0037748D01*
X0181872Y0037733D01*
X0181932Y0037714D01*
X0181990Y0037691D01*
X0182048Y0037665D01*
X0182103Y0037635D01*
X0182157Y0037602D01*
X0182208Y0037566D01*
X0182257Y0037526D01*
X0182303Y0037484D01*
X0182347Y0037439D01*
X0182388Y0037391D01*
X0182426Y0037340D01*
X0182461Y0037288D01*
X0182492Y0037234D01*
X0182520Y0037177D01*
X0182545Y0037119D01*
X0182566Y0037060D01*
X0182583Y0036999D01*
X0182597Y0036938D01*
X0182606Y0036876D01*
X0182612Y0036813D01*
X0182614Y0036750D01*
X0182615Y0036750D02*
X0182615Y0035727D01*
X0182614Y0036494D02*
X0182616Y0036564D01*
X0182622Y0036635D01*
X0182631Y0036704D01*
X0182645Y0036773D01*
X0182662Y0036842D01*
X0182683Y0036909D01*
X0182708Y0036975D01*
X0182736Y0037039D01*
X0182768Y0037102D01*
X0182803Y0037163D01*
X0182842Y0037222D01*
X0182883Y0037279D01*
X0182928Y0037333D01*
X0182976Y0037385D01*
X0183026Y0037434D01*
X0183080Y0037481D01*
X0183135Y0037524D01*
X0183193Y0037564D01*
X0183253Y0037601D01*
X0183315Y0037634D01*
X0183379Y0037664D01*
X0183444Y0037691D01*
X0183510Y0037714D01*
X0183578Y0037733D01*
X0183647Y0037748D01*
X0183716Y0037760D01*
X0183786Y0037768D01*
X0183857Y0037772D01*
X0183927Y0037772D01*
X0183998Y0037768D01*
X0184068Y0037760D01*
X0184137Y0037748D01*
X0184206Y0037733D01*
X0184274Y0037714D01*
X0184340Y0037691D01*
X0184405Y0037664D01*
X0184469Y0037634D01*
X0184531Y0037601D01*
X0184591Y0037564D01*
X0184649Y0037524D01*
X0184704Y0037481D01*
X0184758Y0037434D01*
X0184808Y0037385D01*
X0184856Y0037333D01*
X0184901Y0037279D01*
X0184942Y0037222D01*
X0184981Y0037163D01*
X0185016Y0037102D01*
X0185048Y0037039D01*
X0185076Y0036975D01*
X0185101Y0036909D01*
X0185122Y0036842D01*
X0185139Y0036773D01*
X0185153Y0036704D01*
X0185162Y0036635D01*
X0185168Y0036564D01*
X0185170Y0036494D01*
X0185170Y0035216D01*
X0114304Y0035216D02*
X0114304Y0037772D01*
X0114304Y0035216D02*
X0111748Y0037388D01*
X0109704Y0036622D02*
X0109706Y0036548D01*
X0109711Y0036474D01*
X0109721Y0036400D01*
X0109734Y0036327D01*
X0109750Y0036254D01*
X0109771Y0036183D01*
X0109795Y0036113D01*
X0109822Y0036044D01*
X0109853Y0035976D01*
X0109887Y0035910D01*
X0109924Y0035846D01*
X0109965Y0035784D01*
X0110009Y0035723D01*
X0110055Y0035666D01*
X0110105Y0035610D01*
X0110157Y0035557D01*
X0110212Y0035507D01*
X0110269Y0035460D01*
X0110329Y0035416D01*
X0110391Y0035374D01*
X0110454Y0035336D01*
X0110520Y0035301D01*
X0110587Y0035270D01*
X0110656Y0035242D01*
X0110726Y0035217D01*
X0111748Y0037389D02*
X0111701Y0037436D01*
X0111651Y0037480D01*
X0111599Y0037522D01*
X0111545Y0037561D01*
X0111489Y0037596D01*
X0111431Y0037629D01*
X0111371Y0037659D01*
X0111310Y0037685D01*
X0111247Y0037708D01*
X0111183Y0037727D01*
X0111119Y0037743D01*
X0111053Y0037756D01*
X0110987Y0037765D01*
X0110921Y0037770D01*
X0110854Y0037772D01*
X0110787Y0037770D01*
X0110720Y0037764D01*
X0110654Y0037755D01*
X0110589Y0037741D01*
X0110524Y0037724D01*
X0110461Y0037703D01*
X0110399Y0037678D01*
X0110338Y0037650D01*
X0110279Y0037618D01*
X0110222Y0037583D01*
X0110167Y0037544D01*
X0110115Y0037503D01*
X0110065Y0037458D01*
X0110018Y0037411D01*
X0109973Y0037361D01*
X0109932Y0037309D01*
X0109893Y0037254D01*
X0109858Y0037197D01*
X0109826Y0037138D01*
X0109798Y0037077D01*
X0109773Y0037015D01*
X0109752Y0036952D01*
X0109735Y0036887D01*
X0109721Y0036822D01*
X0109712Y0036756D01*
X0109706Y0036689D01*
X0109704Y0036622D01*
X0109704Y0033498D02*
X0109704Y0032475D01*
X0109706Y0032413D01*
X0109711Y0032352D01*
X0109721Y0032291D01*
X0109734Y0032230D01*
X0109750Y0032171D01*
X0109770Y0032113D01*
X0109794Y0032056D01*
X0109821Y0032000D01*
X0109851Y0031946D01*
X0109885Y0031894D01*
X0109922Y0031845D01*
X0109961Y0031797D01*
X0110003Y0031752D01*
X0110048Y0031710D01*
X0110096Y0031670D01*
X0110145Y0031634D01*
X0110197Y0031600D01*
X0110251Y0031570D01*
X0110307Y0031543D01*
X0110364Y0031519D01*
X0110422Y0031499D01*
X0110481Y0031483D01*
X0110542Y0031470D01*
X0110603Y0031460D01*
X0110664Y0031455D01*
X0110726Y0031453D01*
X0113282Y0031453D01*
X0113344Y0031455D01*
X0113405Y0031460D01*
X0113466Y0031470D01*
X0113527Y0031483D01*
X0113586Y0031499D01*
X0113644Y0031519D01*
X0113701Y0031543D01*
X0113757Y0031570D01*
X0113811Y0031600D01*
X0113863Y0031634D01*
X0113912Y0031670D01*
X0113960Y0031710D01*
X0114005Y0031752D01*
X0114047Y0031797D01*
X0114087Y0031845D01*
X0114123Y0031894D01*
X0114157Y0031946D01*
X0114187Y0032000D01*
X0114214Y0032056D01*
X0114238Y0032113D01*
X0114258Y0032171D01*
X0114274Y0032230D01*
X0114287Y0032291D01*
X0114297Y0032352D01*
X0114302Y0032413D01*
X0114304Y0032475D01*
X0114304Y0033498D01*
X0043438Y0033498D02*
X0043438Y0032475D01*
X0043436Y0032413D01*
X0043431Y0032352D01*
X0043421Y0032291D01*
X0043408Y0032230D01*
X0043392Y0032171D01*
X0043372Y0032113D01*
X0043348Y0032056D01*
X0043321Y0032000D01*
X0043291Y0031946D01*
X0043257Y0031894D01*
X0043221Y0031845D01*
X0043181Y0031797D01*
X0043139Y0031752D01*
X0043094Y0031710D01*
X0043046Y0031670D01*
X0042997Y0031634D01*
X0042945Y0031600D01*
X0042891Y0031570D01*
X0042835Y0031543D01*
X0042778Y0031519D01*
X0042720Y0031499D01*
X0042661Y0031483D01*
X0042600Y0031470D01*
X0042539Y0031460D01*
X0042478Y0031455D01*
X0042416Y0031453D01*
X0039860Y0031453D01*
X0039798Y0031455D01*
X0039737Y0031460D01*
X0039676Y0031470D01*
X0039615Y0031483D01*
X0039556Y0031499D01*
X0039498Y0031519D01*
X0039441Y0031543D01*
X0039385Y0031570D01*
X0039331Y0031600D01*
X0039279Y0031634D01*
X0039230Y0031670D01*
X0039182Y0031710D01*
X0039137Y0031752D01*
X0039095Y0031797D01*
X0039056Y0031845D01*
X0039019Y0031894D01*
X0038985Y0031946D01*
X0038955Y0032000D01*
X0038928Y0032056D01*
X0038904Y0032113D01*
X0038884Y0032171D01*
X0038868Y0032230D01*
X0038855Y0032291D01*
X0038845Y0032352D01*
X0038840Y0032413D01*
X0038838Y0032475D01*
X0038838Y0033498D01*
X0039860Y0035216D02*
X0038838Y0036494D01*
X0043438Y0036494D01*
X0043438Y0035216D02*
X0043438Y0037772D01*
X0096245Y0012431D02*
X0099311Y0007831D01*
X0101000Y0007831D02*
X0103556Y0007831D01*
X0101000Y0007831D02*
X0103173Y0010387D01*
X0102406Y0012431D02*
X0102332Y0012429D01*
X0102258Y0012424D01*
X0102184Y0012414D01*
X0102111Y0012401D01*
X0102038Y0012385D01*
X0101967Y0012364D01*
X0101897Y0012340D01*
X0101828Y0012313D01*
X0101760Y0012282D01*
X0101694Y0012248D01*
X0101630Y0012211D01*
X0101568Y0012170D01*
X0101508Y0012126D01*
X0101450Y0012080D01*
X0101394Y0012030D01*
X0101341Y0011978D01*
X0101291Y0011923D01*
X0101244Y0011866D01*
X0101200Y0011806D01*
X0101158Y0011744D01*
X0101120Y0011681D01*
X0101085Y0011615D01*
X0101054Y0011548D01*
X0101026Y0011479D01*
X0101001Y0011409D01*
X0103173Y0010387D02*
X0103220Y0010434D01*
X0103264Y0010484D01*
X0103306Y0010536D01*
X0103345Y0010590D01*
X0103380Y0010646D01*
X0103413Y0010704D01*
X0103443Y0010764D01*
X0103469Y0010825D01*
X0103492Y0010888D01*
X0103511Y0010952D01*
X0103527Y0011016D01*
X0103540Y0011082D01*
X0103549Y0011148D01*
X0103554Y0011214D01*
X0103556Y0011281D01*
X0103554Y0011348D01*
X0103548Y0011415D01*
X0103539Y0011481D01*
X0103525Y0011546D01*
X0103508Y0011611D01*
X0103487Y0011674D01*
X0103462Y0011736D01*
X0103434Y0011797D01*
X0103402Y0011856D01*
X0103367Y0011913D01*
X0103328Y0011968D01*
X0103287Y0012020D01*
X0103242Y0012070D01*
X0103195Y0012117D01*
X0103145Y0012162D01*
X0103093Y0012203D01*
X0103038Y0012242D01*
X0102981Y0012277D01*
X0102922Y0012309D01*
X0102861Y0012337D01*
X0102799Y0012362D01*
X0102736Y0012383D01*
X0102671Y0012400D01*
X0102606Y0012414D01*
X0102540Y0012423D01*
X0102473Y0012429D01*
X0102406Y0012431D01*
X0099311Y0012431D02*
X0096245Y0007831D01*
X0167111Y0007831D02*
X0170178Y0012431D01*
X0171866Y0012431D02*
X0173400Y0012431D01*
X0173463Y0012429D01*
X0173526Y0012423D01*
X0173588Y0012414D01*
X0173649Y0012400D01*
X0173710Y0012383D01*
X0173769Y0012362D01*
X0173827Y0012337D01*
X0173884Y0012309D01*
X0173938Y0012278D01*
X0173990Y0012243D01*
X0174041Y0012205D01*
X0174089Y0012164D01*
X0174134Y0012120D01*
X0174176Y0012074D01*
X0174216Y0012025D01*
X0174252Y0011974D01*
X0174285Y0011920D01*
X0174315Y0011865D01*
X0174341Y0011807D01*
X0174364Y0011749D01*
X0174383Y0011689D01*
X0174398Y0011628D01*
X0174410Y0011566D01*
X0174418Y0011503D01*
X0174422Y0011440D01*
X0174422Y0011378D01*
X0174418Y0011315D01*
X0174410Y0011252D01*
X0174398Y0011190D01*
X0174383Y0011129D01*
X0174364Y0011069D01*
X0174341Y0011011D01*
X0174315Y0010953D01*
X0174285Y0010898D01*
X0174252Y0010844D01*
X0174216Y0010793D01*
X0174176Y0010744D01*
X0174134Y0010698D01*
X0174089Y0010654D01*
X0174041Y0010613D01*
X0173990Y0010575D01*
X0173938Y0010540D01*
X0173884Y0010509D01*
X0173827Y0010481D01*
X0173769Y0010456D01*
X0173710Y0010435D01*
X0173649Y0010418D01*
X0173588Y0010404D01*
X0173526Y0010395D01*
X0173463Y0010389D01*
X0173400Y0010387D01*
X0172378Y0010387D01*
X0173144Y0010387D02*
X0173214Y0010385D01*
X0173285Y0010379D01*
X0173354Y0010370D01*
X0173423Y0010356D01*
X0173492Y0010339D01*
X0173559Y0010318D01*
X0173625Y0010293D01*
X0173689Y0010265D01*
X0173752Y0010233D01*
X0173813Y0010198D01*
X0173872Y0010159D01*
X0173929Y0010118D01*
X0173983Y0010073D01*
X0174035Y0010025D01*
X0174084Y0009975D01*
X0174131Y0009921D01*
X0174174Y0009866D01*
X0174214Y0009808D01*
X0174251Y0009748D01*
X0174284Y0009686D01*
X0174314Y0009622D01*
X0174341Y0009557D01*
X0174364Y0009491D01*
X0174383Y0009423D01*
X0174398Y0009354D01*
X0174410Y0009285D01*
X0174418Y0009215D01*
X0174422Y0009144D01*
X0174422Y0009074D01*
X0174418Y0009003D01*
X0174410Y0008933D01*
X0174398Y0008864D01*
X0174383Y0008795D01*
X0174364Y0008727D01*
X0174341Y0008661D01*
X0174314Y0008596D01*
X0174284Y0008532D01*
X0174251Y0008470D01*
X0174214Y0008410D01*
X0174174Y0008352D01*
X0174131Y0008297D01*
X0174084Y0008243D01*
X0174035Y0008193D01*
X0173983Y0008145D01*
X0173929Y0008100D01*
X0173872Y0008059D01*
X0173813Y0008020D01*
X0173752Y0007985D01*
X0173689Y0007953D01*
X0173625Y0007925D01*
X0173559Y0007900D01*
X0173492Y0007879D01*
X0173423Y0007862D01*
X0173354Y0007848D01*
X0173285Y0007839D01*
X0173214Y0007833D01*
X0173144Y0007831D01*
X0171866Y0007831D01*
X0170178Y0007831D02*
X0167111Y0012431D01*
X0237977Y0012431D02*
X0241044Y0007831D01*
X0242733Y0008853D02*
X0245288Y0008853D01*
X0244522Y0007831D02*
X0244522Y0009876D01*
X0242733Y0008853D02*
X0243755Y0012431D01*
X0241044Y0012431D02*
X0237977Y0007831D01*
X0308843Y0007831D02*
X0311910Y0012431D01*
X0313599Y0012431D02*
X0316154Y0012431D01*
X0313599Y0012431D02*
X0313599Y0010387D01*
X0315132Y0010387D01*
X0315132Y0010386D02*
X0315194Y0010384D01*
X0315255Y0010379D01*
X0315316Y0010369D01*
X0315377Y0010356D01*
X0315436Y0010340D01*
X0315494Y0010320D01*
X0315551Y0010296D01*
X0315607Y0010269D01*
X0315661Y0010239D01*
X0315713Y0010205D01*
X0315762Y0010169D01*
X0315810Y0010129D01*
X0315855Y0010087D01*
X0315897Y0010042D01*
X0315937Y0009994D01*
X0315973Y0009945D01*
X0316007Y0009893D01*
X0316037Y0009839D01*
X0316064Y0009783D01*
X0316088Y0009726D01*
X0316108Y0009668D01*
X0316124Y0009609D01*
X0316137Y0009548D01*
X0316147Y0009487D01*
X0316152Y0009426D01*
X0316154Y0009364D01*
X0316154Y0008853D01*
X0316152Y0008791D01*
X0316147Y0008730D01*
X0316137Y0008669D01*
X0316124Y0008608D01*
X0316108Y0008549D01*
X0316088Y0008491D01*
X0316064Y0008434D01*
X0316037Y0008378D01*
X0316007Y0008324D01*
X0315973Y0008272D01*
X0315937Y0008223D01*
X0315897Y0008175D01*
X0315855Y0008130D01*
X0315810Y0008088D01*
X0315762Y0008048D01*
X0315713Y0008012D01*
X0315661Y0007978D01*
X0315607Y0007948D01*
X0315551Y0007921D01*
X0315494Y0007897D01*
X0315436Y0007877D01*
X0315377Y0007861D01*
X0315316Y0007848D01*
X0315255Y0007838D01*
X0315194Y0007833D01*
X0315132Y0007831D01*
X0313599Y0007831D01*
X0311910Y0007831D02*
X0308843Y0012431D01*
D12*
X0334013Y0027266D02*
X0353813Y0027266D01*
X0353813Y0045241D01*
X0334013Y0045241D01*
X0334013Y0027266D01*
X0348513Y0041053D02*
X0348515Y0041137D01*
X0348521Y0041222D01*
X0348531Y0041305D01*
X0348545Y0041389D01*
X0348562Y0041471D01*
X0348584Y0041553D01*
X0348609Y0041633D01*
X0348638Y0041712D01*
X0348671Y0041790D01*
X0348707Y0041866D01*
X0348747Y0041941D01*
X0348791Y0042013D01*
X0348837Y0042084D01*
X0348887Y0042152D01*
X0348940Y0042217D01*
X0348996Y0042280D01*
X0349055Y0042341D01*
X0349117Y0042398D01*
X0349181Y0042453D01*
X0349248Y0042504D01*
X0349317Y0042553D01*
X0349389Y0042598D01*
X0349462Y0042639D01*
X0349537Y0042677D01*
X0349614Y0042712D01*
X0349693Y0042743D01*
X0349773Y0042770D01*
X0349854Y0042793D01*
X0349936Y0042813D01*
X0350019Y0042829D01*
X0350102Y0042841D01*
X0350187Y0042849D01*
X0350271Y0042853D01*
X0350355Y0042853D01*
X0350439Y0042849D01*
X0350524Y0042841D01*
X0350607Y0042829D01*
X0350690Y0042813D01*
X0350772Y0042793D01*
X0350853Y0042770D01*
X0350933Y0042743D01*
X0351012Y0042712D01*
X0351089Y0042677D01*
X0351164Y0042639D01*
X0351237Y0042598D01*
X0351309Y0042553D01*
X0351378Y0042504D01*
X0351445Y0042453D01*
X0351509Y0042398D01*
X0351571Y0042341D01*
X0351630Y0042280D01*
X0351686Y0042217D01*
X0351739Y0042152D01*
X0351789Y0042084D01*
X0351835Y0042013D01*
X0351879Y0041941D01*
X0351919Y0041866D01*
X0351955Y0041790D01*
X0351988Y0041712D01*
X0352017Y0041633D01*
X0352042Y0041553D01*
X0352064Y0041471D01*
X0352081Y0041389D01*
X0352095Y0041305D01*
X0352105Y0041222D01*
X0352111Y0041137D01*
X0352113Y0041053D01*
X0352111Y0040969D01*
X0352105Y0040884D01*
X0352095Y0040801D01*
X0352081Y0040717D01*
X0352064Y0040635D01*
X0352042Y0040553D01*
X0352017Y0040473D01*
X0351988Y0040394D01*
X0351955Y0040316D01*
X0351919Y0040240D01*
X0351879Y0040165D01*
X0351835Y0040093D01*
X0351789Y0040022D01*
X0351739Y0039954D01*
X0351686Y0039889D01*
X0351630Y0039826D01*
X0351571Y0039765D01*
X0351509Y0039708D01*
X0351445Y0039653D01*
X0351378Y0039602D01*
X0351309Y0039553D01*
X0351237Y0039508D01*
X0351164Y0039467D01*
X0351089Y0039429D01*
X0351012Y0039394D01*
X0350933Y0039363D01*
X0350853Y0039336D01*
X0350772Y0039313D01*
X0350690Y0039293D01*
X0350607Y0039277D01*
X0350524Y0039265D01*
X0350439Y0039257D01*
X0350355Y0039253D01*
X0350271Y0039253D01*
X0350187Y0039257D01*
X0350102Y0039265D01*
X0350019Y0039277D01*
X0349936Y0039293D01*
X0349854Y0039313D01*
X0349773Y0039336D01*
X0349693Y0039363D01*
X0349614Y0039394D01*
X0349537Y0039429D01*
X0349462Y0039467D01*
X0349389Y0039508D01*
X0349317Y0039553D01*
X0349248Y0039602D01*
X0349181Y0039653D01*
X0349117Y0039708D01*
X0349055Y0039765D01*
X0348996Y0039826D01*
X0348940Y0039889D01*
X0348887Y0039954D01*
X0348837Y0040022D01*
X0348791Y0040093D01*
X0348747Y0040165D01*
X0348707Y0040240D01*
X0348671Y0040316D01*
X0348638Y0040394D01*
X0348609Y0040473D01*
X0348584Y0040553D01*
X0348562Y0040635D01*
X0348545Y0040717D01*
X0348531Y0040801D01*
X0348521Y0040884D01*
X0348515Y0040969D01*
X0348513Y0041053D01*
D13*
X0352913Y0044341D02*
X0334913Y0044341D01*
X0334913Y0028166D01*
X0352913Y0028166D01*
X0352913Y0044341D01*
D14*
X0312417Y0055938D02*
X0273047Y0055938D01*
X0273047Y0016568D01*
X0312417Y0016568D01*
X0312417Y0055938D01*
X0241551Y0055938D02*
X0202181Y0055938D01*
X0202181Y0016568D01*
X0241551Y0016568D01*
X0241551Y0055938D01*
X0170685Y0055938D02*
X0131315Y0055938D01*
X0131315Y0016568D01*
X0170685Y0016568D01*
X0170685Y0055938D01*
X0099819Y0055938D02*
X0060449Y0055938D01*
X0060449Y0016568D01*
X0099819Y0016568D01*
X0099819Y0055938D01*
M02*
