G75*
%MOIN*%
%OFA0B0*%
%FSLAX25Y25*%
%IPPOS*%
%LPD*%
%AMOC8*
5,1,8,0,0,1.08239X$1,22.5*
%
%ADD10C,0.00000*%
%ADD11C,0.00400*%
%ADD12C,0.00500*%
D10*
X0021079Y0005938D02*
X0351787Y0005938D01*
X0352072Y0005941D01*
X0352358Y0005952D01*
X0352643Y0005969D01*
X0352927Y0005993D01*
X0353211Y0006024D01*
X0353494Y0006062D01*
X0353775Y0006107D01*
X0354056Y0006158D01*
X0354336Y0006216D01*
X0354614Y0006281D01*
X0354890Y0006353D01*
X0355164Y0006431D01*
X0355437Y0006516D01*
X0355707Y0006608D01*
X0355975Y0006706D01*
X0356241Y0006810D01*
X0356504Y0006921D01*
X0356764Y0007038D01*
X0357022Y0007161D01*
X0357276Y0007291D01*
X0357527Y0007427D01*
X0357775Y0007568D01*
X0358019Y0007716D01*
X0358260Y0007869D01*
X0358496Y0008029D01*
X0358729Y0008194D01*
X0358958Y0008364D01*
X0359183Y0008540D01*
X0359403Y0008722D01*
X0359619Y0008908D01*
X0359830Y0009100D01*
X0360037Y0009297D01*
X0360239Y0009499D01*
X0360436Y0009706D01*
X0360628Y0009917D01*
X0360814Y0010133D01*
X0360996Y0010353D01*
X0361172Y0010578D01*
X0361342Y0010807D01*
X0361507Y0011040D01*
X0361667Y0011276D01*
X0361820Y0011517D01*
X0361968Y0011761D01*
X0362109Y0012009D01*
X0362245Y0012260D01*
X0362375Y0012514D01*
X0362498Y0012772D01*
X0362615Y0013032D01*
X0362726Y0013295D01*
X0362830Y0013561D01*
X0362928Y0013829D01*
X0363020Y0014099D01*
X0363105Y0014372D01*
X0363183Y0014646D01*
X0363255Y0014922D01*
X0363320Y0015200D01*
X0363378Y0015480D01*
X0363429Y0015761D01*
X0363474Y0016042D01*
X0363512Y0016325D01*
X0363543Y0016609D01*
X0363567Y0016893D01*
X0363584Y0017178D01*
X0363595Y0017464D01*
X0363598Y0017749D01*
X0363598Y0053182D01*
X0363598Y0053183D02*
X0363642Y0053516D01*
X0363677Y0053851D01*
X0363704Y0054186D01*
X0363724Y0054522D01*
X0363735Y0054858D01*
X0363738Y0055194D01*
X0363733Y0055530D01*
X0363720Y0055867D01*
X0363698Y0056202D01*
X0363669Y0056537D01*
X0363631Y0056872D01*
X0363586Y0057205D01*
X0363532Y0057537D01*
X0363470Y0057868D01*
X0363401Y0058197D01*
X0363323Y0058524D01*
X0363238Y0058849D01*
X0363144Y0059172D01*
X0363043Y0059493D01*
X0362935Y0059811D01*
X0362818Y0060127D01*
X0362694Y0060440D01*
X0362563Y0060749D01*
X0362424Y0061056D01*
X0362277Y0061358D01*
X0362124Y0061658D01*
X0361963Y0061953D01*
X0361795Y0062245D01*
X0361620Y0062532D01*
X0361438Y0062815D01*
X0361250Y0063093D01*
X0361054Y0063367D01*
X0360852Y0063636D01*
X0360644Y0063900D01*
X0360430Y0064159D01*
X0360209Y0064413D01*
X0359982Y0064662D01*
X0359749Y0064904D01*
X0359511Y0065142D01*
X0359266Y0065373D01*
X0359017Y0065598D01*
X0358762Y0065817D01*
X0358501Y0066030D01*
X0358236Y0066237D01*
X0357965Y0066437D01*
X0357690Y0066631D01*
X0357411Y0066817D01*
X0357127Y0066997D01*
X0356838Y0067171D01*
X0356546Y0067337D01*
X0356249Y0067496D01*
X0355949Y0067647D01*
X0355645Y0067792D01*
X0355338Y0067929D01*
X0355028Y0068059D01*
X0354714Y0068181D01*
X0354398Y0068295D01*
X0354079Y0068402D01*
X0353758Y0068501D01*
X0353434Y0068592D01*
X0353108Y0068676D01*
X0352780Y0068751D01*
X0352451Y0068819D01*
X0352120Y0068879D01*
X0351787Y0068930D01*
X0021079Y0068930D01*
X0020746Y0068879D01*
X0020415Y0068819D01*
X0020086Y0068751D01*
X0019758Y0068676D01*
X0019432Y0068592D01*
X0019108Y0068501D01*
X0018787Y0068402D01*
X0018468Y0068295D01*
X0018152Y0068181D01*
X0017838Y0068059D01*
X0017528Y0067929D01*
X0017221Y0067792D01*
X0016917Y0067647D01*
X0016617Y0067496D01*
X0016320Y0067337D01*
X0016028Y0067171D01*
X0015739Y0066997D01*
X0015455Y0066817D01*
X0015176Y0066631D01*
X0014901Y0066437D01*
X0014630Y0066237D01*
X0014365Y0066030D01*
X0014104Y0065817D01*
X0013849Y0065598D01*
X0013600Y0065373D01*
X0013355Y0065142D01*
X0013117Y0064904D01*
X0012884Y0064662D01*
X0012657Y0064413D01*
X0012436Y0064159D01*
X0012222Y0063900D01*
X0012014Y0063636D01*
X0011812Y0063367D01*
X0011616Y0063093D01*
X0011428Y0062815D01*
X0011246Y0062532D01*
X0011071Y0062245D01*
X0010903Y0061953D01*
X0010742Y0061658D01*
X0010589Y0061358D01*
X0010442Y0061056D01*
X0010303Y0060749D01*
X0010172Y0060440D01*
X0010048Y0060127D01*
X0009931Y0059811D01*
X0009823Y0059493D01*
X0009722Y0059172D01*
X0009628Y0058849D01*
X0009543Y0058524D01*
X0009465Y0058197D01*
X0009396Y0057868D01*
X0009334Y0057537D01*
X0009280Y0057205D01*
X0009235Y0056872D01*
X0009197Y0056537D01*
X0009168Y0056202D01*
X0009146Y0055867D01*
X0009133Y0055530D01*
X0009128Y0055194D01*
X0009131Y0054858D01*
X0009142Y0054522D01*
X0009162Y0054186D01*
X0009189Y0053851D01*
X0009224Y0053516D01*
X0009268Y0053183D01*
X0009268Y0053182D02*
X0009268Y0017749D01*
X0009271Y0017464D01*
X0009282Y0017178D01*
X0009299Y0016893D01*
X0009323Y0016609D01*
X0009354Y0016325D01*
X0009392Y0016042D01*
X0009437Y0015761D01*
X0009488Y0015480D01*
X0009546Y0015200D01*
X0009611Y0014922D01*
X0009683Y0014646D01*
X0009761Y0014372D01*
X0009846Y0014099D01*
X0009938Y0013829D01*
X0010036Y0013561D01*
X0010140Y0013295D01*
X0010251Y0013032D01*
X0010368Y0012772D01*
X0010491Y0012514D01*
X0010621Y0012260D01*
X0010757Y0012009D01*
X0010898Y0011761D01*
X0011046Y0011517D01*
X0011199Y0011276D01*
X0011359Y0011040D01*
X0011524Y0010807D01*
X0011694Y0010578D01*
X0011870Y0010353D01*
X0012052Y0010133D01*
X0012238Y0009917D01*
X0012430Y0009706D01*
X0012627Y0009499D01*
X0012829Y0009297D01*
X0013036Y0009100D01*
X0013247Y0008908D01*
X0013463Y0008722D01*
X0013683Y0008540D01*
X0013908Y0008364D01*
X0014137Y0008194D01*
X0014370Y0008029D01*
X0014606Y0007869D01*
X0014847Y0007716D01*
X0015091Y0007568D01*
X0015339Y0007427D01*
X0015590Y0007291D01*
X0015844Y0007161D01*
X0016102Y0007038D01*
X0016362Y0006921D01*
X0016625Y0006810D01*
X0016891Y0006706D01*
X0017159Y0006608D01*
X0017429Y0006516D01*
X0017702Y0006431D01*
X0017976Y0006353D01*
X0018252Y0006281D01*
X0018530Y0006216D01*
X0018810Y0006158D01*
X0019091Y0006107D01*
X0019372Y0006062D01*
X0019655Y0006024D01*
X0019939Y0005993D01*
X0020223Y0005969D01*
X0020508Y0005952D01*
X0020794Y0005941D01*
X0021079Y0005938D01*
X0042929Y0054363D02*
X0042931Y0054514D01*
X0042937Y0054664D01*
X0042947Y0054815D01*
X0042961Y0054965D01*
X0042979Y0055114D01*
X0043000Y0055264D01*
X0043026Y0055412D01*
X0043056Y0055560D01*
X0043089Y0055707D01*
X0043127Y0055853D01*
X0043168Y0055998D01*
X0043213Y0056142D01*
X0043262Y0056284D01*
X0043315Y0056425D01*
X0043371Y0056565D01*
X0043431Y0056703D01*
X0043494Y0056840D01*
X0043562Y0056975D01*
X0043632Y0057108D01*
X0043706Y0057239D01*
X0043784Y0057368D01*
X0043865Y0057495D01*
X0043949Y0057620D01*
X0044037Y0057743D01*
X0044128Y0057863D01*
X0044222Y0057981D01*
X0044319Y0058096D01*
X0044419Y0058209D01*
X0044522Y0058319D01*
X0044628Y0058426D01*
X0044737Y0058531D01*
X0044848Y0058632D01*
X0044962Y0058731D01*
X0045078Y0058826D01*
X0045198Y0058919D01*
X0045319Y0059008D01*
X0045443Y0059094D01*
X0045569Y0059177D01*
X0045697Y0059256D01*
X0045827Y0059332D01*
X0045959Y0059405D01*
X0046093Y0059473D01*
X0046229Y0059539D01*
X0046367Y0059601D01*
X0046506Y0059659D01*
X0046646Y0059713D01*
X0046788Y0059764D01*
X0046931Y0059811D01*
X0047076Y0059854D01*
X0047221Y0059893D01*
X0047368Y0059929D01*
X0047515Y0059960D01*
X0047663Y0059988D01*
X0047812Y0060012D01*
X0047961Y0060032D01*
X0048111Y0060048D01*
X0048261Y0060060D01*
X0048412Y0060068D01*
X0048563Y0060072D01*
X0048713Y0060072D01*
X0048864Y0060068D01*
X0049015Y0060060D01*
X0049165Y0060048D01*
X0049315Y0060032D01*
X0049464Y0060012D01*
X0049613Y0059988D01*
X0049761Y0059960D01*
X0049908Y0059929D01*
X0050055Y0059893D01*
X0050200Y0059854D01*
X0050345Y0059811D01*
X0050488Y0059764D01*
X0050630Y0059713D01*
X0050770Y0059659D01*
X0050909Y0059601D01*
X0051047Y0059539D01*
X0051183Y0059473D01*
X0051317Y0059405D01*
X0051449Y0059332D01*
X0051579Y0059256D01*
X0051707Y0059177D01*
X0051833Y0059094D01*
X0051957Y0059008D01*
X0052078Y0058919D01*
X0052198Y0058826D01*
X0052314Y0058731D01*
X0052428Y0058632D01*
X0052539Y0058531D01*
X0052648Y0058426D01*
X0052754Y0058319D01*
X0052857Y0058209D01*
X0052957Y0058096D01*
X0053054Y0057981D01*
X0053148Y0057863D01*
X0053239Y0057743D01*
X0053327Y0057620D01*
X0053411Y0057495D01*
X0053492Y0057368D01*
X0053570Y0057239D01*
X0053644Y0057108D01*
X0053714Y0056975D01*
X0053782Y0056840D01*
X0053845Y0056703D01*
X0053905Y0056565D01*
X0053961Y0056425D01*
X0054014Y0056284D01*
X0054063Y0056142D01*
X0054108Y0055998D01*
X0054149Y0055853D01*
X0054187Y0055707D01*
X0054220Y0055560D01*
X0054250Y0055412D01*
X0054276Y0055264D01*
X0054297Y0055114D01*
X0054315Y0054965D01*
X0054329Y0054815D01*
X0054339Y0054664D01*
X0054345Y0054514D01*
X0054347Y0054363D01*
X0054345Y0054212D01*
X0054339Y0054062D01*
X0054329Y0053911D01*
X0054315Y0053761D01*
X0054297Y0053612D01*
X0054276Y0053462D01*
X0054250Y0053314D01*
X0054220Y0053166D01*
X0054187Y0053019D01*
X0054149Y0052873D01*
X0054108Y0052728D01*
X0054063Y0052584D01*
X0054014Y0052442D01*
X0053961Y0052301D01*
X0053905Y0052161D01*
X0053845Y0052023D01*
X0053782Y0051886D01*
X0053714Y0051751D01*
X0053644Y0051618D01*
X0053570Y0051487D01*
X0053492Y0051358D01*
X0053411Y0051231D01*
X0053327Y0051106D01*
X0053239Y0050983D01*
X0053148Y0050863D01*
X0053054Y0050745D01*
X0052957Y0050630D01*
X0052857Y0050517D01*
X0052754Y0050407D01*
X0052648Y0050300D01*
X0052539Y0050195D01*
X0052428Y0050094D01*
X0052314Y0049995D01*
X0052198Y0049900D01*
X0052078Y0049807D01*
X0051957Y0049718D01*
X0051833Y0049632D01*
X0051707Y0049549D01*
X0051579Y0049470D01*
X0051449Y0049394D01*
X0051317Y0049321D01*
X0051183Y0049253D01*
X0051047Y0049187D01*
X0050909Y0049125D01*
X0050770Y0049067D01*
X0050630Y0049013D01*
X0050488Y0048962D01*
X0050345Y0048915D01*
X0050200Y0048872D01*
X0050055Y0048833D01*
X0049908Y0048797D01*
X0049761Y0048766D01*
X0049613Y0048738D01*
X0049464Y0048714D01*
X0049315Y0048694D01*
X0049165Y0048678D01*
X0049015Y0048666D01*
X0048864Y0048658D01*
X0048713Y0048654D01*
X0048563Y0048654D01*
X0048412Y0048658D01*
X0048261Y0048666D01*
X0048111Y0048678D01*
X0047961Y0048694D01*
X0047812Y0048714D01*
X0047663Y0048738D01*
X0047515Y0048766D01*
X0047368Y0048797D01*
X0047221Y0048833D01*
X0047076Y0048872D01*
X0046931Y0048915D01*
X0046788Y0048962D01*
X0046646Y0049013D01*
X0046506Y0049067D01*
X0046367Y0049125D01*
X0046229Y0049187D01*
X0046093Y0049253D01*
X0045959Y0049321D01*
X0045827Y0049394D01*
X0045697Y0049470D01*
X0045569Y0049549D01*
X0045443Y0049632D01*
X0045319Y0049718D01*
X0045198Y0049807D01*
X0045078Y0049900D01*
X0044962Y0049995D01*
X0044848Y0050094D01*
X0044737Y0050195D01*
X0044628Y0050300D01*
X0044522Y0050407D01*
X0044419Y0050517D01*
X0044319Y0050630D01*
X0044222Y0050745D01*
X0044128Y0050863D01*
X0044037Y0050983D01*
X0043949Y0051106D01*
X0043865Y0051231D01*
X0043784Y0051358D01*
X0043706Y0051487D01*
X0043632Y0051618D01*
X0043562Y0051751D01*
X0043494Y0051886D01*
X0043431Y0052023D01*
X0043371Y0052161D01*
X0043315Y0052301D01*
X0043262Y0052442D01*
X0043213Y0052584D01*
X0043168Y0052728D01*
X0043127Y0052873D01*
X0043089Y0053019D01*
X0043056Y0053166D01*
X0043026Y0053314D01*
X0043000Y0053462D01*
X0042979Y0053612D01*
X0042961Y0053761D01*
X0042947Y0053911D01*
X0042937Y0054062D01*
X0042931Y0054212D01*
X0042929Y0054363D01*
X0176000Y0054363D02*
X0176002Y0054524D01*
X0176008Y0054684D01*
X0176018Y0054845D01*
X0176032Y0055005D01*
X0176050Y0055164D01*
X0176071Y0055324D01*
X0176097Y0055482D01*
X0176127Y0055640D01*
X0176160Y0055797D01*
X0176198Y0055954D01*
X0176239Y0056109D01*
X0176284Y0056263D01*
X0176333Y0056416D01*
X0176386Y0056568D01*
X0176442Y0056718D01*
X0176502Y0056867D01*
X0176566Y0057015D01*
X0176633Y0057161D01*
X0176704Y0057305D01*
X0176779Y0057447D01*
X0176857Y0057588D01*
X0176938Y0057726D01*
X0177023Y0057863D01*
X0177112Y0057997D01*
X0177203Y0058129D01*
X0177298Y0058259D01*
X0177396Y0058386D01*
X0177497Y0058511D01*
X0177601Y0058634D01*
X0177708Y0058753D01*
X0177818Y0058870D01*
X0177931Y0058985D01*
X0178047Y0059096D01*
X0178165Y0059205D01*
X0178286Y0059310D01*
X0178410Y0059413D01*
X0178536Y0059513D01*
X0178665Y0059609D01*
X0178796Y0059702D01*
X0178929Y0059792D01*
X0179064Y0059879D01*
X0179202Y0059962D01*
X0179341Y0060041D01*
X0179483Y0060118D01*
X0179626Y0060191D01*
X0179771Y0060260D01*
X0179918Y0060325D01*
X0180066Y0060387D01*
X0180216Y0060446D01*
X0180367Y0060500D01*
X0180519Y0060551D01*
X0180673Y0060598D01*
X0180828Y0060641D01*
X0180983Y0060680D01*
X0181140Y0060716D01*
X0181298Y0060748D01*
X0181456Y0060775D01*
X0181615Y0060799D01*
X0181774Y0060819D01*
X0181934Y0060835D01*
X0182095Y0060847D01*
X0182255Y0060855D01*
X0182416Y0060859D01*
X0182576Y0060859D01*
X0182737Y0060855D01*
X0182897Y0060847D01*
X0183058Y0060835D01*
X0183218Y0060819D01*
X0183377Y0060799D01*
X0183536Y0060775D01*
X0183694Y0060748D01*
X0183852Y0060716D01*
X0184009Y0060680D01*
X0184164Y0060641D01*
X0184319Y0060598D01*
X0184473Y0060551D01*
X0184625Y0060500D01*
X0184776Y0060446D01*
X0184926Y0060387D01*
X0185074Y0060325D01*
X0185221Y0060260D01*
X0185366Y0060191D01*
X0185509Y0060118D01*
X0185651Y0060041D01*
X0185790Y0059962D01*
X0185928Y0059879D01*
X0186063Y0059792D01*
X0186196Y0059702D01*
X0186327Y0059609D01*
X0186456Y0059513D01*
X0186582Y0059413D01*
X0186706Y0059310D01*
X0186827Y0059205D01*
X0186945Y0059096D01*
X0187061Y0058985D01*
X0187174Y0058870D01*
X0187284Y0058753D01*
X0187391Y0058634D01*
X0187495Y0058511D01*
X0187596Y0058386D01*
X0187694Y0058259D01*
X0187789Y0058129D01*
X0187880Y0057997D01*
X0187969Y0057863D01*
X0188054Y0057726D01*
X0188135Y0057588D01*
X0188213Y0057447D01*
X0188288Y0057305D01*
X0188359Y0057161D01*
X0188426Y0057015D01*
X0188490Y0056867D01*
X0188550Y0056718D01*
X0188606Y0056568D01*
X0188659Y0056416D01*
X0188708Y0056263D01*
X0188753Y0056109D01*
X0188794Y0055954D01*
X0188832Y0055797D01*
X0188865Y0055640D01*
X0188895Y0055482D01*
X0188921Y0055324D01*
X0188942Y0055164D01*
X0188960Y0055005D01*
X0188974Y0054845D01*
X0188984Y0054684D01*
X0188990Y0054524D01*
X0188992Y0054363D01*
X0188990Y0054202D01*
X0188984Y0054042D01*
X0188974Y0053881D01*
X0188960Y0053721D01*
X0188942Y0053562D01*
X0188921Y0053402D01*
X0188895Y0053244D01*
X0188865Y0053086D01*
X0188832Y0052929D01*
X0188794Y0052772D01*
X0188753Y0052617D01*
X0188708Y0052463D01*
X0188659Y0052310D01*
X0188606Y0052158D01*
X0188550Y0052008D01*
X0188490Y0051859D01*
X0188426Y0051711D01*
X0188359Y0051565D01*
X0188288Y0051421D01*
X0188213Y0051279D01*
X0188135Y0051138D01*
X0188054Y0051000D01*
X0187969Y0050863D01*
X0187880Y0050729D01*
X0187789Y0050597D01*
X0187694Y0050467D01*
X0187596Y0050340D01*
X0187495Y0050215D01*
X0187391Y0050092D01*
X0187284Y0049973D01*
X0187174Y0049856D01*
X0187061Y0049741D01*
X0186945Y0049630D01*
X0186827Y0049521D01*
X0186706Y0049416D01*
X0186582Y0049313D01*
X0186456Y0049213D01*
X0186327Y0049117D01*
X0186196Y0049024D01*
X0186063Y0048934D01*
X0185928Y0048847D01*
X0185790Y0048764D01*
X0185651Y0048685D01*
X0185509Y0048608D01*
X0185366Y0048535D01*
X0185221Y0048466D01*
X0185074Y0048401D01*
X0184926Y0048339D01*
X0184776Y0048280D01*
X0184625Y0048226D01*
X0184473Y0048175D01*
X0184319Y0048128D01*
X0184164Y0048085D01*
X0184009Y0048046D01*
X0183852Y0048010D01*
X0183694Y0047978D01*
X0183536Y0047951D01*
X0183377Y0047927D01*
X0183218Y0047907D01*
X0183058Y0047891D01*
X0182897Y0047879D01*
X0182737Y0047871D01*
X0182576Y0047867D01*
X0182416Y0047867D01*
X0182255Y0047871D01*
X0182095Y0047879D01*
X0181934Y0047891D01*
X0181774Y0047907D01*
X0181615Y0047927D01*
X0181456Y0047951D01*
X0181298Y0047978D01*
X0181140Y0048010D01*
X0180983Y0048046D01*
X0180828Y0048085D01*
X0180673Y0048128D01*
X0180519Y0048175D01*
X0180367Y0048226D01*
X0180216Y0048280D01*
X0180066Y0048339D01*
X0179918Y0048401D01*
X0179771Y0048466D01*
X0179626Y0048535D01*
X0179483Y0048608D01*
X0179341Y0048685D01*
X0179202Y0048764D01*
X0179064Y0048847D01*
X0178929Y0048934D01*
X0178796Y0049024D01*
X0178665Y0049117D01*
X0178536Y0049213D01*
X0178410Y0049313D01*
X0178286Y0049416D01*
X0178165Y0049521D01*
X0178047Y0049630D01*
X0177931Y0049741D01*
X0177818Y0049856D01*
X0177708Y0049973D01*
X0177601Y0050092D01*
X0177497Y0050215D01*
X0177396Y0050340D01*
X0177298Y0050467D01*
X0177203Y0050597D01*
X0177112Y0050729D01*
X0177023Y0050863D01*
X0176938Y0051000D01*
X0176857Y0051138D01*
X0176779Y0051279D01*
X0176704Y0051421D01*
X0176633Y0051565D01*
X0176566Y0051711D01*
X0176502Y0051859D01*
X0176442Y0052008D01*
X0176386Y0052158D01*
X0176333Y0052310D01*
X0176284Y0052463D01*
X0176239Y0052617D01*
X0176198Y0052772D01*
X0176160Y0052929D01*
X0176127Y0053086D01*
X0176097Y0053244D01*
X0176071Y0053402D01*
X0176050Y0053562D01*
X0176032Y0053721D01*
X0176018Y0053881D01*
X0176008Y0054042D01*
X0176002Y0054202D01*
X0176000Y0054363D01*
X0318913Y0054363D02*
X0318915Y0054524D01*
X0318921Y0054684D01*
X0318931Y0054845D01*
X0318945Y0055005D01*
X0318963Y0055164D01*
X0318984Y0055324D01*
X0319010Y0055482D01*
X0319040Y0055640D01*
X0319073Y0055797D01*
X0319111Y0055954D01*
X0319152Y0056109D01*
X0319197Y0056263D01*
X0319246Y0056416D01*
X0319299Y0056568D01*
X0319355Y0056718D01*
X0319415Y0056867D01*
X0319479Y0057015D01*
X0319546Y0057161D01*
X0319617Y0057305D01*
X0319692Y0057447D01*
X0319770Y0057588D01*
X0319851Y0057726D01*
X0319936Y0057863D01*
X0320025Y0057997D01*
X0320116Y0058129D01*
X0320211Y0058259D01*
X0320309Y0058386D01*
X0320410Y0058511D01*
X0320514Y0058634D01*
X0320621Y0058753D01*
X0320731Y0058870D01*
X0320844Y0058985D01*
X0320960Y0059096D01*
X0321078Y0059205D01*
X0321199Y0059310D01*
X0321323Y0059413D01*
X0321449Y0059513D01*
X0321578Y0059609D01*
X0321709Y0059702D01*
X0321842Y0059792D01*
X0321977Y0059879D01*
X0322115Y0059962D01*
X0322254Y0060041D01*
X0322396Y0060118D01*
X0322539Y0060191D01*
X0322684Y0060260D01*
X0322831Y0060325D01*
X0322979Y0060387D01*
X0323129Y0060446D01*
X0323280Y0060500D01*
X0323432Y0060551D01*
X0323586Y0060598D01*
X0323741Y0060641D01*
X0323896Y0060680D01*
X0324053Y0060716D01*
X0324211Y0060748D01*
X0324369Y0060775D01*
X0324528Y0060799D01*
X0324687Y0060819D01*
X0324847Y0060835D01*
X0325008Y0060847D01*
X0325168Y0060855D01*
X0325329Y0060859D01*
X0325489Y0060859D01*
X0325650Y0060855D01*
X0325810Y0060847D01*
X0325971Y0060835D01*
X0326131Y0060819D01*
X0326290Y0060799D01*
X0326449Y0060775D01*
X0326607Y0060748D01*
X0326765Y0060716D01*
X0326922Y0060680D01*
X0327077Y0060641D01*
X0327232Y0060598D01*
X0327386Y0060551D01*
X0327538Y0060500D01*
X0327689Y0060446D01*
X0327839Y0060387D01*
X0327987Y0060325D01*
X0328134Y0060260D01*
X0328279Y0060191D01*
X0328422Y0060118D01*
X0328564Y0060041D01*
X0328703Y0059962D01*
X0328841Y0059879D01*
X0328976Y0059792D01*
X0329109Y0059702D01*
X0329240Y0059609D01*
X0329369Y0059513D01*
X0329495Y0059413D01*
X0329619Y0059310D01*
X0329740Y0059205D01*
X0329858Y0059096D01*
X0329974Y0058985D01*
X0330087Y0058870D01*
X0330197Y0058753D01*
X0330304Y0058634D01*
X0330408Y0058511D01*
X0330509Y0058386D01*
X0330607Y0058259D01*
X0330702Y0058129D01*
X0330793Y0057997D01*
X0330882Y0057863D01*
X0330967Y0057726D01*
X0331048Y0057588D01*
X0331126Y0057447D01*
X0331201Y0057305D01*
X0331272Y0057161D01*
X0331339Y0057015D01*
X0331403Y0056867D01*
X0331463Y0056718D01*
X0331519Y0056568D01*
X0331572Y0056416D01*
X0331621Y0056263D01*
X0331666Y0056109D01*
X0331707Y0055954D01*
X0331745Y0055797D01*
X0331778Y0055640D01*
X0331808Y0055482D01*
X0331834Y0055324D01*
X0331855Y0055164D01*
X0331873Y0055005D01*
X0331887Y0054845D01*
X0331897Y0054684D01*
X0331903Y0054524D01*
X0331905Y0054363D01*
X0331903Y0054202D01*
X0331897Y0054042D01*
X0331887Y0053881D01*
X0331873Y0053721D01*
X0331855Y0053562D01*
X0331834Y0053402D01*
X0331808Y0053244D01*
X0331778Y0053086D01*
X0331745Y0052929D01*
X0331707Y0052772D01*
X0331666Y0052617D01*
X0331621Y0052463D01*
X0331572Y0052310D01*
X0331519Y0052158D01*
X0331463Y0052008D01*
X0331403Y0051859D01*
X0331339Y0051711D01*
X0331272Y0051565D01*
X0331201Y0051421D01*
X0331126Y0051279D01*
X0331048Y0051138D01*
X0330967Y0051000D01*
X0330882Y0050863D01*
X0330793Y0050729D01*
X0330702Y0050597D01*
X0330607Y0050467D01*
X0330509Y0050340D01*
X0330408Y0050215D01*
X0330304Y0050092D01*
X0330197Y0049973D01*
X0330087Y0049856D01*
X0329974Y0049741D01*
X0329858Y0049630D01*
X0329740Y0049521D01*
X0329619Y0049416D01*
X0329495Y0049313D01*
X0329369Y0049213D01*
X0329240Y0049117D01*
X0329109Y0049024D01*
X0328976Y0048934D01*
X0328841Y0048847D01*
X0328703Y0048764D01*
X0328564Y0048685D01*
X0328422Y0048608D01*
X0328279Y0048535D01*
X0328134Y0048466D01*
X0327987Y0048401D01*
X0327839Y0048339D01*
X0327689Y0048280D01*
X0327538Y0048226D01*
X0327386Y0048175D01*
X0327232Y0048128D01*
X0327077Y0048085D01*
X0326922Y0048046D01*
X0326765Y0048010D01*
X0326607Y0047978D01*
X0326449Y0047951D01*
X0326290Y0047927D01*
X0326131Y0047907D01*
X0325971Y0047891D01*
X0325810Y0047879D01*
X0325650Y0047871D01*
X0325489Y0047867D01*
X0325329Y0047867D01*
X0325168Y0047871D01*
X0325008Y0047879D01*
X0324847Y0047891D01*
X0324687Y0047907D01*
X0324528Y0047927D01*
X0324369Y0047951D01*
X0324211Y0047978D01*
X0324053Y0048010D01*
X0323896Y0048046D01*
X0323741Y0048085D01*
X0323586Y0048128D01*
X0323432Y0048175D01*
X0323280Y0048226D01*
X0323129Y0048280D01*
X0322979Y0048339D01*
X0322831Y0048401D01*
X0322684Y0048466D01*
X0322539Y0048535D01*
X0322396Y0048608D01*
X0322254Y0048685D01*
X0322115Y0048764D01*
X0321977Y0048847D01*
X0321842Y0048934D01*
X0321709Y0049024D01*
X0321578Y0049117D01*
X0321449Y0049213D01*
X0321323Y0049313D01*
X0321199Y0049416D01*
X0321078Y0049521D01*
X0320960Y0049630D01*
X0320844Y0049741D01*
X0320731Y0049856D01*
X0320621Y0049973D01*
X0320514Y0050092D01*
X0320410Y0050215D01*
X0320309Y0050340D01*
X0320211Y0050467D01*
X0320116Y0050597D01*
X0320025Y0050729D01*
X0319936Y0050863D01*
X0319851Y0051000D01*
X0319770Y0051138D01*
X0319692Y0051279D01*
X0319617Y0051421D01*
X0319546Y0051565D01*
X0319479Y0051711D01*
X0319415Y0051859D01*
X0319355Y0052008D01*
X0319299Y0052158D01*
X0319246Y0052310D01*
X0319197Y0052463D01*
X0319152Y0052617D01*
X0319111Y0052772D01*
X0319073Y0052929D01*
X0319040Y0053086D01*
X0319010Y0053244D01*
X0318984Y0053402D01*
X0318963Y0053562D01*
X0318945Y0053721D01*
X0318931Y0053881D01*
X0318921Y0054042D01*
X0318915Y0054202D01*
X0318913Y0054363D01*
D11*
X0265072Y0040463D02*
X0263794Y0040463D01*
X0265072Y0040463D02*
X0265072Y0035863D01*
X0263538Y0037907D02*
X0262516Y0035863D01*
X0260601Y0037140D02*
X0260599Y0037070D01*
X0260593Y0036999D01*
X0260584Y0036930D01*
X0260570Y0036861D01*
X0260553Y0036792D01*
X0260532Y0036725D01*
X0260507Y0036659D01*
X0260479Y0036595D01*
X0260447Y0036532D01*
X0260412Y0036471D01*
X0260373Y0036412D01*
X0260332Y0036355D01*
X0260287Y0036301D01*
X0260239Y0036249D01*
X0260189Y0036200D01*
X0260135Y0036153D01*
X0260080Y0036110D01*
X0260022Y0036070D01*
X0259962Y0036033D01*
X0259900Y0036000D01*
X0259836Y0035970D01*
X0259771Y0035943D01*
X0259705Y0035920D01*
X0259637Y0035901D01*
X0259568Y0035886D01*
X0259499Y0035874D01*
X0259429Y0035866D01*
X0259358Y0035862D01*
X0259288Y0035862D01*
X0259217Y0035866D01*
X0259147Y0035874D01*
X0259078Y0035886D01*
X0259009Y0035901D01*
X0258941Y0035920D01*
X0258875Y0035943D01*
X0258810Y0035970D01*
X0258746Y0036000D01*
X0258684Y0036033D01*
X0258624Y0036070D01*
X0258566Y0036110D01*
X0258511Y0036153D01*
X0258457Y0036200D01*
X0258407Y0036249D01*
X0258359Y0036301D01*
X0258314Y0036355D01*
X0258273Y0036412D01*
X0258234Y0036471D01*
X0258199Y0036532D01*
X0258167Y0036595D01*
X0258139Y0036659D01*
X0258114Y0036725D01*
X0258093Y0036792D01*
X0258076Y0036861D01*
X0258062Y0036930D01*
X0258053Y0036999D01*
X0258047Y0037070D01*
X0258045Y0037140D01*
X0258047Y0037210D01*
X0258053Y0037281D01*
X0258062Y0037350D01*
X0258076Y0037419D01*
X0258093Y0037488D01*
X0258114Y0037555D01*
X0258139Y0037621D01*
X0258167Y0037685D01*
X0258199Y0037748D01*
X0258234Y0037809D01*
X0258273Y0037868D01*
X0258314Y0037925D01*
X0258359Y0037979D01*
X0258407Y0038031D01*
X0258457Y0038080D01*
X0258511Y0038127D01*
X0258566Y0038170D01*
X0258624Y0038210D01*
X0258684Y0038247D01*
X0258746Y0038280D01*
X0258810Y0038310D01*
X0258875Y0038337D01*
X0258941Y0038360D01*
X0259009Y0038379D01*
X0259078Y0038394D01*
X0259147Y0038406D01*
X0259217Y0038414D01*
X0259288Y0038418D01*
X0259358Y0038418D01*
X0259429Y0038414D01*
X0259499Y0038406D01*
X0259568Y0038394D01*
X0259637Y0038379D01*
X0259705Y0038360D01*
X0259771Y0038337D01*
X0259836Y0038310D01*
X0259900Y0038280D01*
X0259962Y0038247D01*
X0260022Y0038210D01*
X0260080Y0038170D01*
X0260135Y0038127D01*
X0260189Y0038080D01*
X0260239Y0038031D01*
X0260287Y0037979D01*
X0260332Y0037925D01*
X0260373Y0037868D01*
X0260412Y0037809D01*
X0260447Y0037748D01*
X0260479Y0037685D01*
X0260507Y0037621D01*
X0260532Y0037555D01*
X0260553Y0037488D01*
X0260570Y0037419D01*
X0260584Y0037350D01*
X0260593Y0037281D01*
X0260599Y0037210D01*
X0260601Y0037140D01*
X0263794Y0037907D02*
X0265072Y0037907D01*
X0263794Y0037907D02*
X0263724Y0037909D01*
X0263653Y0037915D01*
X0263584Y0037924D01*
X0263515Y0037938D01*
X0263446Y0037955D01*
X0263379Y0037976D01*
X0263313Y0038001D01*
X0263249Y0038029D01*
X0263186Y0038061D01*
X0263125Y0038096D01*
X0263066Y0038135D01*
X0263009Y0038176D01*
X0262955Y0038221D01*
X0262903Y0038269D01*
X0262854Y0038319D01*
X0262807Y0038373D01*
X0262764Y0038428D01*
X0262724Y0038486D01*
X0262687Y0038546D01*
X0262654Y0038608D01*
X0262624Y0038672D01*
X0262597Y0038737D01*
X0262574Y0038803D01*
X0262555Y0038871D01*
X0262540Y0038940D01*
X0262528Y0039009D01*
X0262520Y0039079D01*
X0262516Y0039150D01*
X0262516Y0039220D01*
X0262520Y0039291D01*
X0262528Y0039361D01*
X0262540Y0039430D01*
X0262555Y0039499D01*
X0262574Y0039567D01*
X0262597Y0039633D01*
X0262624Y0039698D01*
X0262654Y0039762D01*
X0262687Y0039824D01*
X0262724Y0039884D01*
X0262764Y0039942D01*
X0262807Y0039997D01*
X0262854Y0040051D01*
X0262903Y0040101D01*
X0262955Y0040149D01*
X0263009Y0040194D01*
X0263066Y0040235D01*
X0263125Y0040274D01*
X0263186Y0040309D01*
X0263249Y0040341D01*
X0263313Y0040369D01*
X0263379Y0040394D01*
X0263446Y0040415D01*
X0263515Y0040432D01*
X0263584Y0040446D01*
X0263653Y0040455D01*
X0263724Y0040461D01*
X0263794Y0040463D01*
X0260345Y0039440D02*
X0260343Y0039377D01*
X0260337Y0039314D01*
X0260328Y0039252D01*
X0260314Y0039191D01*
X0260297Y0039130D01*
X0260276Y0039071D01*
X0260251Y0039013D01*
X0260223Y0038956D01*
X0260192Y0038902D01*
X0260157Y0038850D01*
X0260119Y0038799D01*
X0260078Y0038751D01*
X0260034Y0038706D01*
X0259988Y0038664D01*
X0259939Y0038624D01*
X0259888Y0038588D01*
X0259834Y0038555D01*
X0259779Y0038525D01*
X0259721Y0038499D01*
X0259663Y0038476D01*
X0259603Y0038457D01*
X0259542Y0038442D01*
X0259480Y0038430D01*
X0259417Y0038422D01*
X0259354Y0038418D01*
X0259292Y0038418D01*
X0259229Y0038422D01*
X0259166Y0038430D01*
X0259104Y0038442D01*
X0259043Y0038457D01*
X0258983Y0038476D01*
X0258925Y0038499D01*
X0258867Y0038525D01*
X0258812Y0038555D01*
X0258758Y0038588D01*
X0258707Y0038624D01*
X0258658Y0038664D01*
X0258612Y0038706D01*
X0258568Y0038751D01*
X0258527Y0038799D01*
X0258489Y0038850D01*
X0258454Y0038902D01*
X0258423Y0038956D01*
X0258395Y0039013D01*
X0258370Y0039071D01*
X0258349Y0039130D01*
X0258332Y0039191D01*
X0258318Y0039252D01*
X0258309Y0039314D01*
X0258303Y0039377D01*
X0258301Y0039440D01*
X0258303Y0039503D01*
X0258309Y0039566D01*
X0258318Y0039628D01*
X0258332Y0039689D01*
X0258349Y0039750D01*
X0258370Y0039809D01*
X0258395Y0039867D01*
X0258423Y0039924D01*
X0258454Y0039978D01*
X0258489Y0040030D01*
X0258527Y0040081D01*
X0258568Y0040129D01*
X0258612Y0040174D01*
X0258658Y0040216D01*
X0258707Y0040256D01*
X0258758Y0040292D01*
X0258812Y0040325D01*
X0258867Y0040355D01*
X0258925Y0040381D01*
X0258983Y0040404D01*
X0259043Y0040423D01*
X0259104Y0040438D01*
X0259166Y0040450D01*
X0259229Y0040458D01*
X0259292Y0040462D01*
X0259354Y0040462D01*
X0259417Y0040458D01*
X0259480Y0040450D01*
X0259542Y0040438D01*
X0259603Y0040423D01*
X0259663Y0040404D01*
X0259721Y0040381D01*
X0259779Y0040355D01*
X0259834Y0040325D01*
X0259888Y0040292D01*
X0259939Y0040256D01*
X0259988Y0040216D01*
X0260034Y0040174D01*
X0260078Y0040129D01*
X0260119Y0040081D01*
X0260157Y0040030D01*
X0260192Y0039978D01*
X0260223Y0039924D01*
X0260251Y0039867D01*
X0260276Y0039809D01*
X0260297Y0039750D01*
X0260314Y0039689D01*
X0260328Y0039628D01*
X0260337Y0039566D01*
X0260343Y0039503D01*
X0260345Y0039440D01*
X0194206Y0040463D02*
X0194206Y0035863D01*
X0192672Y0037907D02*
X0191650Y0035863D01*
X0189735Y0037140D02*
X0189735Y0038418D01*
X0188201Y0038418D01*
X0189734Y0038418D02*
X0189732Y0038507D01*
X0189726Y0038596D01*
X0189717Y0038685D01*
X0189703Y0038773D01*
X0189686Y0038860D01*
X0189664Y0038947D01*
X0189639Y0039033D01*
X0189611Y0039117D01*
X0189578Y0039200D01*
X0189542Y0039282D01*
X0189503Y0039362D01*
X0189460Y0039440D01*
X0189414Y0039516D01*
X0189364Y0039590D01*
X0189312Y0039662D01*
X0189256Y0039732D01*
X0189197Y0039799D01*
X0189135Y0039863D01*
X0189071Y0039925D01*
X0189004Y0039984D01*
X0188934Y0040040D01*
X0188862Y0040092D01*
X0188788Y0040142D01*
X0188712Y0040188D01*
X0188634Y0040231D01*
X0188554Y0040270D01*
X0188472Y0040306D01*
X0188389Y0040339D01*
X0188305Y0040367D01*
X0188219Y0040392D01*
X0188132Y0040414D01*
X0188045Y0040431D01*
X0187957Y0040445D01*
X0187868Y0040454D01*
X0187779Y0040460D01*
X0187690Y0040462D01*
X0192928Y0040463D02*
X0194206Y0040463D01*
X0192928Y0040463D02*
X0192858Y0040461D01*
X0192787Y0040455D01*
X0192718Y0040446D01*
X0192649Y0040432D01*
X0192580Y0040415D01*
X0192513Y0040394D01*
X0192447Y0040369D01*
X0192383Y0040341D01*
X0192320Y0040309D01*
X0192259Y0040274D01*
X0192200Y0040235D01*
X0192143Y0040194D01*
X0192089Y0040149D01*
X0192037Y0040101D01*
X0191988Y0040051D01*
X0191941Y0039997D01*
X0191898Y0039942D01*
X0191858Y0039884D01*
X0191821Y0039824D01*
X0191788Y0039762D01*
X0191758Y0039698D01*
X0191731Y0039633D01*
X0191708Y0039567D01*
X0191689Y0039499D01*
X0191674Y0039430D01*
X0191662Y0039361D01*
X0191654Y0039291D01*
X0191650Y0039220D01*
X0191650Y0039150D01*
X0191654Y0039079D01*
X0191662Y0039009D01*
X0191674Y0038940D01*
X0191689Y0038871D01*
X0191708Y0038803D01*
X0191731Y0038737D01*
X0191758Y0038672D01*
X0191788Y0038608D01*
X0191821Y0038546D01*
X0191858Y0038486D01*
X0191898Y0038428D01*
X0191941Y0038373D01*
X0191988Y0038319D01*
X0192037Y0038269D01*
X0192089Y0038221D01*
X0192143Y0038176D01*
X0192200Y0038135D01*
X0192259Y0038096D01*
X0192320Y0038061D01*
X0192383Y0038029D01*
X0192447Y0038001D01*
X0192513Y0037976D01*
X0192580Y0037955D01*
X0192649Y0037938D01*
X0192718Y0037924D01*
X0192787Y0037915D01*
X0192858Y0037909D01*
X0192928Y0037907D01*
X0194206Y0037907D01*
X0189735Y0037140D02*
X0189733Y0037070D01*
X0189727Y0036999D01*
X0189718Y0036930D01*
X0189704Y0036861D01*
X0189687Y0036792D01*
X0189666Y0036725D01*
X0189641Y0036659D01*
X0189613Y0036595D01*
X0189581Y0036532D01*
X0189546Y0036471D01*
X0189507Y0036412D01*
X0189466Y0036355D01*
X0189421Y0036301D01*
X0189373Y0036249D01*
X0189323Y0036200D01*
X0189269Y0036153D01*
X0189214Y0036110D01*
X0189156Y0036070D01*
X0189096Y0036033D01*
X0189034Y0036000D01*
X0188970Y0035970D01*
X0188905Y0035943D01*
X0188839Y0035920D01*
X0188771Y0035901D01*
X0188702Y0035886D01*
X0188633Y0035874D01*
X0188563Y0035866D01*
X0188492Y0035862D01*
X0188422Y0035862D01*
X0188351Y0035866D01*
X0188281Y0035874D01*
X0188212Y0035886D01*
X0188143Y0035901D01*
X0188075Y0035920D01*
X0188009Y0035943D01*
X0187944Y0035970D01*
X0187880Y0036000D01*
X0187818Y0036033D01*
X0187758Y0036070D01*
X0187700Y0036110D01*
X0187645Y0036153D01*
X0187591Y0036200D01*
X0187541Y0036249D01*
X0187493Y0036301D01*
X0187448Y0036355D01*
X0187407Y0036412D01*
X0187368Y0036471D01*
X0187333Y0036532D01*
X0187301Y0036595D01*
X0187273Y0036659D01*
X0187248Y0036725D01*
X0187227Y0036792D01*
X0187210Y0036861D01*
X0187196Y0036930D01*
X0187187Y0036999D01*
X0187181Y0037070D01*
X0187179Y0037140D01*
X0187179Y0037396D01*
X0187181Y0037458D01*
X0187186Y0037519D01*
X0187196Y0037580D01*
X0187209Y0037641D01*
X0187225Y0037700D01*
X0187245Y0037758D01*
X0187269Y0037815D01*
X0187296Y0037871D01*
X0187326Y0037925D01*
X0187360Y0037977D01*
X0187396Y0038026D01*
X0187436Y0038074D01*
X0187478Y0038119D01*
X0187523Y0038161D01*
X0187571Y0038201D01*
X0187620Y0038237D01*
X0187672Y0038271D01*
X0187726Y0038301D01*
X0187782Y0038328D01*
X0187839Y0038352D01*
X0187897Y0038372D01*
X0187956Y0038388D01*
X0188017Y0038401D01*
X0188078Y0038411D01*
X0188139Y0038416D01*
X0188201Y0038418D01*
X0123339Y0037907D02*
X0122062Y0037907D01*
X0121806Y0037907D02*
X0120784Y0035863D01*
X0123339Y0035863D02*
X0123339Y0040463D01*
X0122062Y0040463D01*
X0121992Y0040461D01*
X0121921Y0040455D01*
X0121852Y0040446D01*
X0121783Y0040432D01*
X0121714Y0040415D01*
X0121647Y0040394D01*
X0121581Y0040369D01*
X0121517Y0040341D01*
X0121454Y0040309D01*
X0121393Y0040274D01*
X0121334Y0040235D01*
X0121277Y0040194D01*
X0121223Y0040149D01*
X0121171Y0040101D01*
X0121122Y0040051D01*
X0121075Y0039997D01*
X0121032Y0039942D01*
X0120992Y0039884D01*
X0120955Y0039824D01*
X0120922Y0039762D01*
X0120892Y0039698D01*
X0120865Y0039633D01*
X0120842Y0039567D01*
X0120823Y0039499D01*
X0120808Y0039430D01*
X0120796Y0039361D01*
X0120788Y0039291D01*
X0120784Y0039220D01*
X0120784Y0039150D01*
X0120788Y0039079D01*
X0120796Y0039009D01*
X0120808Y0038940D01*
X0120823Y0038871D01*
X0120842Y0038803D01*
X0120865Y0038737D01*
X0120892Y0038672D01*
X0120922Y0038608D01*
X0120955Y0038546D01*
X0120992Y0038486D01*
X0121032Y0038428D01*
X0121075Y0038373D01*
X0121122Y0038319D01*
X0121171Y0038269D01*
X0121223Y0038221D01*
X0121277Y0038176D01*
X0121334Y0038135D01*
X0121393Y0038096D01*
X0121454Y0038061D01*
X0121517Y0038029D01*
X0121581Y0038001D01*
X0121647Y0037976D01*
X0121714Y0037955D01*
X0121783Y0037938D01*
X0121852Y0037924D01*
X0121921Y0037915D01*
X0121992Y0037909D01*
X0122062Y0037907D01*
X0118868Y0036885D02*
X0116313Y0036885D01*
X0117079Y0037907D02*
X0117079Y0035863D01*
X0118868Y0036885D02*
X0117846Y0040463D01*
X0052473Y0040463D02*
X0052473Y0035863D01*
X0049918Y0035863D02*
X0050940Y0037907D01*
X0051195Y0037907D02*
X0052473Y0037907D01*
X0048002Y0035863D02*
X0045830Y0038418D01*
X0046597Y0040462D02*
X0046671Y0040460D01*
X0046745Y0040455D01*
X0046819Y0040445D01*
X0046892Y0040432D01*
X0046965Y0040416D01*
X0047036Y0040395D01*
X0047106Y0040371D01*
X0047175Y0040344D01*
X0047243Y0040313D01*
X0047309Y0040279D01*
X0047373Y0040242D01*
X0047435Y0040201D01*
X0047496Y0040157D01*
X0047553Y0040111D01*
X0047609Y0040061D01*
X0047662Y0040009D01*
X0047712Y0039954D01*
X0047759Y0039897D01*
X0047803Y0039837D01*
X0047845Y0039775D01*
X0047883Y0039712D01*
X0047918Y0039646D01*
X0047949Y0039579D01*
X0047977Y0039510D01*
X0048002Y0039440D01*
X0045830Y0038419D02*
X0045783Y0038466D01*
X0045739Y0038516D01*
X0045697Y0038568D01*
X0045658Y0038622D01*
X0045623Y0038678D01*
X0045590Y0038736D01*
X0045560Y0038796D01*
X0045534Y0038857D01*
X0045511Y0038920D01*
X0045492Y0038984D01*
X0045476Y0039048D01*
X0045463Y0039114D01*
X0045454Y0039180D01*
X0045449Y0039246D01*
X0045447Y0039313D01*
X0045449Y0039380D01*
X0045455Y0039447D01*
X0045464Y0039513D01*
X0045478Y0039578D01*
X0045495Y0039643D01*
X0045516Y0039706D01*
X0045541Y0039768D01*
X0045569Y0039829D01*
X0045601Y0039888D01*
X0045636Y0039945D01*
X0045675Y0040000D01*
X0045716Y0040052D01*
X0045761Y0040102D01*
X0045808Y0040149D01*
X0045858Y0040194D01*
X0045910Y0040235D01*
X0045965Y0040274D01*
X0046022Y0040309D01*
X0046081Y0040341D01*
X0046142Y0040369D01*
X0046204Y0040394D01*
X0046267Y0040415D01*
X0046332Y0040432D01*
X0046397Y0040446D01*
X0046463Y0040455D01*
X0046530Y0040461D01*
X0046597Y0040463D01*
X0051195Y0040463D02*
X0052473Y0040463D01*
X0051195Y0040463D02*
X0051125Y0040461D01*
X0051054Y0040455D01*
X0050985Y0040446D01*
X0050916Y0040432D01*
X0050847Y0040415D01*
X0050780Y0040394D01*
X0050714Y0040369D01*
X0050650Y0040341D01*
X0050587Y0040309D01*
X0050526Y0040274D01*
X0050467Y0040235D01*
X0050410Y0040194D01*
X0050356Y0040149D01*
X0050304Y0040101D01*
X0050255Y0040051D01*
X0050208Y0039997D01*
X0050165Y0039942D01*
X0050125Y0039884D01*
X0050088Y0039824D01*
X0050055Y0039762D01*
X0050025Y0039698D01*
X0049998Y0039633D01*
X0049975Y0039567D01*
X0049956Y0039499D01*
X0049941Y0039430D01*
X0049929Y0039361D01*
X0049921Y0039291D01*
X0049917Y0039220D01*
X0049917Y0039150D01*
X0049921Y0039079D01*
X0049929Y0039009D01*
X0049941Y0038940D01*
X0049956Y0038871D01*
X0049975Y0038803D01*
X0049998Y0038737D01*
X0050025Y0038672D01*
X0050055Y0038608D01*
X0050088Y0038546D01*
X0050125Y0038486D01*
X0050165Y0038428D01*
X0050208Y0038373D01*
X0050255Y0038319D01*
X0050304Y0038269D01*
X0050356Y0038221D01*
X0050410Y0038176D01*
X0050467Y0038135D01*
X0050526Y0038096D01*
X0050587Y0038061D01*
X0050650Y0038029D01*
X0050714Y0038001D01*
X0050780Y0037976D01*
X0050847Y0037955D01*
X0050916Y0037938D01*
X0050985Y0037924D01*
X0051054Y0037915D01*
X0051125Y0037909D01*
X0051195Y0037907D01*
X0048002Y0035863D02*
X0045447Y0035863D01*
X0018438Y0051217D02*
X0013838Y0054284D01*
X0013838Y0051217D02*
X0018438Y0054284D01*
X0017416Y0055973D02*
X0018438Y0057250D01*
X0013838Y0057250D01*
X0013838Y0055973D02*
X0013838Y0058528D01*
X0049151Y0015384D02*
X0049151Y0010784D01*
X0050429Y0010784D02*
X0047873Y0010784D01*
X0052344Y0010784D02*
X0053366Y0012828D01*
X0053622Y0012828D02*
X0054900Y0012828D01*
X0053622Y0012828D02*
X0053552Y0012830D01*
X0053481Y0012836D01*
X0053412Y0012845D01*
X0053343Y0012859D01*
X0053274Y0012876D01*
X0053207Y0012897D01*
X0053141Y0012922D01*
X0053077Y0012950D01*
X0053014Y0012982D01*
X0052953Y0013017D01*
X0052894Y0013056D01*
X0052837Y0013097D01*
X0052783Y0013142D01*
X0052731Y0013190D01*
X0052682Y0013240D01*
X0052635Y0013294D01*
X0052592Y0013349D01*
X0052552Y0013407D01*
X0052515Y0013467D01*
X0052482Y0013529D01*
X0052452Y0013593D01*
X0052425Y0013658D01*
X0052402Y0013724D01*
X0052383Y0013792D01*
X0052368Y0013861D01*
X0052356Y0013930D01*
X0052348Y0014000D01*
X0052344Y0014071D01*
X0052344Y0014141D01*
X0052348Y0014212D01*
X0052356Y0014282D01*
X0052368Y0014351D01*
X0052383Y0014420D01*
X0052402Y0014488D01*
X0052425Y0014554D01*
X0052452Y0014619D01*
X0052482Y0014683D01*
X0052515Y0014745D01*
X0052552Y0014805D01*
X0052592Y0014863D01*
X0052635Y0014918D01*
X0052682Y0014972D01*
X0052731Y0015022D01*
X0052783Y0015070D01*
X0052837Y0015115D01*
X0052894Y0015156D01*
X0052953Y0015195D01*
X0053014Y0015230D01*
X0053077Y0015262D01*
X0053141Y0015290D01*
X0053207Y0015315D01*
X0053274Y0015336D01*
X0053343Y0015353D01*
X0053412Y0015367D01*
X0053481Y0015376D01*
X0053552Y0015382D01*
X0053622Y0015384D01*
X0054900Y0015384D01*
X0054900Y0010784D01*
X0050429Y0014362D02*
X0049151Y0015384D01*
X0119762Y0015384D02*
X0121295Y0015384D01*
X0119762Y0015384D02*
X0119699Y0015382D01*
X0119636Y0015376D01*
X0119574Y0015367D01*
X0119513Y0015353D01*
X0119452Y0015336D01*
X0119393Y0015315D01*
X0119335Y0015290D01*
X0119278Y0015262D01*
X0119224Y0015231D01*
X0119172Y0015196D01*
X0119121Y0015158D01*
X0119073Y0015117D01*
X0119028Y0015073D01*
X0118986Y0015027D01*
X0118946Y0014978D01*
X0118910Y0014927D01*
X0118877Y0014873D01*
X0118847Y0014818D01*
X0118821Y0014760D01*
X0118798Y0014702D01*
X0118779Y0014642D01*
X0118764Y0014581D01*
X0118752Y0014519D01*
X0118744Y0014456D01*
X0118740Y0014393D01*
X0118740Y0014331D01*
X0118744Y0014268D01*
X0118752Y0014205D01*
X0118764Y0014143D01*
X0118779Y0014082D01*
X0118798Y0014022D01*
X0118821Y0013964D01*
X0118847Y0013906D01*
X0118877Y0013851D01*
X0118910Y0013797D01*
X0118946Y0013746D01*
X0118986Y0013697D01*
X0119028Y0013651D01*
X0119073Y0013607D01*
X0119121Y0013566D01*
X0119172Y0013528D01*
X0119224Y0013493D01*
X0119278Y0013462D01*
X0119335Y0013434D01*
X0119393Y0013409D01*
X0119452Y0013388D01*
X0119513Y0013371D01*
X0119574Y0013357D01*
X0119636Y0013348D01*
X0119699Y0013342D01*
X0119762Y0013340D01*
X0119762Y0013339D02*
X0120784Y0013339D01*
X0124233Y0012828D02*
X0123210Y0010784D01*
X0121295Y0010784D02*
X0120017Y0010784D01*
X0119947Y0010786D01*
X0119876Y0010792D01*
X0119807Y0010801D01*
X0119738Y0010815D01*
X0119669Y0010832D01*
X0119602Y0010853D01*
X0119536Y0010878D01*
X0119472Y0010906D01*
X0119409Y0010938D01*
X0119348Y0010973D01*
X0119289Y0011012D01*
X0119232Y0011053D01*
X0119178Y0011098D01*
X0119126Y0011146D01*
X0119077Y0011196D01*
X0119030Y0011250D01*
X0118987Y0011305D01*
X0118947Y0011363D01*
X0118910Y0011423D01*
X0118877Y0011485D01*
X0118847Y0011549D01*
X0118820Y0011614D01*
X0118797Y0011680D01*
X0118778Y0011748D01*
X0118763Y0011817D01*
X0118751Y0011886D01*
X0118743Y0011956D01*
X0118739Y0012027D01*
X0118739Y0012097D01*
X0118743Y0012168D01*
X0118751Y0012238D01*
X0118763Y0012307D01*
X0118778Y0012376D01*
X0118797Y0012444D01*
X0118820Y0012510D01*
X0118847Y0012575D01*
X0118877Y0012639D01*
X0118910Y0012701D01*
X0118947Y0012761D01*
X0118987Y0012819D01*
X0119030Y0012874D01*
X0119077Y0012928D01*
X0119126Y0012978D01*
X0119178Y0013026D01*
X0119232Y0013071D01*
X0119289Y0013112D01*
X0119348Y0013151D01*
X0119409Y0013186D01*
X0119472Y0013218D01*
X0119536Y0013246D01*
X0119602Y0013271D01*
X0119669Y0013292D01*
X0119738Y0013309D01*
X0119807Y0013323D01*
X0119876Y0013332D01*
X0119947Y0013338D01*
X0120017Y0013340D01*
X0124488Y0012828D02*
X0125766Y0012828D01*
X0124488Y0012828D02*
X0124418Y0012830D01*
X0124347Y0012836D01*
X0124278Y0012845D01*
X0124209Y0012859D01*
X0124140Y0012876D01*
X0124073Y0012897D01*
X0124007Y0012922D01*
X0123943Y0012950D01*
X0123880Y0012982D01*
X0123819Y0013017D01*
X0123760Y0013056D01*
X0123703Y0013097D01*
X0123649Y0013142D01*
X0123597Y0013190D01*
X0123548Y0013240D01*
X0123501Y0013294D01*
X0123458Y0013349D01*
X0123418Y0013407D01*
X0123381Y0013467D01*
X0123348Y0013529D01*
X0123318Y0013593D01*
X0123291Y0013658D01*
X0123268Y0013724D01*
X0123249Y0013792D01*
X0123234Y0013861D01*
X0123222Y0013930D01*
X0123214Y0014000D01*
X0123210Y0014071D01*
X0123210Y0014141D01*
X0123214Y0014212D01*
X0123222Y0014282D01*
X0123234Y0014351D01*
X0123249Y0014420D01*
X0123268Y0014488D01*
X0123291Y0014554D01*
X0123318Y0014619D01*
X0123348Y0014683D01*
X0123381Y0014745D01*
X0123418Y0014805D01*
X0123458Y0014863D01*
X0123501Y0014918D01*
X0123548Y0014972D01*
X0123597Y0015022D01*
X0123649Y0015070D01*
X0123703Y0015115D01*
X0123760Y0015156D01*
X0123819Y0015195D01*
X0123880Y0015230D01*
X0123943Y0015262D01*
X0124007Y0015290D01*
X0124073Y0015315D01*
X0124140Y0015336D01*
X0124209Y0015353D01*
X0124278Y0015367D01*
X0124347Y0015376D01*
X0124418Y0015382D01*
X0124488Y0015384D01*
X0125766Y0015384D01*
X0125766Y0010784D01*
X0189606Y0011806D02*
X0189606Y0012317D01*
X0189608Y0012379D01*
X0189613Y0012440D01*
X0189623Y0012501D01*
X0189636Y0012562D01*
X0189652Y0012621D01*
X0189672Y0012679D01*
X0189696Y0012736D01*
X0189723Y0012792D01*
X0189753Y0012846D01*
X0189787Y0012898D01*
X0189823Y0012947D01*
X0189863Y0012995D01*
X0189905Y0013040D01*
X0189950Y0013082D01*
X0189998Y0013122D01*
X0190047Y0013158D01*
X0190099Y0013192D01*
X0190153Y0013222D01*
X0190209Y0013249D01*
X0190266Y0013273D01*
X0190324Y0013293D01*
X0190383Y0013309D01*
X0190444Y0013322D01*
X0190505Y0013332D01*
X0190566Y0013337D01*
X0190628Y0013339D01*
X0192161Y0013339D01*
X0192161Y0015384D01*
X0189606Y0015384D01*
X0195354Y0015384D02*
X0196632Y0015384D01*
X0196632Y0010784D01*
X0194077Y0010784D02*
X0195099Y0012828D01*
X0195354Y0012828D02*
X0196632Y0012828D01*
X0195354Y0012828D02*
X0195284Y0012830D01*
X0195213Y0012836D01*
X0195144Y0012845D01*
X0195075Y0012859D01*
X0195006Y0012876D01*
X0194939Y0012897D01*
X0194873Y0012922D01*
X0194809Y0012950D01*
X0194746Y0012982D01*
X0194685Y0013017D01*
X0194626Y0013056D01*
X0194569Y0013097D01*
X0194515Y0013142D01*
X0194463Y0013190D01*
X0194414Y0013240D01*
X0194367Y0013294D01*
X0194324Y0013349D01*
X0194284Y0013407D01*
X0194247Y0013467D01*
X0194214Y0013529D01*
X0194184Y0013593D01*
X0194157Y0013658D01*
X0194134Y0013724D01*
X0194115Y0013792D01*
X0194100Y0013861D01*
X0194088Y0013930D01*
X0194080Y0014000D01*
X0194076Y0014071D01*
X0194076Y0014141D01*
X0194080Y0014212D01*
X0194088Y0014282D01*
X0194100Y0014351D01*
X0194115Y0014420D01*
X0194134Y0014488D01*
X0194157Y0014554D01*
X0194184Y0014619D01*
X0194214Y0014683D01*
X0194247Y0014745D01*
X0194284Y0014805D01*
X0194324Y0014863D01*
X0194367Y0014918D01*
X0194414Y0014972D01*
X0194463Y0015022D01*
X0194515Y0015070D01*
X0194569Y0015115D01*
X0194626Y0015156D01*
X0194685Y0015195D01*
X0194746Y0015230D01*
X0194809Y0015262D01*
X0194873Y0015290D01*
X0194939Y0015315D01*
X0195006Y0015336D01*
X0195075Y0015353D01*
X0195144Y0015367D01*
X0195213Y0015376D01*
X0195284Y0015382D01*
X0195354Y0015384D01*
X0190628Y0010784D02*
X0190566Y0010786D01*
X0190505Y0010791D01*
X0190444Y0010801D01*
X0190383Y0010814D01*
X0190324Y0010830D01*
X0190266Y0010850D01*
X0190209Y0010874D01*
X0190153Y0010901D01*
X0190099Y0010931D01*
X0190047Y0010965D01*
X0189998Y0011001D01*
X0189950Y0011041D01*
X0189905Y0011083D01*
X0189863Y0011128D01*
X0189823Y0011176D01*
X0189787Y0011225D01*
X0189753Y0011277D01*
X0189723Y0011331D01*
X0189696Y0011387D01*
X0189672Y0011444D01*
X0189652Y0011502D01*
X0189636Y0011561D01*
X0189623Y0011622D01*
X0189613Y0011683D01*
X0189608Y0011744D01*
X0189606Y0011806D01*
X0190628Y0010784D02*
X0192161Y0010784D01*
X0260472Y0015384D02*
X0261749Y0010784D01*
X0264943Y0010784D02*
X0265965Y0012828D01*
X0266220Y0012828D02*
X0267498Y0012828D01*
X0266220Y0012828D02*
X0266150Y0012830D01*
X0266079Y0012836D01*
X0266010Y0012845D01*
X0265941Y0012859D01*
X0265872Y0012876D01*
X0265805Y0012897D01*
X0265739Y0012922D01*
X0265675Y0012950D01*
X0265612Y0012982D01*
X0265551Y0013017D01*
X0265492Y0013056D01*
X0265435Y0013097D01*
X0265381Y0013142D01*
X0265329Y0013190D01*
X0265280Y0013240D01*
X0265233Y0013294D01*
X0265190Y0013349D01*
X0265150Y0013407D01*
X0265113Y0013467D01*
X0265080Y0013529D01*
X0265050Y0013593D01*
X0265023Y0013658D01*
X0265000Y0013724D01*
X0264981Y0013792D01*
X0264966Y0013861D01*
X0264954Y0013930D01*
X0264946Y0014000D01*
X0264942Y0014071D01*
X0264942Y0014141D01*
X0264946Y0014212D01*
X0264954Y0014282D01*
X0264966Y0014351D01*
X0264981Y0014420D01*
X0265000Y0014488D01*
X0265023Y0014554D01*
X0265050Y0014619D01*
X0265080Y0014683D01*
X0265113Y0014745D01*
X0265150Y0014805D01*
X0265190Y0014863D01*
X0265233Y0014918D01*
X0265280Y0014972D01*
X0265329Y0015022D01*
X0265381Y0015070D01*
X0265435Y0015115D01*
X0265492Y0015156D01*
X0265551Y0015195D01*
X0265612Y0015230D01*
X0265675Y0015262D01*
X0265739Y0015290D01*
X0265805Y0015315D01*
X0265872Y0015336D01*
X0265941Y0015353D01*
X0266010Y0015367D01*
X0266079Y0015376D01*
X0266150Y0015382D01*
X0266220Y0015384D01*
X0267498Y0015384D01*
X0267498Y0010784D01*
X0263027Y0014873D02*
X0263027Y0015384D01*
X0260472Y0015384D01*
D12*
X0036827Y0011450D02*
X0036827Y0061056D01*
X0025016Y0061056D01*
X0021079Y0055938D01*
X0021079Y0016568D01*
X0025016Y0011450D01*
X0036827Y0011450D01*
M02*
