G75*
%MOIN*%
%OFA0B0*%
%FSLAX25Y25*%
%IPPOS*%
%LPD*%
%AMOC8*
5,1,8,0,0,1.08239X$1,22.5*
%
%ADD10C,0.00000*%
D10*
X0021079Y0005938D02*
X0351787Y0005938D01*
X0352072Y0005941D01*
X0352358Y0005952D01*
X0352643Y0005969D01*
X0352927Y0005993D01*
X0353211Y0006024D01*
X0353494Y0006062D01*
X0353775Y0006107D01*
X0354056Y0006158D01*
X0354336Y0006216D01*
X0354614Y0006281D01*
X0354890Y0006353D01*
X0355164Y0006431D01*
X0355437Y0006516D01*
X0355707Y0006608D01*
X0355975Y0006706D01*
X0356241Y0006810D01*
X0356504Y0006921D01*
X0356764Y0007038D01*
X0357022Y0007161D01*
X0357276Y0007291D01*
X0357527Y0007427D01*
X0357775Y0007568D01*
X0358019Y0007716D01*
X0358260Y0007869D01*
X0358496Y0008029D01*
X0358729Y0008194D01*
X0358958Y0008364D01*
X0359183Y0008540D01*
X0359403Y0008722D01*
X0359619Y0008908D01*
X0359830Y0009100D01*
X0360037Y0009297D01*
X0360239Y0009499D01*
X0360436Y0009706D01*
X0360628Y0009917D01*
X0360814Y0010133D01*
X0360996Y0010353D01*
X0361172Y0010578D01*
X0361342Y0010807D01*
X0361507Y0011040D01*
X0361667Y0011276D01*
X0361820Y0011517D01*
X0361968Y0011761D01*
X0362109Y0012009D01*
X0362245Y0012260D01*
X0362375Y0012514D01*
X0362498Y0012772D01*
X0362615Y0013032D01*
X0362726Y0013295D01*
X0362830Y0013561D01*
X0362928Y0013829D01*
X0363020Y0014099D01*
X0363105Y0014372D01*
X0363183Y0014646D01*
X0363255Y0014922D01*
X0363320Y0015200D01*
X0363378Y0015480D01*
X0363429Y0015761D01*
X0363474Y0016042D01*
X0363512Y0016325D01*
X0363543Y0016609D01*
X0363567Y0016893D01*
X0363584Y0017178D01*
X0363595Y0017464D01*
X0363598Y0017749D01*
X0363598Y0053182D01*
X0363598Y0053183D02*
X0363642Y0053516D01*
X0363677Y0053851D01*
X0363704Y0054186D01*
X0363724Y0054522D01*
X0363735Y0054858D01*
X0363738Y0055194D01*
X0363733Y0055530D01*
X0363720Y0055867D01*
X0363698Y0056202D01*
X0363669Y0056537D01*
X0363631Y0056872D01*
X0363586Y0057205D01*
X0363532Y0057537D01*
X0363470Y0057868D01*
X0363401Y0058197D01*
X0363323Y0058524D01*
X0363238Y0058849D01*
X0363144Y0059172D01*
X0363043Y0059493D01*
X0362935Y0059811D01*
X0362818Y0060127D01*
X0362694Y0060440D01*
X0362563Y0060749D01*
X0362424Y0061056D01*
X0362277Y0061358D01*
X0362124Y0061658D01*
X0361963Y0061953D01*
X0361795Y0062245D01*
X0361620Y0062532D01*
X0361438Y0062815D01*
X0361250Y0063093D01*
X0361054Y0063367D01*
X0360852Y0063636D01*
X0360644Y0063900D01*
X0360430Y0064159D01*
X0360209Y0064413D01*
X0359982Y0064662D01*
X0359749Y0064904D01*
X0359511Y0065142D01*
X0359266Y0065373D01*
X0359017Y0065598D01*
X0358762Y0065817D01*
X0358501Y0066030D01*
X0358236Y0066237D01*
X0357965Y0066437D01*
X0357690Y0066631D01*
X0357411Y0066817D01*
X0357127Y0066997D01*
X0356838Y0067171D01*
X0356546Y0067337D01*
X0356249Y0067496D01*
X0355949Y0067647D01*
X0355645Y0067792D01*
X0355338Y0067929D01*
X0355028Y0068059D01*
X0354714Y0068181D01*
X0354398Y0068295D01*
X0354079Y0068402D01*
X0353758Y0068501D01*
X0353434Y0068592D01*
X0353108Y0068676D01*
X0352780Y0068751D01*
X0352451Y0068819D01*
X0352120Y0068879D01*
X0351787Y0068930D01*
X0021079Y0068930D01*
X0020746Y0068879D01*
X0020415Y0068819D01*
X0020086Y0068751D01*
X0019758Y0068676D01*
X0019432Y0068592D01*
X0019108Y0068501D01*
X0018787Y0068402D01*
X0018468Y0068295D01*
X0018152Y0068181D01*
X0017838Y0068059D01*
X0017528Y0067929D01*
X0017221Y0067792D01*
X0016917Y0067647D01*
X0016617Y0067496D01*
X0016320Y0067337D01*
X0016028Y0067171D01*
X0015739Y0066997D01*
X0015455Y0066817D01*
X0015176Y0066631D01*
X0014901Y0066437D01*
X0014630Y0066237D01*
X0014365Y0066030D01*
X0014104Y0065817D01*
X0013849Y0065598D01*
X0013600Y0065373D01*
X0013355Y0065142D01*
X0013117Y0064904D01*
X0012884Y0064662D01*
X0012657Y0064413D01*
X0012436Y0064159D01*
X0012222Y0063900D01*
X0012014Y0063636D01*
X0011812Y0063367D01*
X0011616Y0063093D01*
X0011428Y0062815D01*
X0011246Y0062532D01*
X0011071Y0062245D01*
X0010903Y0061953D01*
X0010742Y0061658D01*
X0010589Y0061358D01*
X0010442Y0061056D01*
X0010303Y0060749D01*
X0010172Y0060440D01*
X0010048Y0060127D01*
X0009931Y0059811D01*
X0009823Y0059493D01*
X0009722Y0059172D01*
X0009628Y0058849D01*
X0009543Y0058524D01*
X0009465Y0058197D01*
X0009396Y0057868D01*
X0009334Y0057537D01*
X0009280Y0057205D01*
X0009235Y0056872D01*
X0009197Y0056537D01*
X0009168Y0056202D01*
X0009146Y0055867D01*
X0009133Y0055530D01*
X0009128Y0055194D01*
X0009131Y0054858D01*
X0009142Y0054522D01*
X0009162Y0054186D01*
X0009189Y0053851D01*
X0009224Y0053516D01*
X0009268Y0053183D01*
X0009268Y0053182D02*
X0009268Y0017749D01*
X0009271Y0017464D01*
X0009282Y0017178D01*
X0009299Y0016893D01*
X0009323Y0016609D01*
X0009354Y0016325D01*
X0009392Y0016042D01*
X0009437Y0015761D01*
X0009488Y0015480D01*
X0009546Y0015200D01*
X0009611Y0014922D01*
X0009683Y0014646D01*
X0009761Y0014372D01*
X0009846Y0014099D01*
X0009938Y0013829D01*
X0010036Y0013561D01*
X0010140Y0013295D01*
X0010251Y0013032D01*
X0010368Y0012772D01*
X0010491Y0012514D01*
X0010621Y0012260D01*
X0010757Y0012009D01*
X0010898Y0011761D01*
X0011046Y0011517D01*
X0011199Y0011276D01*
X0011359Y0011040D01*
X0011524Y0010807D01*
X0011694Y0010578D01*
X0011870Y0010353D01*
X0012052Y0010133D01*
X0012238Y0009917D01*
X0012430Y0009706D01*
X0012627Y0009499D01*
X0012829Y0009297D01*
X0013036Y0009100D01*
X0013247Y0008908D01*
X0013463Y0008722D01*
X0013683Y0008540D01*
X0013908Y0008364D01*
X0014137Y0008194D01*
X0014370Y0008029D01*
X0014606Y0007869D01*
X0014847Y0007716D01*
X0015091Y0007568D01*
X0015339Y0007427D01*
X0015590Y0007291D01*
X0015844Y0007161D01*
X0016102Y0007038D01*
X0016362Y0006921D01*
X0016625Y0006810D01*
X0016891Y0006706D01*
X0017159Y0006608D01*
X0017429Y0006516D01*
X0017702Y0006431D01*
X0017976Y0006353D01*
X0018252Y0006281D01*
X0018530Y0006216D01*
X0018810Y0006158D01*
X0019091Y0006107D01*
X0019372Y0006062D01*
X0019655Y0006024D01*
X0019939Y0005993D01*
X0020223Y0005969D01*
X0020508Y0005952D01*
X0020794Y0005941D01*
X0021079Y0005938D01*
X0042929Y0054363D02*
X0042931Y0054514D01*
X0042937Y0054664D01*
X0042947Y0054815D01*
X0042961Y0054965D01*
X0042979Y0055114D01*
X0043000Y0055264D01*
X0043026Y0055412D01*
X0043056Y0055560D01*
X0043089Y0055707D01*
X0043127Y0055853D01*
X0043168Y0055998D01*
X0043213Y0056142D01*
X0043262Y0056284D01*
X0043315Y0056425D01*
X0043371Y0056565D01*
X0043431Y0056703D01*
X0043494Y0056840D01*
X0043562Y0056975D01*
X0043632Y0057108D01*
X0043706Y0057239D01*
X0043784Y0057368D01*
X0043865Y0057495D01*
X0043949Y0057620D01*
X0044037Y0057743D01*
X0044128Y0057863D01*
X0044222Y0057981D01*
X0044319Y0058096D01*
X0044419Y0058209D01*
X0044522Y0058319D01*
X0044628Y0058426D01*
X0044737Y0058531D01*
X0044848Y0058632D01*
X0044962Y0058731D01*
X0045078Y0058826D01*
X0045198Y0058919D01*
X0045319Y0059008D01*
X0045443Y0059094D01*
X0045569Y0059177D01*
X0045697Y0059256D01*
X0045827Y0059332D01*
X0045959Y0059405D01*
X0046093Y0059473D01*
X0046229Y0059539D01*
X0046367Y0059601D01*
X0046506Y0059659D01*
X0046646Y0059713D01*
X0046788Y0059764D01*
X0046931Y0059811D01*
X0047076Y0059854D01*
X0047221Y0059893D01*
X0047368Y0059929D01*
X0047515Y0059960D01*
X0047663Y0059988D01*
X0047812Y0060012D01*
X0047961Y0060032D01*
X0048111Y0060048D01*
X0048261Y0060060D01*
X0048412Y0060068D01*
X0048563Y0060072D01*
X0048713Y0060072D01*
X0048864Y0060068D01*
X0049015Y0060060D01*
X0049165Y0060048D01*
X0049315Y0060032D01*
X0049464Y0060012D01*
X0049613Y0059988D01*
X0049761Y0059960D01*
X0049908Y0059929D01*
X0050055Y0059893D01*
X0050200Y0059854D01*
X0050345Y0059811D01*
X0050488Y0059764D01*
X0050630Y0059713D01*
X0050770Y0059659D01*
X0050909Y0059601D01*
X0051047Y0059539D01*
X0051183Y0059473D01*
X0051317Y0059405D01*
X0051449Y0059332D01*
X0051579Y0059256D01*
X0051707Y0059177D01*
X0051833Y0059094D01*
X0051957Y0059008D01*
X0052078Y0058919D01*
X0052198Y0058826D01*
X0052314Y0058731D01*
X0052428Y0058632D01*
X0052539Y0058531D01*
X0052648Y0058426D01*
X0052754Y0058319D01*
X0052857Y0058209D01*
X0052957Y0058096D01*
X0053054Y0057981D01*
X0053148Y0057863D01*
X0053239Y0057743D01*
X0053327Y0057620D01*
X0053411Y0057495D01*
X0053492Y0057368D01*
X0053570Y0057239D01*
X0053644Y0057108D01*
X0053714Y0056975D01*
X0053782Y0056840D01*
X0053845Y0056703D01*
X0053905Y0056565D01*
X0053961Y0056425D01*
X0054014Y0056284D01*
X0054063Y0056142D01*
X0054108Y0055998D01*
X0054149Y0055853D01*
X0054187Y0055707D01*
X0054220Y0055560D01*
X0054250Y0055412D01*
X0054276Y0055264D01*
X0054297Y0055114D01*
X0054315Y0054965D01*
X0054329Y0054815D01*
X0054339Y0054664D01*
X0054345Y0054514D01*
X0054347Y0054363D01*
X0054345Y0054212D01*
X0054339Y0054062D01*
X0054329Y0053911D01*
X0054315Y0053761D01*
X0054297Y0053612D01*
X0054276Y0053462D01*
X0054250Y0053314D01*
X0054220Y0053166D01*
X0054187Y0053019D01*
X0054149Y0052873D01*
X0054108Y0052728D01*
X0054063Y0052584D01*
X0054014Y0052442D01*
X0053961Y0052301D01*
X0053905Y0052161D01*
X0053845Y0052023D01*
X0053782Y0051886D01*
X0053714Y0051751D01*
X0053644Y0051618D01*
X0053570Y0051487D01*
X0053492Y0051358D01*
X0053411Y0051231D01*
X0053327Y0051106D01*
X0053239Y0050983D01*
X0053148Y0050863D01*
X0053054Y0050745D01*
X0052957Y0050630D01*
X0052857Y0050517D01*
X0052754Y0050407D01*
X0052648Y0050300D01*
X0052539Y0050195D01*
X0052428Y0050094D01*
X0052314Y0049995D01*
X0052198Y0049900D01*
X0052078Y0049807D01*
X0051957Y0049718D01*
X0051833Y0049632D01*
X0051707Y0049549D01*
X0051579Y0049470D01*
X0051449Y0049394D01*
X0051317Y0049321D01*
X0051183Y0049253D01*
X0051047Y0049187D01*
X0050909Y0049125D01*
X0050770Y0049067D01*
X0050630Y0049013D01*
X0050488Y0048962D01*
X0050345Y0048915D01*
X0050200Y0048872D01*
X0050055Y0048833D01*
X0049908Y0048797D01*
X0049761Y0048766D01*
X0049613Y0048738D01*
X0049464Y0048714D01*
X0049315Y0048694D01*
X0049165Y0048678D01*
X0049015Y0048666D01*
X0048864Y0048658D01*
X0048713Y0048654D01*
X0048563Y0048654D01*
X0048412Y0048658D01*
X0048261Y0048666D01*
X0048111Y0048678D01*
X0047961Y0048694D01*
X0047812Y0048714D01*
X0047663Y0048738D01*
X0047515Y0048766D01*
X0047368Y0048797D01*
X0047221Y0048833D01*
X0047076Y0048872D01*
X0046931Y0048915D01*
X0046788Y0048962D01*
X0046646Y0049013D01*
X0046506Y0049067D01*
X0046367Y0049125D01*
X0046229Y0049187D01*
X0046093Y0049253D01*
X0045959Y0049321D01*
X0045827Y0049394D01*
X0045697Y0049470D01*
X0045569Y0049549D01*
X0045443Y0049632D01*
X0045319Y0049718D01*
X0045198Y0049807D01*
X0045078Y0049900D01*
X0044962Y0049995D01*
X0044848Y0050094D01*
X0044737Y0050195D01*
X0044628Y0050300D01*
X0044522Y0050407D01*
X0044419Y0050517D01*
X0044319Y0050630D01*
X0044222Y0050745D01*
X0044128Y0050863D01*
X0044037Y0050983D01*
X0043949Y0051106D01*
X0043865Y0051231D01*
X0043784Y0051358D01*
X0043706Y0051487D01*
X0043632Y0051618D01*
X0043562Y0051751D01*
X0043494Y0051886D01*
X0043431Y0052023D01*
X0043371Y0052161D01*
X0043315Y0052301D01*
X0043262Y0052442D01*
X0043213Y0052584D01*
X0043168Y0052728D01*
X0043127Y0052873D01*
X0043089Y0053019D01*
X0043056Y0053166D01*
X0043026Y0053314D01*
X0043000Y0053462D01*
X0042979Y0053612D01*
X0042961Y0053761D01*
X0042947Y0053911D01*
X0042937Y0054062D01*
X0042931Y0054212D01*
X0042929Y0054363D01*
X0176000Y0054363D02*
X0176002Y0054524D01*
X0176008Y0054684D01*
X0176018Y0054845D01*
X0176032Y0055005D01*
X0176050Y0055164D01*
X0176071Y0055324D01*
X0176097Y0055482D01*
X0176127Y0055640D01*
X0176160Y0055797D01*
X0176198Y0055954D01*
X0176239Y0056109D01*
X0176284Y0056263D01*
X0176333Y0056416D01*
X0176386Y0056568D01*
X0176442Y0056718D01*
X0176502Y0056867D01*
X0176566Y0057015D01*
X0176633Y0057161D01*
X0176704Y0057305D01*
X0176779Y0057447D01*
X0176857Y0057588D01*
X0176938Y0057726D01*
X0177023Y0057863D01*
X0177112Y0057997D01*
X0177203Y0058129D01*
X0177298Y0058259D01*
X0177396Y0058386D01*
X0177497Y0058511D01*
X0177601Y0058634D01*
X0177708Y0058753D01*
X0177818Y0058870D01*
X0177931Y0058985D01*
X0178047Y0059096D01*
X0178165Y0059205D01*
X0178286Y0059310D01*
X0178410Y0059413D01*
X0178536Y0059513D01*
X0178665Y0059609D01*
X0178796Y0059702D01*
X0178929Y0059792D01*
X0179064Y0059879D01*
X0179202Y0059962D01*
X0179341Y0060041D01*
X0179483Y0060118D01*
X0179626Y0060191D01*
X0179771Y0060260D01*
X0179918Y0060325D01*
X0180066Y0060387D01*
X0180216Y0060446D01*
X0180367Y0060500D01*
X0180519Y0060551D01*
X0180673Y0060598D01*
X0180828Y0060641D01*
X0180983Y0060680D01*
X0181140Y0060716D01*
X0181298Y0060748D01*
X0181456Y0060775D01*
X0181615Y0060799D01*
X0181774Y0060819D01*
X0181934Y0060835D01*
X0182095Y0060847D01*
X0182255Y0060855D01*
X0182416Y0060859D01*
X0182576Y0060859D01*
X0182737Y0060855D01*
X0182897Y0060847D01*
X0183058Y0060835D01*
X0183218Y0060819D01*
X0183377Y0060799D01*
X0183536Y0060775D01*
X0183694Y0060748D01*
X0183852Y0060716D01*
X0184009Y0060680D01*
X0184164Y0060641D01*
X0184319Y0060598D01*
X0184473Y0060551D01*
X0184625Y0060500D01*
X0184776Y0060446D01*
X0184926Y0060387D01*
X0185074Y0060325D01*
X0185221Y0060260D01*
X0185366Y0060191D01*
X0185509Y0060118D01*
X0185651Y0060041D01*
X0185790Y0059962D01*
X0185928Y0059879D01*
X0186063Y0059792D01*
X0186196Y0059702D01*
X0186327Y0059609D01*
X0186456Y0059513D01*
X0186582Y0059413D01*
X0186706Y0059310D01*
X0186827Y0059205D01*
X0186945Y0059096D01*
X0187061Y0058985D01*
X0187174Y0058870D01*
X0187284Y0058753D01*
X0187391Y0058634D01*
X0187495Y0058511D01*
X0187596Y0058386D01*
X0187694Y0058259D01*
X0187789Y0058129D01*
X0187880Y0057997D01*
X0187969Y0057863D01*
X0188054Y0057726D01*
X0188135Y0057588D01*
X0188213Y0057447D01*
X0188288Y0057305D01*
X0188359Y0057161D01*
X0188426Y0057015D01*
X0188490Y0056867D01*
X0188550Y0056718D01*
X0188606Y0056568D01*
X0188659Y0056416D01*
X0188708Y0056263D01*
X0188753Y0056109D01*
X0188794Y0055954D01*
X0188832Y0055797D01*
X0188865Y0055640D01*
X0188895Y0055482D01*
X0188921Y0055324D01*
X0188942Y0055164D01*
X0188960Y0055005D01*
X0188974Y0054845D01*
X0188984Y0054684D01*
X0188990Y0054524D01*
X0188992Y0054363D01*
X0188990Y0054202D01*
X0188984Y0054042D01*
X0188974Y0053881D01*
X0188960Y0053721D01*
X0188942Y0053562D01*
X0188921Y0053402D01*
X0188895Y0053244D01*
X0188865Y0053086D01*
X0188832Y0052929D01*
X0188794Y0052772D01*
X0188753Y0052617D01*
X0188708Y0052463D01*
X0188659Y0052310D01*
X0188606Y0052158D01*
X0188550Y0052008D01*
X0188490Y0051859D01*
X0188426Y0051711D01*
X0188359Y0051565D01*
X0188288Y0051421D01*
X0188213Y0051279D01*
X0188135Y0051138D01*
X0188054Y0051000D01*
X0187969Y0050863D01*
X0187880Y0050729D01*
X0187789Y0050597D01*
X0187694Y0050467D01*
X0187596Y0050340D01*
X0187495Y0050215D01*
X0187391Y0050092D01*
X0187284Y0049973D01*
X0187174Y0049856D01*
X0187061Y0049741D01*
X0186945Y0049630D01*
X0186827Y0049521D01*
X0186706Y0049416D01*
X0186582Y0049313D01*
X0186456Y0049213D01*
X0186327Y0049117D01*
X0186196Y0049024D01*
X0186063Y0048934D01*
X0185928Y0048847D01*
X0185790Y0048764D01*
X0185651Y0048685D01*
X0185509Y0048608D01*
X0185366Y0048535D01*
X0185221Y0048466D01*
X0185074Y0048401D01*
X0184926Y0048339D01*
X0184776Y0048280D01*
X0184625Y0048226D01*
X0184473Y0048175D01*
X0184319Y0048128D01*
X0184164Y0048085D01*
X0184009Y0048046D01*
X0183852Y0048010D01*
X0183694Y0047978D01*
X0183536Y0047951D01*
X0183377Y0047927D01*
X0183218Y0047907D01*
X0183058Y0047891D01*
X0182897Y0047879D01*
X0182737Y0047871D01*
X0182576Y0047867D01*
X0182416Y0047867D01*
X0182255Y0047871D01*
X0182095Y0047879D01*
X0181934Y0047891D01*
X0181774Y0047907D01*
X0181615Y0047927D01*
X0181456Y0047951D01*
X0181298Y0047978D01*
X0181140Y0048010D01*
X0180983Y0048046D01*
X0180828Y0048085D01*
X0180673Y0048128D01*
X0180519Y0048175D01*
X0180367Y0048226D01*
X0180216Y0048280D01*
X0180066Y0048339D01*
X0179918Y0048401D01*
X0179771Y0048466D01*
X0179626Y0048535D01*
X0179483Y0048608D01*
X0179341Y0048685D01*
X0179202Y0048764D01*
X0179064Y0048847D01*
X0178929Y0048934D01*
X0178796Y0049024D01*
X0178665Y0049117D01*
X0178536Y0049213D01*
X0178410Y0049313D01*
X0178286Y0049416D01*
X0178165Y0049521D01*
X0178047Y0049630D01*
X0177931Y0049741D01*
X0177818Y0049856D01*
X0177708Y0049973D01*
X0177601Y0050092D01*
X0177497Y0050215D01*
X0177396Y0050340D01*
X0177298Y0050467D01*
X0177203Y0050597D01*
X0177112Y0050729D01*
X0177023Y0050863D01*
X0176938Y0051000D01*
X0176857Y0051138D01*
X0176779Y0051279D01*
X0176704Y0051421D01*
X0176633Y0051565D01*
X0176566Y0051711D01*
X0176502Y0051859D01*
X0176442Y0052008D01*
X0176386Y0052158D01*
X0176333Y0052310D01*
X0176284Y0052463D01*
X0176239Y0052617D01*
X0176198Y0052772D01*
X0176160Y0052929D01*
X0176127Y0053086D01*
X0176097Y0053244D01*
X0176071Y0053402D01*
X0176050Y0053562D01*
X0176032Y0053721D01*
X0176018Y0053881D01*
X0176008Y0054042D01*
X0176002Y0054202D01*
X0176000Y0054363D01*
X0318913Y0054363D02*
X0318915Y0054524D01*
X0318921Y0054684D01*
X0318931Y0054845D01*
X0318945Y0055005D01*
X0318963Y0055164D01*
X0318984Y0055324D01*
X0319010Y0055482D01*
X0319040Y0055640D01*
X0319073Y0055797D01*
X0319111Y0055954D01*
X0319152Y0056109D01*
X0319197Y0056263D01*
X0319246Y0056416D01*
X0319299Y0056568D01*
X0319355Y0056718D01*
X0319415Y0056867D01*
X0319479Y0057015D01*
X0319546Y0057161D01*
X0319617Y0057305D01*
X0319692Y0057447D01*
X0319770Y0057588D01*
X0319851Y0057726D01*
X0319936Y0057863D01*
X0320025Y0057997D01*
X0320116Y0058129D01*
X0320211Y0058259D01*
X0320309Y0058386D01*
X0320410Y0058511D01*
X0320514Y0058634D01*
X0320621Y0058753D01*
X0320731Y0058870D01*
X0320844Y0058985D01*
X0320960Y0059096D01*
X0321078Y0059205D01*
X0321199Y0059310D01*
X0321323Y0059413D01*
X0321449Y0059513D01*
X0321578Y0059609D01*
X0321709Y0059702D01*
X0321842Y0059792D01*
X0321977Y0059879D01*
X0322115Y0059962D01*
X0322254Y0060041D01*
X0322396Y0060118D01*
X0322539Y0060191D01*
X0322684Y0060260D01*
X0322831Y0060325D01*
X0322979Y0060387D01*
X0323129Y0060446D01*
X0323280Y0060500D01*
X0323432Y0060551D01*
X0323586Y0060598D01*
X0323741Y0060641D01*
X0323896Y0060680D01*
X0324053Y0060716D01*
X0324211Y0060748D01*
X0324369Y0060775D01*
X0324528Y0060799D01*
X0324687Y0060819D01*
X0324847Y0060835D01*
X0325008Y0060847D01*
X0325168Y0060855D01*
X0325329Y0060859D01*
X0325489Y0060859D01*
X0325650Y0060855D01*
X0325810Y0060847D01*
X0325971Y0060835D01*
X0326131Y0060819D01*
X0326290Y0060799D01*
X0326449Y0060775D01*
X0326607Y0060748D01*
X0326765Y0060716D01*
X0326922Y0060680D01*
X0327077Y0060641D01*
X0327232Y0060598D01*
X0327386Y0060551D01*
X0327538Y0060500D01*
X0327689Y0060446D01*
X0327839Y0060387D01*
X0327987Y0060325D01*
X0328134Y0060260D01*
X0328279Y0060191D01*
X0328422Y0060118D01*
X0328564Y0060041D01*
X0328703Y0059962D01*
X0328841Y0059879D01*
X0328976Y0059792D01*
X0329109Y0059702D01*
X0329240Y0059609D01*
X0329369Y0059513D01*
X0329495Y0059413D01*
X0329619Y0059310D01*
X0329740Y0059205D01*
X0329858Y0059096D01*
X0329974Y0058985D01*
X0330087Y0058870D01*
X0330197Y0058753D01*
X0330304Y0058634D01*
X0330408Y0058511D01*
X0330509Y0058386D01*
X0330607Y0058259D01*
X0330702Y0058129D01*
X0330793Y0057997D01*
X0330882Y0057863D01*
X0330967Y0057726D01*
X0331048Y0057588D01*
X0331126Y0057447D01*
X0331201Y0057305D01*
X0331272Y0057161D01*
X0331339Y0057015D01*
X0331403Y0056867D01*
X0331463Y0056718D01*
X0331519Y0056568D01*
X0331572Y0056416D01*
X0331621Y0056263D01*
X0331666Y0056109D01*
X0331707Y0055954D01*
X0331745Y0055797D01*
X0331778Y0055640D01*
X0331808Y0055482D01*
X0331834Y0055324D01*
X0331855Y0055164D01*
X0331873Y0055005D01*
X0331887Y0054845D01*
X0331897Y0054684D01*
X0331903Y0054524D01*
X0331905Y0054363D01*
X0331903Y0054202D01*
X0331897Y0054042D01*
X0331887Y0053881D01*
X0331873Y0053721D01*
X0331855Y0053562D01*
X0331834Y0053402D01*
X0331808Y0053244D01*
X0331778Y0053086D01*
X0331745Y0052929D01*
X0331707Y0052772D01*
X0331666Y0052617D01*
X0331621Y0052463D01*
X0331572Y0052310D01*
X0331519Y0052158D01*
X0331463Y0052008D01*
X0331403Y0051859D01*
X0331339Y0051711D01*
X0331272Y0051565D01*
X0331201Y0051421D01*
X0331126Y0051279D01*
X0331048Y0051138D01*
X0330967Y0051000D01*
X0330882Y0050863D01*
X0330793Y0050729D01*
X0330702Y0050597D01*
X0330607Y0050467D01*
X0330509Y0050340D01*
X0330408Y0050215D01*
X0330304Y0050092D01*
X0330197Y0049973D01*
X0330087Y0049856D01*
X0329974Y0049741D01*
X0329858Y0049630D01*
X0329740Y0049521D01*
X0329619Y0049416D01*
X0329495Y0049313D01*
X0329369Y0049213D01*
X0329240Y0049117D01*
X0329109Y0049024D01*
X0328976Y0048934D01*
X0328841Y0048847D01*
X0328703Y0048764D01*
X0328564Y0048685D01*
X0328422Y0048608D01*
X0328279Y0048535D01*
X0328134Y0048466D01*
X0327987Y0048401D01*
X0327839Y0048339D01*
X0327689Y0048280D01*
X0327538Y0048226D01*
X0327386Y0048175D01*
X0327232Y0048128D01*
X0327077Y0048085D01*
X0326922Y0048046D01*
X0326765Y0048010D01*
X0326607Y0047978D01*
X0326449Y0047951D01*
X0326290Y0047927D01*
X0326131Y0047907D01*
X0325971Y0047891D01*
X0325810Y0047879D01*
X0325650Y0047871D01*
X0325489Y0047867D01*
X0325329Y0047867D01*
X0325168Y0047871D01*
X0325008Y0047879D01*
X0324847Y0047891D01*
X0324687Y0047907D01*
X0324528Y0047927D01*
X0324369Y0047951D01*
X0324211Y0047978D01*
X0324053Y0048010D01*
X0323896Y0048046D01*
X0323741Y0048085D01*
X0323586Y0048128D01*
X0323432Y0048175D01*
X0323280Y0048226D01*
X0323129Y0048280D01*
X0322979Y0048339D01*
X0322831Y0048401D01*
X0322684Y0048466D01*
X0322539Y0048535D01*
X0322396Y0048608D01*
X0322254Y0048685D01*
X0322115Y0048764D01*
X0321977Y0048847D01*
X0321842Y0048934D01*
X0321709Y0049024D01*
X0321578Y0049117D01*
X0321449Y0049213D01*
X0321323Y0049313D01*
X0321199Y0049416D01*
X0321078Y0049521D01*
X0320960Y0049630D01*
X0320844Y0049741D01*
X0320731Y0049856D01*
X0320621Y0049973D01*
X0320514Y0050092D01*
X0320410Y0050215D01*
X0320309Y0050340D01*
X0320211Y0050467D01*
X0320116Y0050597D01*
X0320025Y0050729D01*
X0319936Y0050863D01*
X0319851Y0051000D01*
X0319770Y0051138D01*
X0319692Y0051279D01*
X0319617Y0051421D01*
X0319546Y0051565D01*
X0319479Y0051711D01*
X0319415Y0051859D01*
X0319355Y0052008D01*
X0319299Y0052158D01*
X0319246Y0052310D01*
X0319197Y0052463D01*
X0319152Y0052617D01*
X0319111Y0052772D01*
X0319073Y0052929D01*
X0319040Y0053086D01*
X0319010Y0053244D01*
X0318984Y0053402D01*
X0318963Y0053562D01*
X0318945Y0053721D01*
X0318931Y0053881D01*
X0318921Y0054042D01*
X0318915Y0054202D01*
X0318913Y0054363D01*
M02*
