%
M48
M72
T01C0.01378
T02C0.03543
T03C0.11417
T04C0.12992
%
T01
X56512Y35859
X127378Y35859
X198244Y35859
X269110Y35859
X339976Y34285
X347850Y34285
X355724Y40190
X349031Y42552
X350311Y16962
T02
X70291Y24442
X80134Y24442
X89976Y24442
X141157Y24442
X151000Y24442
X160843Y24442
X212024Y24442
X221866Y24442
X231709Y24442
X282890Y24442
X292732Y24442
X302575Y24442
X302575Y48064
X292732Y48064
X282890Y48064
X231709Y48064
X221866Y48064
X212024Y48064
X160843Y48064
X151000Y48064
X141157Y48064
X89976Y48064
X80134Y48064
X70291Y48064
T03
X48638Y54363
T04
X182496Y54363
X325409Y54363
M30
