%
M48
M72
T01C0.01200
T02C0.01378
T03C0.01575
T04C0.03150
T05C0.03600
T06C0.03937
T07C0.04000
T08C0.05118
T09C0.11417
%
T01
X75713Y53927
X89689Y74400
X94413Y85620
X101106Y85620
X99335Y96053
X93232Y95660
X94981Y106903
X88780Y109955
X92051Y113231
X103272Y113179
X104434Y107274
X104059Y101171
X106717Y98022
X120791Y96644
X128862Y106683
X132406Y104321
X142642Y96368
X139295Y94085
X142642Y89360
X144413Y85817
X145300Y81683
X149925Y86014
X152287Y82864
X153862Y86211
X173744Y90116
X174531Y93494
X178075Y94675
X181959Y89164
X184446Y91454
X188114Y92646
X197563Y96447
X197563Y84242
X206224Y78534
X213902Y78731
X214886Y86211
X219610Y86605
X214886Y96447
X210555Y96447
X197169Y111801
X190476Y107077
X185161Y108652
X182406Y111408
X181571Y114786
X178862Y117068
X181151Y119556
X178657Y121839
X171185Y129124
X173890Y131829
X177803Y131018
X177287Y134636
X181421Y134636
X178665Y147825
X180956Y150312
X178469Y152943
X181028Y155305
X171579Y159636
X169907Y156783
X167973Y159502
X163780Y156412
X165476Y169872
X169217Y170069
X166264Y176762
X166854Y184636
X153862Y194872
X145637Y193136
X144535Y189068
X141967Y186858
X139146Y193101
X132799Y188011
X135358Y184293
X136343Y181093
X138311Y177746
X128665Y180896
X125909Y178731
X123271Y169761
X126584Y168297
X122563Y160423
X119807Y153731
X113311Y143101
X107799Y149203
X105437Y151762
X103075Y149203
X100713Y151762
X94413Y148809
X90870Y148809
X82799Y152943
X69807Y171250
X64295Y171841
X48744Y192510
X51697Y199400
X42051Y202156
X37130Y202156
X59768Y217116
X63705Y216920
X67591Y216920
X70791Y215738
X67248Y202549
X64886Y199400
X54059Y230385
X43035Y237589
X37917Y234045
X36736Y260423
X36933Y275187
X48744Y275187
X55634Y265738
X78735Y259636
X80831Y255137
X81421Y249400
X80240Y239754
X80240Y233525
X64559Y234846
X92248Y252943
X82799Y263967
X79846Y266723
X108193Y263967
X115673Y271250
X131421Y271250
X132799Y263967
X129846Y261211
X138311Y252943
X135555Y245660
X141657Y237195
X156421Y230385
X162327Y212983
X156224Y208455
X171077Y214360
X184374Y220660
X200122Y237195
X207602Y230385
X217839Y235227
X220594Y238376
X227484Y233455
X237917Y233455
X243232Y235030
X245594Y230896
X258783Y230385
X236216Y245660
X245791Y252943
X237130Y263967
X233783Y261408
X233783Y271250
X210161Y271250
X210161Y263967
X194610Y252943
X186736Y245660
X181224Y260227
X182012Y263967
X186539Y271250
X158980Y263967
X155043Y271250
X127484Y237983
X114098Y233849
X105240Y230385
X94315Y234833
X126303Y200975
X127821Y197327
X128862Y193494
X111736Y176762
X110358Y171644
X99689Y181447
X135593Y153550
X140280Y157077
X143823Y154883
X143823Y159636
X150483Y172713
X176697Y170149
X191264Y184636
X225909Y145266
X233155Y140021
X230872Y137527
X235438Y137527
X237720Y140021
X221579Y133849
X202681Y126565
X199303Y126542
X197169Y129185
X210949Y116329
X231224Y97628
X228744Y94085
X233918Y90282
X231618Y73416
X228075Y66723
X216854Y57864
X235555Y42904
X231618Y28731
X249335Y28731
X252687Y23616
X272563Y55502
X285161Y63967
X275713Y71644
X269020Y71644
X242248Y61998
X214295Y31486
X196776Y34242
X196382Y37589
X196382Y40789
X183783Y32274
X175909Y35423
X170594Y37589
X154059Y45069
X140870Y39754
X140870Y51368
X121185Y64951
X115673Y67145
X103862Y67145
X102681Y46250
X147760Y29518
X191854Y69872
X159965Y108966
X156421Y108243
X163343Y110353
X166720Y111741
X170098Y111591
X174335Y110817
X166854Y129518
X157799Y130502
X151106Y126594
X144807Y128337
X147169Y131036
X137327Y127775
X64492Y131261
X59346Y133455
X55437Y99990
X48350Y75187
X261343Y263967
X261343Y271250
X281028Y271250
X282602Y260030
X265673Y194872
X284965Y179715
X285161Y150187
X281224Y135030
T02
X125909Y174990
X122773Y188646
T03
X140673Y63573
X214295Y39360
X215673Y43297
X254846Y53534
X262720Y60423
X282012Y67904
X282012Y75778
X271382Y23612
X276894Y138179
X271382Y139360
X276894Y160620
T04
X122996Y41250
X122996Y33376
X115122Y33376
X107248Y33376
X107248Y41250
X115122Y41250
X99374Y41250
X99374Y33376
X91500Y33376
X91500Y41250
X83626Y41250
X83626Y33376
X75752Y33376
X67878Y33376
X67878Y41250
X75752Y41250
X60004Y41250
X60004Y33376
X52130Y33376
X52130Y41250
T05
X35358Y38416
X35358Y48416
X35358Y58416
X38587Y133652
X28587Y133652
X207524Y184242
X217524Y184242
X217563Y203140
X227563Y203140
X237563Y203140
X207563Y203140
X235122Y153534
X245122Y153534
X255122Y153534
X265122Y153534
X301697Y185975
X301697Y195975
X301697Y205975
X301697Y215975
X228744Y107077
X218744Y107077
T06
X210161Y255108
X210161Y278731
X158980Y278731
X158980Y255108
X107799Y255108
X107799Y278731
X56618Y278731
X56618Y255108
X261343Y255108
X261343Y278731
T07
X262720Y130857
X262720Y120857
X262720Y110857
X262720Y96683
X262720Y86683
X262720Y76683
X262720Y66683
T08
X127720Y21171
T09
X17248Y31093
X17248Y275187
X300713Y275187
X300713Y31093
M30
