G75*
%MOIN*%
%OFA0B0*%
%FSLAX25Y25*%
%IPPOS*%
%LPD*%
%AMOC8*
5,1,8,0,0,1.08239X$1,22.5*
%
%ADD10C,0.00000*%
%ADD11C,0.00600*%
D10*
X0017248Y0015345D02*
X0300713Y0015345D01*
X0295004Y0031093D02*
X0295006Y0031244D01*
X0295012Y0031394D01*
X0295022Y0031545D01*
X0295036Y0031695D01*
X0295054Y0031844D01*
X0295075Y0031994D01*
X0295101Y0032142D01*
X0295131Y0032290D01*
X0295164Y0032437D01*
X0295202Y0032583D01*
X0295243Y0032728D01*
X0295288Y0032872D01*
X0295337Y0033014D01*
X0295390Y0033155D01*
X0295446Y0033295D01*
X0295506Y0033433D01*
X0295569Y0033570D01*
X0295637Y0033705D01*
X0295707Y0033838D01*
X0295781Y0033969D01*
X0295859Y0034098D01*
X0295940Y0034225D01*
X0296024Y0034350D01*
X0296112Y0034473D01*
X0296203Y0034593D01*
X0296297Y0034711D01*
X0296394Y0034826D01*
X0296494Y0034939D01*
X0296597Y0035049D01*
X0296703Y0035156D01*
X0296812Y0035261D01*
X0296923Y0035362D01*
X0297037Y0035461D01*
X0297153Y0035556D01*
X0297273Y0035649D01*
X0297394Y0035738D01*
X0297518Y0035824D01*
X0297644Y0035907D01*
X0297772Y0035986D01*
X0297902Y0036062D01*
X0298034Y0036135D01*
X0298168Y0036203D01*
X0298304Y0036269D01*
X0298442Y0036331D01*
X0298581Y0036389D01*
X0298721Y0036443D01*
X0298863Y0036494D01*
X0299006Y0036541D01*
X0299151Y0036584D01*
X0299296Y0036623D01*
X0299443Y0036659D01*
X0299590Y0036690D01*
X0299738Y0036718D01*
X0299887Y0036742D01*
X0300036Y0036762D01*
X0300186Y0036778D01*
X0300336Y0036790D01*
X0300487Y0036798D01*
X0300638Y0036802D01*
X0300788Y0036802D01*
X0300939Y0036798D01*
X0301090Y0036790D01*
X0301240Y0036778D01*
X0301390Y0036762D01*
X0301539Y0036742D01*
X0301688Y0036718D01*
X0301836Y0036690D01*
X0301983Y0036659D01*
X0302130Y0036623D01*
X0302275Y0036584D01*
X0302420Y0036541D01*
X0302563Y0036494D01*
X0302705Y0036443D01*
X0302845Y0036389D01*
X0302984Y0036331D01*
X0303122Y0036269D01*
X0303258Y0036203D01*
X0303392Y0036135D01*
X0303524Y0036062D01*
X0303654Y0035986D01*
X0303782Y0035907D01*
X0303908Y0035824D01*
X0304032Y0035738D01*
X0304153Y0035649D01*
X0304273Y0035556D01*
X0304389Y0035461D01*
X0304503Y0035362D01*
X0304614Y0035261D01*
X0304723Y0035156D01*
X0304829Y0035049D01*
X0304932Y0034939D01*
X0305032Y0034826D01*
X0305129Y0034711D01*
X0305223Y0034593D01*
X0305314Y0034473D01*
X0305402Y0034350D01*
X0305486Y0034225D01*
X0305567Y0034098D01*
X0305645Y0033969D01*
X0305719Y0033838D01*
X0305789Y0033705D01*
X0305857Y0033570D01*
X0305920Y0033433D01*
X0305980Y0033295D01*
X0306036Y0033155D01*
X0306089Y0033014D01*
X0306138Y0032872D01*
X0306183Y0032728D01*
X0306224Y0032583D01*
X0306262Y0032437D01*
X0306295Y0032290D01*
X0306325Y0032142D01*
X0306351Y0031994D01*
X0306372Y0031844D01*
X0306390Y0031695D01*
X0306404Y0031545D01*
X0306414Y0031394D01*
X0306420Y0031244D01*
X0306422Y0031093D01*
X0306420Y0030942D01*
X0306414Y0030792D01*
X0306404Y0030641D01*
X0306390Y0030491D01*
X0306372Y0030342D01*
X0306351Y0030192D01*
X0306325Y0030044D01*
X0306295Y0029896D01*
X0306262Y0029749D01*
X0306224Y0029603D01*
X0306183Y0029458D01*
X0306138Y0029314D01*
X0306089Y0029172D01*
X0306036Y0029031D01*
X0305980Y0028891D01*
X0305920Y0028753D01*
X0305857Y0028616D01*
X0305789Y0028481D01*
X0305719Y0028348D01*
X0305645Y0028217D01*
X0305567Y0028088D01*
X0305486Y0027961D01*
X0305402Y0027836D01*
X0305314Y0027713D01*
X0305223Y0027593D01*
X0305129Y0027475D01*
X0305032Y0027360D01*
X0304932Y0027247D01*
X0304829Y0027137D01*
X0304723Y0027030D01*
X0304614Y0026925D01*
X0304503Y0026824D01*
X0304389Y0026725D01*
X0304273Y0026630D01*
X0304153Y0026537D01*
X0304032Y0026448D01*
X0303908Y0026362D01*
X0303782Y0026279D01*
X0303654Y0026200D01*
X0303524Y0026124D01*
X0303392Y0026051D01*
X0303258Y0025983D01*
X0303122Y0025917D01*
X0302984Y0025855D01*
X0302845Y0025797D01*
X0302705Y0025743D01*
X0302563Y0025692D01*
X0302420Y0025645D01*
X0302275Y0025602D01*
X0302130Y0025563D01*
X0301983Y0025527D01*
X0301836Y0025496D01*
X0301688Y0025468D01*
X0301539Y0025444D01*
X0301390Y0025424D01*
X0301240Y0025408D01*
X0301090Y0025396D01*
X0300939Y0025388D01*
X0300788Y0025384D01*
X0300638Y0025384D01*
X0300487Y0025388D01*
X0300336Y0025396D01*
X0300186Y0025408D01*
X0300036Y0025424D01*
X0299887Y0025444D01*
X0299738Y0025468D01*
X0299590Y0025496D01*
X0299443Y0025527D01*
X0299296Y0025563D01*
X0299151Y0025602D01*
X0299006Y0025645D01*
X0298863Y0025692D01*
X0298721Y0025743D01*
X0298581Y0025797D01*
X0298442Y0025855D01*
X0298304Y0025917D01*
X0298168Y0025983D01*
X0298034Y0026051D01*
X0297902Y0026124D01*
X0297772Y0026200D01*
X0297644Y0026279D01*
X0297518Y0026362D01*
X0297394Y0026448D01*
X0297273Y0026537D01*
X0297153Y0026630D01*
X0297037Y0026725D01*
X0296923Y0026824D01*
X0296812Y0026925D01*
X0296703Y0027030D01*
X0296597Y0027137D01*
X0296494Y0027247D01*
X0296394Y0027360D01*
X0296297Y0027475D01*
X0296203Y0027593D01*
X0296112Y0027713D01*
X0296024Y0027836D01*
X0295940Y0027961D01*
X0295859Y0028088D01*
X0295781Y0028217D01*
X0295707Y0028348D01*
X0295637Y0028481D01*
X0295569Y0028616D01*
X0295506Y0028753D01*
X0295446Y0028891D01*
X0295390Y0029031D01*
X0295337Y0029172D01*
X0295288Y0029314D01*
X0295243Y0029458D01*
X0295202Y0029603D01*
X0295164Y0029749D01*
X0295131Y0029896D01*
X0295101Y0030044D01*
X0295075Y0030192D01*
X0295054Y0030342D01*
X0295036Y0030491D01*
X0295022Y0030641D01*
X0295012Y0030792D01*
X0295006Y0030942D01*
X0295004Y0031093D01*
X0300713Y0015345D02*
X0301094Y0015350D01*
X0301474Y0015363D01*
X0301854Y0015386D01*
X0302233Y0015419D01*
X0302611Y0015460D01*
X0302988Y0015510D01*
X0303364Y0015570D01*
X0303739Y0015638D01*
X0304111Y0015716D01*
X0304482Y0015803D01*
X0304850Y0015898D01*
X0305216Y0016003D01*
X0305579Y0016116D01*
X0305940Y0016238D01*
X0306297Y0016368D01*
X0306651Y0016508D01*
X0307002Y0016655D01*
X0307349Y0016812D01*
X0307692Y0016976D01*
X0308031Y0017149D01*
X0308366Y0017330D01*
X0308697Y0017519D01*
X0309022Y0017716D01*
X0309343Y0017920D01*
X0309659Y0018133D01*
X0309969Y0018353D01*
X0310275Y0018580D01*
X0310574Y0018815D01*
X0310868Y0019057D01*
X0311156Y0019305D01*
X0311438Y0019561D01*
X0311713Y0019824D01*
X0311982Y0020093D01*
X0312245Y0020368D01*
X0312501Y0020650D01*
X0312749Y0020938D01*
X0312991Y0021232D01*
X0313226Y0021531D01*
X0313453Y0021837D01*
X0313673Y0022147D01*
X0313886Y0022463D01*
X0314090Y0022784D01*
X0314287Y0023109D01*
X0314476Y0023440D01*
X0314657Y0023775D01*
X0314830Y0024114D01*
X0314994Y0024457D01*
X0315151Y0024804D01*
X0315298Y0025155D01*
X0315438Y0025509D01*
X0315568Y0025866D01*
X0315690Y0026227D01*
X0315803Y0026590D01*
X0315908Y0026956D01*
X0316003Y0027324D01*
X0316090Y0027695D01*
X0316168Y0028067D01*
X0316236Y0028442D01*
X0316296Y0028818D01*
X0316346Y0029195D01*
X0316387Y0029573D01*
X0316420Y0029952D01*
X0316443Y0030332D01*
X0316456Y0030712D01*
X0316461Y0031093D01*
X0316461Y0275187D01*
X0295004Y0275187D02*
X0295006Y0275338D01*
X0295012Y0275488D01*
X0295022Y0275639D01*
X0295036Y0275789D01*
X0295054Y0275938D01*
X0295075Y0276088D01*
X0295101Y0276236D01*
X0295131Y0276384D01*
X0295164Y0276531D01*
X0295202Y0276677D01*
X0295243Y0276822D01*
X0295288Y0276966D01*
X0295337Y0277108D01*
X0295390Y0277249D01*
X0295446Y0277389D01*
X0295506Y0277527D01*
X0295569Y0277664D01*
X0295637Y0277799D01*
X0295707Y0277932D01*
X0295781Y0278063D01*
X0295859Y0278192D01*
X0295940Y0278319D01*
X0296024Y0278444D01*
X0296112Y0278567D01*
X0296203Y0278687D01*
X0296297Y0278805D01*
X0296394Y0278920D01*
X0296494Y0279033D01*
X0296597Y0279143D01*
X0296703Y0279250D01*
X0296812Y0279355D01*
X0296923Y0279456D01*
X0297037Y0279555D01*
X0297153Y0279650D01*
X0297273Y0279743D01*
X0297394Y0279832D01*
X0297518Y0279918D01*
X0297644Y0280001D01*
X0297772Y0280080D01*
X0297902Y0280156D01*
X0298034Y0280229D01*
X0298168Y0280297D01*
X0298304Y0280363D01*
X0298442Y0280425D01*
X0298581Y0280483D01*
X0298721Y0280537D01*
X0298863Y0280588D01*
X0299006Y0280635D01*
X0299151Y0280678D01*
X0299296Y0280717D01*
X0299443Y0280753D01*
X0299590Y0280784D01*
X0299738Y0280812D01*
X0299887Y0280836D01*
X0300036Y0280856D01*
X0300186Y0280872D01*
X0300336Y0280884D01*
X0300487Y0280892D01*
X0300638Y0280896D01*
X0300788Y0280896D01*
X0300939Y0280892D01*
X0301090Y0280884D01*
X0301240Y0280872D01*
X0301390Y0280856D01*
X0301539Y0280836D01*
X0301688Y0280812D01*
X0301836Y0280784D01*
X0301983Y0280753D01*
X0302130Y0280717D01*
X0302275Y0280678D01*
X0302420Y0280635D01*
X0302563Y0280588D01*
X0302705Y0280537D01*
X0302845Y0280483D01*
X0302984Y0280425D01*
X0303122Y0280363D01*
X0303258Y0280297D01*
X0303392Y0280229D01*
X0303524Y0280156D01*
X0303654Y0280080D01*
X0303782Y0280001D01*
X0303908Y0279918D01*
X0304032Y0279832D01*
X0304153Y0279743D01*
X0304273Y0279650D01*
X0304389Y0279555D01*
X0304503Y0279456D01*
X0304614Y0279355D01*
X0304723Y0279250D01*
X0304829Y0279143D01*
X0304932Y0279033D01*
X0305032Y0278920D01*
X0305129Y0278805D01*
X0305223Y0278687D01*
X0305314Y0278567D01*
X0305402Y0278444D01*
X0305486Y0278319D01*
X0305567Y0278192D01*
X0305645Y0278063D01*
X0305719Y0277932D01*
X0305789Y0277799D01*
X0305857Y0277664D01*
X0305920Y0277527D01*
X0305980Y0277389D01*
X0306036Y0277249D01*
X0306089Y0277108D01*
X0306138Y0276966D01*
X0306183Y0276822D01*
X0306224Y0276677D01*
X0306262Y0276531D01*
X0306295Y0276384D01*
X0306325Y0276236D01*
X0306351Y0276088D01*
X0306372Y0275938D01*
X0306390Y0275789D01*
X0306404Y0275639D01*
X0306414Y0275488D01*
X0306420Y0275338D01*
X0306422Y0275187D01*
X0306420Y0275036D01*
X0306414Y0274886D01*
X0306404Y0274735D01*
X0306390Y0274585D01*
X0306372Y0274436D01*
X0306351Y0274286D01*
X0306325Y0274138D01*
X0306295Y0273990D01*
X0306262Y0273843D01*
X0306224Y0273697D01*
X0306183Y0273552D01*
X0306138Y0273408D01*
X0306089Y0273266D01*
X0306036Y0273125D01*
X0305980Y0272985D01*
X0305920Y0272847D01*
X0305857Y0272710D01*
X0305789Y0272575D01*
X0305719Y0272442D01*
X0305645Y0272311D01*
X0305567Y0272182D01*
X0305486Y0272055D01*
X0305402Y0271930D01*
X0305314Y0271807D01*
X0305223Y0271687D01*
X0305129Y0271569D01*
X0305032Y0271454D01*
X0304932Y0271341D01*
X0304829Y0271231D01*
X0304723Y0271124D01*
X0304614Y0271019D01*
X0304503Y0270918D01*
X0304389Y0270819D01*
X0304273Y0270724D01*
X0304153Y0270631D01*
X0304032Y0270542D01*
X0303908Y0270456D01*
X0303782Y0270373D01*
X0303654Y0270294D01*
X0303524Y0270218D01*
X0303392Y0270145D01*
X0303258Y0270077D01*
X0303122Y0270011D01*
X0302984Y0269949D01*
X0302845Y0269891D01*
X0302705Y0269837D01*
X0302563Y0269786D01*
X0302420Y0269739D01*
X0302275Y0269696D01*
X0302130Y0269657D01*
X0301983Y0269621D01*
X0301836Y0269590D01*
X0301688Y0269562D01*
X0301539Y0269538D01*
X0301390Y0269518D01*
X0301240Y0269502D01*
X0301090Y0269490D01*
X0300939Y0269482D01*
X0300788Y0269478D01*
X0300638Y0269478D01*
X0300487Y0269482D01*
X0300336Y0269490D01*
X0300186Y0269502D01*
X0300036Y0269518D01*
X0299887Y0269538D01*
X0299738Y0269562D01*
X0299590Y0269590D01*
X0299443Y0269621D01*
X0299296Y0269657D01*
X0299151Y0269696D01*
X0299006Y0269739D01*
X0298863Y0269786D01*
X0298721Y0269837D01*
X0298581Y0269891D01*
X0298442Y0269949D01*
X0298304Y0270011D01*
X0298168Y0270077D01*
X0298034Y0270145D01*
X0297902Y0270218D01*
X0297772Y0270294D01*
X0297644Y0270373D01*
X0297518Y0270456D01*
X0297394Y0270542D01*
X0297273Y0270631D01*
X0297153Y0270724D01*
X0297037Y0270819D01*
X0296923Y0270918D01*
X0296812Y0271019D01*
X0296703Y0271124D01*
X0296597Y0271231D01*
X0296494Y0271341D01*
X0296394Y0271454D01*
X0296297Y0271569D01*
X0296203Y0271687D01*
X0296112Y0271807D01*
X0296024Y0271930D01*
X0295940Y0272055D01*
X0295859Y0272182D01*
X0295781Y0272311D01*
X0295707Y0272442D01*
X0295637Y0272575D01*
X0295569Y0272710D01*
X0295506Y0272847D01*
X0295446Y0272985D01*
X0295390Y0273125D01*
X0295337Y0273266D01*
X0295288Y0273408D01*
X0295243Y0273552D01*
X0295202Y0273697D01*
X0295164Y0273843D01*
X0295131Y0273990D01*
X0295101Y0274138D01*
X0295075Y0274286D01*
X0295054Y0274436D01*
X0295036Y0274585D01*
X0295022Y0274735D01*
X0295012Y0274886D01*
X0295006Y0275036D01*
X0295004Y0275187D01*
X0300713Y0290935D02*
X0301094Y0290930D01*
X0301474Y0290917D01*
X0301854Y0290894D01*
X0302233Y0290861D01*
X0302611Y0290820D01*
X0302988Y0290770D01*
X0303364Y0290710D01*
X0303739Y0290642D01*
X0304111Y0290564D01*
X0304482Y0290477D01*
X0304850Y0290382D01*
X0305216Y0290277D01*
X0305579Y0290164D01*
X0305940Y0290042D01*
X0306297Y0289912D01*
X0306651Y0289772D01*
X0307002Y0289625D01*
X0307349Y0289468D01*
X0307692Y0289304D01*
X0308031Y0289131D01*
X0308366Y0288950D01*
X0308697Y0288761D01*
X0309022Y0288564D01*
X0309343Y0288360D01*
X0309659Y0288147D01*
X0309969Y0287927D01*
X0310275Y0287700D01*
X0310574Y0287465D01*
X0310868Y0287223D01*
X0311156Y0286975D01*
X0311438Y0286719D01*
X0311713Y0286456D01*
X0311982Y0286187D01*
X0312245Y0285912D01*
X0312501Y0285630D01*
X0312749Y0285342D01*
X0312991Y0285048D01*
X0313226Y0284749D01*
X0313453Y0284443D01*
X0313673Y0284133D01*
X0313886Y0283817D01*
X0314090Y0283496D01*
X0314287Y0283171D01*
X0314476Y0282840D01*
X0314657Y0282505D01*
X0314830Y0282166D01*
X0314994Y0281823D01*
X0315151Y0281476D01*
X0315298Y0281125D01*
X0315438Y0280771D01*
X0315568Y0280414D01*
X0315690Y0280053D01*
X0315803Y0279690D01*
X0315908Y0279324D01*
X0316003Y0278956D01*
X0316090Y0278585D01*
X0316168Y0278213D01*
X0316236Y0277838D01*
X0316296Y0277462D01*
X0316346Y0277085D01*
X0316387Y0276707D01*
X0316420Y0276328D01*
X0316443Y0275948D01*
X0316456Y0275568D01*
X0316461Y0275187D01*
X0300713Y0290935D02*
X0017248Y0290935D01*
X0011539Y0275187D02*
X0011541Y0275338D01*
X0011547Y0275488D01*
X0011557Y0275639D01*
X0011571Y0275789D01*
X0011589Y0275938D01*
X0011610Y0276088D01*
X0011636Y0276236D01*
X0011666Y0276384D01*
X0011699Y0276531D01*
X0011737Y0276677D01*
X0011778Y0276822D01*
X0011823Y0276966D01*
X0011872Y0277108D01*
X0011925Y0277249D01*
X0011981Y0277389D01*
X0012041Y0277527D01*
X0012104Y0277664D01*
X0012172Y0277799D01*
X0012242Y0277932D01*
X0012316Y0278063D01*
X0012394Y0278192D01*
X0012475Y0278319D01*
X0012559Y0278444D01*
X0012647Y0278567D01*
X0012738Y0278687D01*
X0012832Y0278805D01*
X0012929Y0278920D01*
X0013029Y0279033D01*
X0013132Y0279143D01*
X0013238Y0279250D01*
X0013347Y0279355D01*
X0013458Y0279456D01*
X0013572Y0279555D01*
X0013688Y0279650D01*
X0013808Y0279743D01*
X0013929Y0279832D01*
X0014053Y0279918D01*
X0014179Y0280001D01*
X0014307Y0280080D01*
X0014437Y0280156D01*
X0014569Y0280229D01*
X0014703Y0280297D01*
X0014839Y0280363D01*
X0014977Y0280425D01*
X0015116Y0280483D01*
X0015256Y0280537D01*
X0015398Y0280588D01*
X0015541Y0280635D01*
X0015686Y0280678D01*
X0015831Y0280717D01*
X0015978Y0280753D01*
X0016125Y0280784D01*
X0016273Y0280812D01*
X0016422Y0280836D01*
X0016571Y0280856D01*
X0016721Y0280872D01*
X0016871Y0280884D01*
X0017022Y0280892D01*
X0017173Y0280896D01*
X0017323Y0280896D01*
X0017474Y0280892D01*
X0017625Y0280884D01*
X0017775Y0280872D01*
X0017925Y0280856D01*
X0018074Y0280836D01*
X0018223Y0280812D01*
X0018371Y0280784D01*
X0018518Y0280753D01*
X0018665Y0280717D01*
X0018810Y0280678D01*
X0018955Y0280635D01*
X0019098Y0280588D01*
X0019240Y0280537D01*
X0019380Y0280483D01*
X0019519Y0280425D01*
X0019657Y0280363D01*
X0019793Y0280297D01*
X0019927Y0280229D01*
X0020059Y0280156D01*
X0020189Y0280080D01*
X0020317Y0280001D01*
X0020443Y0279918D01*
X0020567Y0279832D01*
X0020688Y0279743D01*
X0020808Y0279650D01*
X0020924Y0279555D01*
X0021038Y0279456D01*
X0021149Y0279355D01*
X0021258Y0279250D01*
X0021364Y0279143D01*
X0021467Y0279033D01*
X0021567Y0278920D01*
X0021664Y0278805D01*
X0021758Y0278687D01*
X0021849Y0278567D01*
X0021937Y0278444D01*
X0022021Y0278319D01*
X0022102Y0278192D01*
X0022180Y0278063D01*
X0022254Y0277932D01*
X0022324Y0277799D01*
X0022392Y0277664D01*
X0022455Y0277527D01*
X0022515Y0277389D01*
X0022571Y0277249D01*
X0022624Y0277108D01*
X0022673Y0276966D01*
X0022718Y0276822D01*
X0022759Y0276677D01*
X0022797Y0276531D01*
X0022830Y0276384D01*
X0022860Y0276236D01*
X0022886Y0276088D01*
X0022907Y0275938D01*
X0022925Y0275789D01*
X0022939Y0275639D01*
X0022949Y0275488D01*
X0022955Y0275338D01*
X0022957Y0275187D01*
X0022955Y0275036D01*
X0022949Y0274886D01*
X0022939Y0274735D01*
X0022925Y0274585D01*
X0022907Y0274436D01*
X0022886Y0274286D01*
X0022860Y0274138D01*
X0022830Y0273990D01*
X0022797Y0273843D01*
X0022759Y0273697D01*
X0022718Y0273552D01*
X0022673Y0273408D01*
X0022624Y0273266D01*
X0022571Y0273125D01*
X0022515Y0272985D01*
X0022455Y0272847D01*
X0022392Y0272710D01*
X0022324Y0272575D01*
X0022254Y0272442D01*
X0022180Y0272311D01*
X0022102Y0272182D01*
X0022021Y0272055D01*
X0021937Y0271930D01*
X0021849Y0271807D01*
X0021758Y0271687D01*
X0021664Y0271569D01*
X0021567Y0271454D01*
X0021467Y0271341D01*
X0021364Y0271231D01*
X0021258Y0271124D01*
X0021149Y0271019D01*
X0021038Y0270918D01*
X0020924Y0270819D01*
X0020808Y0270724D01*
X0020688Y0270631D01*
X0020567Y0270542D01*
X0020443Y0270456D01*
X0020317Y0270373D01*
X0020189Y0270294D01*
X0020059Y0270218D01*
X0019927Y0270145D01*
X0019793Y0270077D01*
X0019657Y0270011D01*
X0019519Y0269949D01*
X0019380Y0269891D01*
X0019240Y0269837D01*
X0019098Y0269786D01*
X0018955Y0269739D01*
X0018810Y0269696D01*
X0018665Y0269657D01*
X0018518Y0269621D01*
X0018371Y0269590D01*
X0018223Y0269562D01*
X0018074Y0269538D01*
X0017925Y0269518D01*
X0017775Y0269502D01*
X0017625Y0269490D01*
X0017474Y0269482D01*
X0017323Y0269478D01*
X0017173Y0269478D01*
X0017022Y0269482D01*
X0016871Y0269490D01*
X0016721Y0269502D01*
X0016571Y0269518D01*
X0016422Y0269538D01*
X0016273Y0269562D01*
X0016125Y0269590D01*
X0015978Y0269621D01*
X0015831Y0269657D01*
X0015686Y0269696D01*
X0015541Y0269739D01*
X0015398Y0269786D01*
X0015256Y0269837D01*
X0015116Y0269891D01*
X0014977Y0269949D01*
X0014839Y0270011D01*
X0014703Y0270077D01*
X0014569Y0270145D01*
X0014437Y0270218D01*
X0014307Y0270294D01*
X0014179Y0270373D01*
X0014053Y0270456D01*
X0013929Y0270542D01*
X0013808Y0270631D01*
X0013688Y0270724D01*
X0013572Y0270819D01*
X0013458Y0270918D01*
X0013347Y0271019D01*
X0013238Y0271124D01*
X0013132Y0271231D01*
X0013029Y0271341D01*
X0012929Y0271454D01*
X0012832Y0271569D01*
X0012738Y0271687D01*
X0012647Y0271807D01*
X0012559Y0271930D01*
X0012475Y0272055D01*
X0012394Y0272182D01*
X0012316Y0272311D01*
X0012242Y0272442D01*
X0012172Y0272575D01*
X0012104Y0272710D01*
X0012041Y0272847D01*
X0011981Y0272985D01*
X0011925Y0273125D01*
X0011872Y0273266D01*
X0011823Y0273408D01*
X0011778Y0273552D01*
X0011737Y0273697D01*
X0011699Y0273843D01*
X0011666Y0273990D01*
X0011636Y0274138D01*
X0011610Y0274286D01*
X0011589Y0274436D01*
X0011571Y0274585D01*
X0011557Y0274735D01*
X0011547Y0274886D01*
X0011541Y0275036D01*
X0011539Y0275187D01*
X0001500Y0275187D02*
X0001505Y0275568D01*
X0001518Y0275948D01*
X0001541Y0276328D01*
X0001574Y0276707D01*
X0001615Y0277085D01*
X0001665Y0277462D01*
X0001725Y0277838D01*
X0001793Y0278213D01*
X0001871Y0278585D01*
X0001958Y0278956D01*
X0002053Y0279324D01*
X0002158Y0279690D01*
X0002271Y0280053D01*
X0002393Y0280414D01*
X0002523Y0280771D01*
X0002663Y0281125D01*
X0002810Y0281476D01*
X0002967Y0281823D01*
X0003131Y0282166D01*
X0003304Y0282505D01*
X0003485Y0282840D01*
X0003674Y0283171D01*
X0003871Y0283496D01*
X0004075Y0283817D01*
X0004288Y0284133D01*
X0004508Y0284443D01*
X0004735Y0284749D01*
X0004970Y0285048D01*
X0005212Y0285342D01*
X0005460Y0285630D01*
X0005716Y0285912D01*
X0005979Y0286187D01*
X0006248Y0286456D01*
X0006523Y0286719D01*
X0006805Y0286975D01*
X0007093Y0287223D01*
X0007387Y0287465D01*
X0007686Y0287700D01*
X0007992Y0287927D01*
X0008302Y0288147D01*
X0008618Y0288360D01*
X0008939Y0288564D01*
X0009264Y0288761D01*
X0009595Y0288950D01*
X0009930Y0289131D01*
X0010269Y0289304D01*
X0010612Y0289468D01*
X0010959Y0289625D01*
X0011310Y0289772D01*
X0011664Y0289912D01*
X0012021Y0290042D01*
X0012382Y0290164D01*
X0012745Y0290277D01*
X0013111Y0290382D01*
X0013479Y0290477D01*
X0013850Y0290564D01*
X0014222Y0290642D01*
X0014597Y0290710D01*
X0014973Y0290770D01*
X0015350Y0290820D01*
X0015728Y0290861D01*
X0016107Y0290894D01*
X0016487Y0290917D01*
X0016867Y0290930D01*
X0017248Y0290935D01*
X0001500Y0275187D02*
X0001500Y0031093D01*
X0011539Y0031093D02*
X0011541Y0031244D01*
X0011547Y0031394D01*
X0011557Y0031545D01*
X0011571Y0031695D01*
X0011589Y0031844D01*
X0011610Y0031994D01*
X0011636Y0032142D01*
X0011666Y0032290D01*
X0011699Y0032437D01*
X0011737Y0032583D01*
X0011778Y0032728D01*
X0011823Y0032872D01*
X0011872Y0033014D01*
X0011925Y0033155D01*
X0011981Y0033295D01*
X0012041Y0033433D01*
X0012104Y0033570D01*
X0012172Y0033705D01*
X0012242Y0033838D01*
X0012316Y0033969D01*
X0012394Y0034098D01*
X0012475Y0034225D01*
X0012559Y0034350D01*
X0012647Y0034473D01*
X0012738Y0034593D01*
X0012832Y0034711D01*
X0012929Y0034826D01*
X0013029Y0034939D01*
X0013132Y0035049D01*
X0013238Y0035156D01*
X0013347Y0035261D01*
X0013458Y0035362D01*
X0013572Y0035461D01*
X0013688Y0035556D01*
X0013808Y0035649D01*
X0013929Y0035738D01*
X0014053Y0035824D01*
X0014179Y0035907D01*
X0014307Y0035986D01*
X0014437Y0036062D01*
X0014569Y0036135D01*
X0014703Y0036203D01*
X0014839Y0036269D01*
X0014977Y0036331D01*
X0015116Y0036389D01*
X0015256Y0036443D01*
X0015398Y0036494D01*
X0015541Y0036541D01*
X0015686Y0036584D01*
X0015831Y0036623D01*
X0015978Y0036659D01*
X0016125Y0036690D01*
X0016273Y0036718D01*
X0016422Y0036742D01*
X0016571Y0036762D01*
X0016721Y0036778D01*
X0016871Y0036790D01*
X0017022Y0036798D01*
X0017173Y0036802D01*
X0017323Y0036802D01*
X0017474Y0036798D01*
X0017625Y0036790D01*
X0017775Y0036778D01*
X0017925Y0036762D01*
X0018074Y0036742D01*
X0018223Y0036718D01*
X0018371Y0036690D01*
X0018518Y0036659D01*
X0018665Y0036623D01*
X0018810Y0036584D01*
X0018955Y0036541D01*
X0019098Y0036494D01*
X0019240Y0036443D01*
X0019380Y0036389D01*
X0019519Y0036331D01*
X0019657Y0036269D01*
X0019793Y0036203D01*
X0019927Y0036135D01*
X0020059Y0036062D01*
X0020189Y0035986D01*
X0020317Y0035907D01*
X0020443Y0035824D01*
X0020567Y0035738D01*
X0020688Y0035649D01*
X0020808Y0035556D01*
X0020924Y0035461D01*
X0021038Y0035362D01*
X0021149Y0035261D01*
X0021258Y0035156D01*
X0021364Y0035049D01*
X0021467Y0034939D01*
X0021567Y0034826D01*
X0021664Y0034711D01*
X0021758Y0034593D01*
X0021849Y0034473D01*
X0021937Y0034350D01*
X0022021Y0034225D01*
X0022102Y0034098D01*
X0022180Y0033969D01*
X0022254Y0033838D01*
X0022324Y0033705D01*
X0022392Y0033570D01*
X0022455Y0033433D01*
X0022515Y0033295D01*
X0022571Y0033155D01*
X0022624Y0033014D01*
X0022673Y0032872D01*
X0022718Y0032728D01*
X0022759Y0032583D01*
X0022797Y0032437D01*
X0022830Y0032290D01*
X0022860Y0032142D01*
X0022886Y0031994D01*
X0022907Y0031844D01*
X0022925Y0031695D01*
X0022939Y0031545D01*
X0022949Y0031394D01*
X0022955Y0031244D01*
X0022957Y0031093D01*
X0022955Y0030942D01*
X0022949Y0030792D01*
X0022939Y0030641D01*
X0022925Y0030491D01*
X0022907Y0030342D01*
X0022886Y0030192D01*
X0022860Y0030044D01*
X0022830Y0029896D01*
X0022797Y0029749D01*
X0022759Y0029603D01*
X0022718Y0029458D01*
X0022673Y0029314D01*
X0022624Y0029172D01*
X0022571Y0029031D01*
X0022515Y0028891D01*
X0022455Y0028753D01*
X0022392Y0028616D01*
X0022324Y0028481D01*
X0022254Y0028348D01*
X0022180Y0028217D01*
X0022102Y0028088D01*
X0022021Y0027961D01*
X0021937Y0027836D01*
X0021849Y0027713D01*
X0021758Y0027593D01*
X0021664Y0027475D01*
X0021567Y0027360D01*
X0021467Y0027247D01*
X0021364Y0027137D01*
X0021258Y0027030D01*
X0021149Y0026925D01*
X0021038Y0026824D01*
X0020924Y0026725D01*
X0020808Y0026630D01*
X0020688Y0026537D01*
X0020567Y0026448D01*
X0020443Y0026362D01*
X0020317Y0026279D01*
X0020189Y0026200D01*
X0020059Y0026124D01*
X0019927Y0026051D01*
X0019793Y0025983D01*
X0019657Y0025917D01*
X0019519Y0025855D01*
X0019380Y0025797D01*
X0019240Y0025743D01*
X0019098Y0025692D01*
X0018955Y0025645D01*
X0018810Y0025602D01*
X0018665Y0025563D01*
X0018518Y0025527D01*
X0018371Y0025496D01*
X0018223Y0025468D01*
X0018074Y0025444D01*
X0017925Y0025424D01*
X0017775Y0025408D01*
X0017625Y0025396D01*
X0017474Y0025388D01*
X0017323Y0025384D01*
X0017173Y0025384D01*
X0017022Y0025388D01*
X0016871Y0025396D01*
X0016721Y0025408D01*
X0016571Y0025424D01*
X0016422Y0025444D01*
X0016273Y0025468D01*
X0016125Y0025496D01*
X0015978Y0025527D01*
X0015831Y0025563D01*
X0015686Y0025602D01*
X0015541Y0025645D01*
X0015398Y0025692D01*
X0015256Y0025743D01*
X0015116Y0025797D01*
X0014977Y0025855D01*
X0014839Y0025917D01*
X0014703Y0025983D01*
X0014569Y0026051D01*
X0014437Y0026124D01*
X0014307Y0026200D01*
X0014179Y0026279D01*
X0014053Y0026362D01*
X0013929Y0026448D01*
X0013808Y0026537D01*
X0013688Y0026630D01*
X0013572Y0026725D01*
X0013458Y0026824D01*
X0013347Y0026925D01*
X0013238Y0027030D01*
X0013132Y0027137D01*
X0013029Y0027247D01*
X0012929Y0027360D01*
X0012832Y0027475D01*
X0012738Y0027593D01*
X0012647Y0027713D01*
X0012559Y0027836D01*
X0012475Y0027961D01*
X0012394Y0028088D01*
X0012316Y0028217D01*
X0012242Y0028348D01*
X0012172Y0028481D01*
X0012104Y0028616D01*
X0012041Y0028753D01*
X0011981Y0028891D01*
X0011925Y0029031D01*
X0011872Y0029172D01*
X0011823Y0029314D01*
X0011778Y0029458D01*
X0011737Y0029603D01*
X0011699Y0029749D01*
X0011666Y0029896D01*
X0011636Y0030044D01*
X0011610Y0030192D01*
X0011589Y0030342D01*
X0011571Y0030491D01*
X0011557Y0030641D01*
X0011547Y0030792D01*
X0011541Y0030942D01*
X0011539Y0031093D01*
X0001500Y0031093D02*
X0001505Y0030712D01*
X0001518Y0030332D01*
X0001541Y0029952D01*
X0001574Y0029573D01*
X0001615Y0029195D01*
X0001665Y0028818D01*
X0001725Y0028442D01*
X0001793Y0028067D01*
X0001871Y0027695D01*
X0001958Y0027324D01*
X0002053Y0026956D01*
X0002158Y0026590D01*
X0002271Y0026227D01*
X0002393Y0025866D01*
X0002523Y0025509D01*
X0002663Y0025155D01*
X0002810Y0024804D01*
X0002967Y0024457D01*
X0003131Y0024114D01*
X0003304Y0023775D01*
X0003485Y0023440D01*
X0003674Y0023109D01*
X0003871Y0022784D01*
X0004075Y0022463D01*
X0004288Y0022147D01*
X0004508Y0021837D01*
X0004735Y0021531D01*
X0004970Y0021232D01*
X0005212Y0020938D01*
X0005460Y0020650D01*
X0005716Y0020368D01*
X0005979Y0020093D01*
X0006248Y0019824D01*
X0006523Y0019561D01*
X0006805Y0019305D01*
X0007093Y0019057D01*
X0007387Y0018815D01*
X0007686Y0018580D01*
X0007992Y0018353D01*
X0008302Y0018133D01*
X0008618Y0017920D01*
X0008939Y0017716D01*
X0009264Y0017519D01*
X0009595Y0017330D01*
X0009930Y0017149D01*
X0010269Y0016976D01*
X0010612Y0016812D01*
X0010959Y0016655D01*
X0011310Y0016508D01*
X0011664Y0016368D01*
X0012021Y0016238D01*
X0012382Y0016116D01*
X0012745Y0016003D01*
X0013111Y0015898D01*
X0013479Y0015803D01*
X0013850Y0015716D01*
X0014222Y0015638D01*
X0014597Y0015570D01*
X0014973Y0015510D01*
X0015350Y0015460D01*
X0015728Y0015419D01*
X0016107Y0015386D01*
X0016487Y0015363D01*
X0016867Y0015350D01*
X0017248Y0015345D01*
X0125161Y0021171D02*
X0125163Y0021272D01*
X0125169Y0021373D01*
X0125179Y0021474D01*
X0125193Y0021574D01*
X0125211Y0021673D01*
X0125233Y0021772D01*
X0125258Y0021870D01*
X0125288Y0021967D01*
X0125321Y0022062D01*
X0125358Y0022156D01*
X0125399Y0022249D01*
X0125443Y0022340D01*
X0125491Y0022429D01*
X0125543Y0022516D01*
X0125598Y0022601D01*
X0125656Y0022683D01*
X0125717Y0022764D01*
X0125782Y0022842D01*
X0125849Y0022917D01*
X0125919Y0022989D01*
X0125993Y0023059D01*
X0126069Y0023126D01*
X0126147Y0023190D01*
X0126228Y0023250D01*
X0126311Y0023307D01*
X0126397Y0023361D01*
X0126485Y0023412D01*
X0126574Y0023459D01*
X0126665Y0023503D01*
X0126758Y0023542D01*
X0126853Y0023579D01*
X0126948Y0023611D01*
X0127045Y0023640D01*
X0127144Y0023664D01*
X0127242Y0023685D01*
X0127342Y0023702D01*
X0127442Y0023715D01*
X0127543Y0023724D01*
X0127644Y0023729D01*
X0127745Y0023730D01*
X0127846Y0023727D01*
X0127947Y0023720D01*
X0128048Y0023709D01*
X0128148Y0023694D01*
X0128247Y0023675D01*
X0128346Y0023652D01*
X0128443Y0023626D01*
X0128540Y0023595D01*
X0128635Y0023561D01*
X0128728Y0023523D01*
X0128821Y0023481D01*
X0128911Y0023436D01*
X0129000Y0023387D01*
X0129086Y0023335D01*
X0129170Y0023279D01*
X0129253Y0023220D01*
X0129332Y0023158D01*
X0129410Y0023093D01*
X0129484Y0023025D01*
X0129556Y0022953D01*
X0129625Y0022880D01*
X0129691Y0022803D01*
X0129754Y0022724D01*
X0129814Y0022642D01*
X0129870Y0022558D01*
X0129923Y0022472D01*
X0129973Y0022384D01*
X0130019Y0022294D01*
X0130062Y0022203D01*
X0130101Y0022109D01*
X0130136Y0022014D01*
X0130167Y0021918D01*
X0130195Y0021821D01*
X0130219Y0021723D01*
X0130239Y0021624D01*
X0130255Y0021524D01*
X0130267Y0021423D01*
X0130275Y0021323D01*
X0130279Y0021222D01*
X0130279Y0021120D01*
X0130275Y0021019D01*
X0130267Y0020919D01*
X0130255Y0020818D01*
X0130239Y0020718D01*
X0130219Y0020619D01*
X0130195Y0020521D01*
X0130167Y0020424D01*
X0130136Y0020328D01*
X0130101Y0020233D01*
X0130062Y0020139D01*
X0130019Y0020048D01*
X0129973Y0019958D01*
X0129923Y0019870D01*
X0129870Y0019784D01*
X0129814Y0019700D01*
X0129754Y0019618D01*
X0129691Y0019539D01*
X0129625Y0019462D01*
X0129556Y0019389D01*
X0129484Y0019317D01*
X0129410Y0019249D01*
X0129332Y0019184D01*
X0129253Y0019122D01*
X0129170Y0019063D01*
X0129086Y0019007D01*
X0128999Y0018955D01*
X0128911Y0018906D01*
X0128821Y0018861D01*
X0128728Y0018819D01*
X0128635Y0018781D01*
X0128540Y0018747D01*
X0128443Y0018716D01*
X0128346Y0018690D01*
X0128247Y0018667D01*
X0128148Y0018648D01*
X0128048Y0018633D01*
X0127947Y0018622D01*
X0127846Y0018615D01*
X0127745Y0018612D01*
X0127644Y0018613D01*
X0127543Y0018618D01*
X0127442Y0018627D01*
X0127342Y0018640D01*
X0127242Y0018657D01*
X0127144Y0018678D01*
X0127045Y0018702D01*
X0126948Y0018731D01*
X0126853Y0018763D01*
X0126758Y0018800D01*
X0126665Y0018839D01*
X0126574Y0018883D01*
X0126485Y0018930D01*
X0126397Y0018981D01*
X0126311Y0019035D01*
X0126228Y0019092D01*
X0126147Y0019152D01*
X0126069Y0019216D01*
X0125993Y0019283D01*
X0125919Y0019353D01*
X0125849Y0019425D01*
X0125782Y0019500D01*
X0125717Y0019578D01*
X0125656Y0019659D01*
X0125598Y0019741D01*
X0125543Y0019826D01*
X0125491Y0019913D01*
X0125443Y0020002D01*
X0125399Y0020093D01*
X0125358Y0020186D01*
X0125321Y0020280D01*
X0125288Y0020375D01*
X0125258Y0020472D01*
X0125233Y0020570D01*
X0125211Y0020669D01*
X0125193Y0020768D01*
X0125179Y0020868D01*
X0125169Y0020969D01*
X0125163Y0021070D01*
X0125161Y0021171D01*
X0105830Y0255108D02*
X0105832Y0255196D01*
X0105838Y0255284D01*
X0105848Y0255372D01*
X0105862Y0255460D01*
X0105879Y0255546D01*
X0105901Y0255632D01*
X0105926Y0255716D01*
X0105956Y0255800D01*
X0105988Y0255882D01*
X0106025Y0255962D01*
X0106065Y0256041D01*
X0106109Y0256118D01*
X0106156Y0256193D01*
X0106206Y0256265D01*
X0106260Y0256336D01*
X0106316Y0256403D01*
X0106376Y0256469D01*
X0106438Y0256531D01*
X0106504Y0256591D01*
X0106571Y0256647D01*
X0106642Y0256701D01*
X0106714Y0256751D01*
X0106789Y0256798D01*
X0106866Y0256842D01*
X0106945Y0256882D01*
X0107025Y0256919D01*
X0107107Y0256951D01*
X0107191Y0256981D01*
X0107275Y0257006D01*
X0107361Y0257028D01*
X0107447Y0257045D01*
X0107535Y0257059D01*
X0107623Y0257069D01*
X0107711Y0257075D01*
X0107799Y0257077D01*
X0107887Y0257075D01*
X0107975Y0257069D01*
X0108063Y0257059D01*
X0108151Y0257045D01*
X0108237Y0257028D01*
X0108323Y0257006D01*
X0108407Y0256981D01*
X0108491Y0256951D01*
X0108573Y0256919D01*
X0108653Y0256882D01*
X0108732Y0256842D01*
X0108809Y0256798D01*
X0108884Y0256751D01*
X0108956Y0256701D01*
X0109027Y0256647D01*
X0109094Y0256591D01*
X0109160Y0256531D01*
X0109222Y0256469D01*
X0109282Y0256403D01*
X0109338Y0256336D01*
X0109392Y0256265D01*
X0109442Y0256193D01*
X0109489Y0256118D01*
X0109533Y0256041D01*
X0109573Y0255962D01*
X0109610Y0255882D01*
X0109642Y0255800D01*
X0109672Y0255716D01*
X0109697Y0255632D01*
X0109719Y0255546D01*
X0109736Y0255460D01*
X0109750Y0255372D01*
X0109760Y0255284D01*
X0109766Y0255196D01*
X0109768Y0255108D01*
X0109766Y0255020D01*
X0109760Y0254932D01*
X0109750Y0254844D01*
X0109736Y0254756D01*
X0109719Y0254670D01*
X0109697Y0254584D01*
X0109672Y0254500D01*
X0109642Y0254416D01*
X0109610Y0254334D01*
X0109573Y0254254D01*
X0109533Y0254175D01*
X0109489Y0254098D01*
X0109442Y0254023D01*
X0109392Y0253951D01*
X0109338Y0253880D01*
X0109282Y0253813D01*
X0109222Y0253747D01*
X0109160Y0253685D01*
X0109094Y0253625D01*
X0109027Y0253569D01*
X0108956Y0253515D01*
X0108884Y0253465D01*
X0108809Y0253418D01*
X0108732Y0253374D01*
X0108653Y0253334D01*
X0108573Y0253297D01*
X0108491Y0253265D01*
X0108407Y0253235D01*
X0108323Y0253210D01*
X0108237Y0253188D01*
X0108151Y0253171D01*
X0108063Y0253157D01*
X0107975Y0253147D01*
X0107887Y0253141D01*
X0107799Y0253139D01*
X0107711Y0253141D01*
X0107623Y0253147D01*
X0107535Y0253157D01*
X0107447Y0253171D01*
X0107361Y0253188D01*
X0107275Y0253210D01*
X0107191Y0253235D01*
X0107107Y0253265D01*
X0107025Y0253297D01*
X0106945Y0253334D01*
X0106866Y0253374D01*
X0106789Y0253418D01*
X0106714Y0253465D01*
X0106642Y0253515D01*
X0106571Y0253569D01*
X0106504Y0253625D01*
X0106438Y0253685D01*
X0106376Y0253747D01*
X0106316Y0253813D01*
X0106260Y0253880D01*
X0106206Y0253951D01*
X0106156Y0254023D01*
X0106109Y0254098D01*
X0106065Y0254175D01*
X0106025Y0254254D01*
X0105988Y0254334D01*
X0105956Y0254416D01*
X0105926Y0254500D01*
X0105901Y0254584D01*
X0105879Y0254670D01*
X0105862Y0254756D01*
X0105848Y0254844D01*
X0105838Y0254932D01*
X0105832Y0255020D01*
X0105830Y0255108D01*
X0105830Y0278731D02*
X0105832Y0278819D01*
X0105838Y0278907D01*
X0105848Y0278995D01*
X0105862Y0279083D01*
X0105879Y0279169D01*
X0105901Y0279255D01*
X0105926Y0279339D01*
X0105956Y0279423D01*
X0105988Y0279505D01*
X0106025Y0279585D01*
X0106065Y0279664D01*
X0106109Y0279741D01*
X0106156Y0279816D01*
X0106206Y0279888D01*
X0106260Y0279959D01*
X0106316Y0280026D01*
X0106376Y0280092D01*
X0106438Y0280154D01*
X0106504Y0280214D01*
X0106571Y0280270D01*
X0106642Y0280324D01*
X0106714Y0280374D01*
X0106789Y0280421D01*
X0106866Y0280465D01*
X0106945Y0280505D01*
X0107025Y0280542D01*
X0107107Y0280574D01*
X0107191Y0280604D01*
X0107275Y0280629D01*
X0107361Y0280651D01*
X0107447Y0280668D01*
X0107535Y0280682D01*
X0107623Y0280692D01*
X0107711Y0280698D01*
X0107799Y0280700D01*
X0107887Y0280698D01*
X0107975Y0280692D01*
X0108063Y0280682D01*
X0108151Y0280668D01*
X0108237Y0280651D01*
X0108323Y0280629D01*
X0108407Y0280604D01*
X0108491Y0280574D01*
X0108573Y0280542D01*
X0108653Y0280505D01*
X0108732Y0280465D01*
X0108809Y0280421D01*
X0108884Y0280374D01*
X0108956Y0280324D01*
X0109027Y0280270D01*
X0109094Y0280214D01*
X0109160Y0280154D01*
X0109222Y0280092D01*
X0109282Y0280026D01*
X0109338Y0279959D01*
X0109392Y0279888D01*
X0109442Y0279816D01*
X0109489Y0279741D01*
X0109533Y0279664D01*
X0109573Y0279585D01*
X0109610Y0279505D01*
X0109642Y0279423D01*
X0109672Y0279339D01*
X0109697Y0279255D01*
X0109719Y0279169D01*
X0109736Y0279083D01*
X0109750Y0278995D01*
X0109760Y0278907D01*
X0109766Y0278819D01*
X0109768Y0278731D01*
X0109766Y0278643D01*
X0109760Y0278555D01*
X0109750Y0278467D01*
X0109736Y0278379D01*
X0109719Y0278293D01*
X0109697Y0278207D01*
X0109672Y0278123D01*
X0109642Y0278039D01*
X0109610Y0277957D01*
X0109573Y0277877D01*
X0109533Y0277798D01*
X0109489Y0277721D01*
X0109442Y0277646D01*
X0109392Y0277574D01*
X0109338Y0277503D01*
X0109282Y0277436D01*
X0109222Y0277370D01*
X0109160Y0277308D01*
X0109094Y0277248D01*
X0109027Y0277192D01*
X0108956Y0277138D01*
X0108884Y0277088D01*
X0108809Y0277041D01*
X0108732Y0276997D01*
X0108653Y0276957D01*
X0108573Y0276920D01*
X0108491Y0276888D01*
X0108407Y0276858D01*
X0108323Y0276833D01*
X0108237Y0276811D01*
X0108151Y0276794D01*
X0108063Y0276780D01*
X0107975Y0276770D01*
X0107887Y0276764D01*
X0107799Y0276762D01*
X0107711Y0276764D01*
X0107623Y0276770D01*
X0107535Y0276780D01*
X0107447Y0276794D01*
X0107361Y0276811D01*
X0107275Y0276833D01*
X0107191Y0276858D01*
X0107107Y0276888D01*
X0107025Y0276920D01*
X0106945Y0276957D01*
X0106866Y0276997D01*
X0106789Y0277041D01*
X0106714Y0277088D01*
X0106642Y0277138D01*
X0106571Y0277192D01*
X0106504Y0277248D01*
X0106438Y0277308D01*
X0106376Y0277370D01*
X0106316Y0277436D01*
X0106260Y0277503D01*
X0106206Y0277574D01*
X0106156Y0277646D01*
X0106109Y0277721D01*
X0106065Y0277798D01*
X0106025Y0277877D01*
X0105988Y0277957D01*
X0105956Y0278039D01*
X0105926Y0278123D01*
X0105901Y0278207D01*
X0105879Y0278293D01*
X0105862Y0278379D01*
X0105848Y0278467D01*
X0105838Y0278555D01*
X0105832Y0278643D01*
X0105830Y0278731D01*
X0054649Y0278731D02*
X0054651Y0278819D01*
X0054657Y0278907D01*
X0054667Y0278995D01*
X0054681Y0279083D01*
X0054698Y0279169D01*
X0054720Y0279255D01*
X0054745Y0279339D01*
X0054775Y0279423D01*
X0054807Y0279505D01*
X0054844Y0279585D01*
X0054884Y0279664D01*
X0054928Y0279741D01*
X0054975Y0279816D01*
X0055025Y0279888D01*
X0055079Y0279959D01*
X0055135Y0280026D01*
X0055195Y0280092D01*
X0055257Y0280154D01*
X0055323Y0280214D01*
X0055390Y0280270D01*
X0055461Y0280324D01*
X0055533Y0280374D01*
X0055608Y0280421D01*
X0055685Y0280465D01*
X0055764Y0280505D01*
X0055844Y0280542D01*
X0055926Y0280574D01*
X0056010Y0280604D01*
X0056094Y0280629D01*
X0056180Y0280651D01*
X0056266Y0280668D01*
X0056354Y0280682D01*
X0056442Y0280692D01*
X0056530Y0280698D01*
X0056618Y0280700D01*
X0056706Y0280698D01*
X0056794Y0280692D01*
X0056882Y0280682D01*
X0056970Y0280668D01*
X0057056Y0280651D01*
X0057142Y0280629D01*
X0057226Y0280604D01*
X0057310Y0280574D01*
X0057392Y0280542D01*
X0057472Y0280505D01*
X0057551Y0280465D01*
X0057628Y0280421D01*
X0057703Y0280374D01*
X0057775Y0280324D01*
X0057846Y0280270D01*
X0057913Y0280214D01*
X0057979Y0280154D01*
X0058041Y0280092D01*
X0058101Y0280026D01*
X0058157Y0279959D01*
X0058211Y0279888D01*
X0058261Y0279816D01*
X0058308Y0279741D01*
X0058352Y0279664D01*
X0058392Y0279585D01*
X0058429Y0279505D01*
X0058461Y0279423D01*
X0058491Y0279339D01*
X0058516Y0279255D01*
X0058538Y0279169D01*
X0058555Y0279083D01*
X0058569Y0278995D01*
X0058579Y0278907D01*
X0058585Y0278819D01*
X0058587Y0278731D01*
X0058585Y0278643D01*
X0058579Y0278555D01*
X0058569Y0278467D01*
X0058555Y0278379D01*
X0058538Y0278293D01*
X0058516Y0278207D01*
X0058491Y0278123D01*
X0058461Y0278039D01*
X0058429Y0277957D01*
X0058392Y0277877D01*
X0058352Y0277798D01*
X0058308Y0277721D01*
X0058261Y0277646D01*
X0058211Y0277574D01*
X0058157Y0277503D01*
X0058101Y0277436D01*
X0058041Y0277370D01*
X0057979Y0277308D01*
X0057913Y0277248D01*
X0057846Y0277192D01*
X0057775Y0277138D01*
X0057703Y0277088D01*
X0057628Y0277041D01*
X0057551Y0276997D01*
X0057472Y0276957D01*
X0057392Y0276920D01*
X0057310Y0276888D01*
X0057226Y0276858D01*
X0057142Y0276833D01*
X0057056Y0276811D01*
X0056970Y0276794D01*
X0056882Y0276780D01*
X0056794Y0276770D01*
X0056706Y0276764D01*
X0056618Y0276762D01*
X0056530Y0276764D01*
X0056442Y0276770D01*
X0056354Y0276780D01*
X0056266Y0276794D01*
X0056180Y0276811D01*
X0056094Y0276833D01*
X0056010Y0276858D01*
X0055926Y0276888D01*
X0055844Y0276920D01*
X0055764Y0276957D01*
X0055685Y0276997D01*
X0055608Y0277041D01*
X0055533Y0277088D01*
X0055461Y0277138D01*
X0055390Y0277192D01*
X0055323Y0277248D01*
X0055257Y0277308D01*
X0055195Y0277370D01*
X0055135Y0277436D01*
X0055079Y0277503D01*
X0055025Y0277574D01*
X0054975Y0277646D01*
X0054928Y0277721D01*
X0054884Y0277798D01*
X0054844Y0277877D01*
X0054807Y0277957D01*
X0054775Y0278039D01*
X0054745Y0278123D01*
X0054720Y0278207D01*
X0054698Y0278293D01*
X0054681Y0278379D01*
X0054667Y0278467D01*
X0054657Y0278555D01*
X0054651Y0278643D01*
X0054649Y0278731D01*
X0054649Y0255108D02*
X0054651Y0255196D01*
X0054657Y0255284D01*
X0054667Y0255372D01*
X0054681Y0255460D01*
X0054698Y0255546D01*
X0054720Y0255632D01*
X0054745Y0255716D01*
X0054775Y0255800D01*
X0054807Y0255882D01*
X0054844Y0255962D01*
X0054884Y0256041D01*
X0054928Y0256118D01*
X0054975Y0256193D01*
X0055025Y0256265D01*
X0055079Y0256336D01*
X0055135Y0256403D01*
X0055195Y0256469D01*
X0055257Y0256531D01*
X0055323Y0256591D01*
X0055390Y0256647D01*
X0055461Y0256701D01*
X0055533Y0256751D01*
X0055608Y0256798D01*
X0055685Y0256842D01*
X0055764Y0256882D01*
X0055844Y0256919D01*
X0055926Y0256951D01*
X0056010Y0256981D01*
X0056094Y0257006D01*
X0056180Y0257028D01*
X0056266Y0257045D01*
X0056354Y0257059D01*
X0056442Y0257069D01*
X0056530Y0257075D01*
X0056618Y0257077D01*
X0056706Y0257075D01*
X0056794Y0257069D01*
X0056882Y0257059D01*
X0056970Y0257045D01*
X0057056Y0257028D01*
X0057142Y0257006D01*
X0057226Y0256981D01*
X0057310Y0256951D01*
X0057392Y0256919D01*
X0057472Y0256882D01*
X0057551Y0256842D01*
X0057628Y0256798D01*
X0057703Y0256751D01*
X0057775Y0256701D01*
X0057846Y0256647D01*
X0057913Y0256591D01*
X0057979Y0256531D01*
X0058041Y0256469D01*
X0058101Y0256403D01*
X0058157Y0256336D01*
X0058211Y0256265D01*
X0058261Y0256193D01*
X0058308Y0256118D01*
X0058352Y0256041D01*
X0058392Y0255962D01*
X0058429Y0255882D01*
X0058461Y0255800D01*
X0058491Y0255716D01*
X0058516Y0255632D01*
X0058538Y0255546D01*
X0058555Y0255460D01*
X0058569Y0255372D01*
X0058579Y0255284D01*
X0058585Y0255196D01*
X0058587Y0255108D01*
X0058585Y0255020D01*
X0058579Y0254932D01*
X0058569Y0254844D01*
X0058555Y0254756D01*
X0058538Y0254670D01*
X0058516Y0254584D01*
X0058491Y0254500D01*
X0058461Y0254416D01*
X0058429Y0254334D01*
X0058392Y0254254D01*
X0058352Y0254175D01*
X0058308Y0254098D01*
X0058261Y0254023D01*
X0058211Y0253951D01*
X0058157Y0253880D01*
X0058101Y0253813D01*
X0058041Y0253747D01*
X0057979Y0253685D01*
X0057913Y0253625D01*
X0057846Y0253569D01*
X0057775Y0253515D01*
X0057703Y0253465D01*
X0057628Y0253418D01*
X0057551Y0253374D01*
X0057472Y0253334D01*
X0057392Y0253297D01*
X0057310Y0253265D01*
X0057226Y0253235D01*
X0057142Y0253210D01*
X0057056Y0253188D01*
X0056970Y0253171D01*
X0056882Y0253157D01*
X0056794Y0253147D01*
X0056706Y0253141D01*
X0056618Y0253139D01*
X0056530Y0253141D01*
X0056442Y0253147D01*
X0056354Y0253157D01*
X0056266Y0253171D01*
X0056180Y0253188D01*
X0056094Y0253210D01*
X0056010Y0253235D01*
X0055926Y0253265D01*
X0055844Y0253297D01*
X0055764Y0253334D01*
X0055685Y0253374D01*
X0055608Y0253418D01*
X0055533Y0253465D01*
X0055461Y0253515D01*
X0055390Y0253569D01*
X0055323Y0253625D01*
X0055257Y0253685D01*
X0055195Y0253747D01*
X0055135Y0253813D01*
X0055079Y0253880D01*
X0055025Y0253951D01*
X0054975Y0254023D01*
X0054928Y0254098D01*
X0054884Y0254175D01*
X0054844Y0254254D01*
X0054807Y0254334D01*
X0054775Y0254416D01*
X0054745Y0254500D01*
X0054720Y0254584D01*
X0054698Y0254670D01*
X0054681Y0254756D01*
X0054667Y0254844D01*
X0054657Y0254932D01*
X0054651Y0255020D01*
X0054649Y0255108D01*
X0157011Y0255108D02*
X0157013Y0255196D01*
X0157019Y0255284D01*
X0157029Y0255372D01*
X0157043Y0255460D01*
X0157060Y0255546D01*
X0157082Y0255632D01*
X0157107Y0255716D01*
X0157137Y0255800D01*
X0157169Y0255882D01*
X0157206Y0255962D01*
X0157246Y0256041D01*
X0157290Y0256118D01*
X0157337Y0256193D01*
X0157387Y0256265D01*
X0157441Y0256336D01*
X0157497Y0256403D01*
X0157557Y0256469D01*
X0157619Y0256531D01*
X0157685Y0256591D01*
X0157752Y0256647D01*
X0157823Y0256701D01*
X0157895Y0256751D01*
X0157970Y0256798D01*
X0158047Y0256842D01*
X0158126Y0256882D01*
X0158206Y0256919D01*
X0158288Y0256951D01*
X0158372Y0256981D01*
X0158456Y0257006D01*
X0158542Y0257028D01*
X0158628Y0257045D01*
X0158716Y0257059D01*
X0158804Y0257069D01*
X0158892Y0257075D01*
X0158980Y0257077D01*
X0159068Y0257075D01*
X0159156Y0257069D01*
X0159244Y0257059D01*
X0159332Y0257045D01*
X0159418Y0257028D01*
X0159504Y0257006D01*
X0159588Y0256981D01*
X0159672Y0256951D01*
X0159754Y0256919D01*
X0159834Y0256882D01*
X0159913Y0256842D01*
X0159990Y0256798D01*
X0160065Y0256751D01*
X0160137Y0256701D01*
X0160208Y0256647D01*
X0160275Y0256591D01*
X0160341Y0256531D01*
X0160403Y0256469D01*
X0160463Y0256403D01*
X0160519Y0256336D01*
X0160573Y0256265D01*
X0160623Y0256193D01*
X0160670Y0256118D01*
X0160714Y0256041D01*
X0160754Y0255962D01*
X0160791Y0255882D01*
X0160823Y0255800D01*
X0160853Y0255716D01*
X0160878Y0255632D01*
X0160900Y0255546D01*
X0160917Y0255460D01*
X0160931Y0255372D01*
X0160941Y0255284D01*
X0160947Y0255196D01*
X0160949Y0255108D01*
X0160947Y0255020D01*
X0160941Y0254932D01*
X0160931Y0254844D01*
X0160917Y0254756D01*
X0160900Y0254670D01*
X0160878Y0254584D01*
X0160853Y0254500D01*
X0160823Y0254416D01*
X0160791Y0254334D01*
X0160754Y0254254D01*
X0160714Y0254175D01*
X0160670Y0254098D01*
X0160623Y0254023D01*
X0160573Y0253951D01*
X0160519Y0253880D01*
X0160463Y0253813D01*
X0160403Y0253747D01*
X0160341Y0253685D01*
X0160275Y0253625D01*
X0160208Y0253569D01*
X0160137Y0253515D01*
X0160065Y0253465D01*
X0159990Y0253418D01*
X0159913Y0253374D01*
X0159834Y0253334D01*
X0159754Y0253297D01*
X0159672Y0253265D01*
X0159588Y0253235D01*
X0159504Y0253210D01*
X0159418Y0253188D01*
X0159332Y0253171D01*
X0159244Y0253157D01*
X0159156Y0253147D01*
X0159068Y0253141D01*
X0158980Y0253139D01*
X0158892Y0253141D01*
X0158804Y0253147D01*
X0158716Y0253157D01*
X0158628Y0253171D01*
X0158542Y0253188D01*
X0158456Y0253210D01*
X0158372Y0253235D01*
X0158288Y0253265D01*
X0158206Y0253297D01*
X0158126Y0253334D01*
X0158047Y0253374D01*
X0157970Y0253418D01*
X0157895Y0253465D01*
X0157823Y0253515D01*
X0157752Y0253569D01*
X0157685Y0253625D01*
X0157619Y0253685D01*
X0157557Y0253747D01*
X0157497Y0253813D01*
X0157441Y0253880D01*
X0157387Y0253951D01*
X0157337Y0254023D01*
X0157290Y0254098D01*
X0157246Y0254175D01*
X0157206Y0254254D01*
X0157169Y0254334D01*
X0157137Y0254416D01*
X0157107Y0254500D01*
X0157082Y0254584D01*
X0157060Y0254670D01*
X0157043Y0254756D01*
X0157029Y0254844D01*
X0157019Y0254932D01*
X0157013Y0255020D01*
X0157011Y0255108D01*
X0157011Y0278731D02*
X0157013Y0278819D01*
X0157019Y0278907D01*
X0157029Y0278995D01*
X0157043Y0279083D01*
X0157060Y0279169D01*
X0157082Y0279255D01*
X0157107Y0279339D01*
X0157137Y0279423D01*
X0157169Y0279505D01*
X0157206Y0279585D01*
X0157246Y0279664D01*
X0157290Y0279741D01*
X0157337Y0279816D01*
X0157387Y0279888D01*
X0157441Y0279959D01*
X0157497Y0280026D01*
X0157557Y0280092D01*
X0157619Y0280154D01*
X0157685Y0280214D01*
X0157752Y0280270D01*
X0157823Y0280324D01*
X0157895Y0280374D01*
X0157970Y0280421D01*
X0158047Y0280465D01*
X0158126Y0280505D01*
X0158206Y0280542D01*
X0158288Y0280574D01*
X0158372Y0280604D01*
X0158456Y0280629D01*
X0158542Y0280651D01*
X0158628Y0280668D01*
X0158716Y0280682D01*
X0158804Y0280692D01*
X0158892Y0280698D01*
X0158980Y0280700D01*
X0159068Y0280698D01*
X0159156Y0280692D01*
X0159244Y0280682D01*
X0159332Y0280668D01*
X0159418Y0280651D01*
X0159504Y0280629D01*
X0159588Y0280604D01*
X0159672Y0280574D01*
X0159754Y0280542D01*
X0159834Y0280505D01*
X0159913Y0280465D01*
X0159990Y0280421D01*
X0160065Y0280374D01*
X0160137Y0280324D01*
X0160208Y0280270D01*
X0160275Y0280214D01*
X0160341Y0280154D01*
X0160403Y0280092D01*
X0160463Y0280026D01*
X0160519Y0279959D01*
X0160573Y0279888D01*
X0160623Y0279816D01*
X0160670Y0279741D01*
X0160714Y0279664D01*
X0160754Y0279585D01*
X0160791Y0279505D01*
X0160823Y0279423D01*
X0160853Y0279339D01*
X0160878Y0279255D01*
X0160900Y0279169D01*
X0160917Y0279083D01*
X0160931Y0278995D01*
X0160941Y0278907D01*
X0160947Y0278819D01*
X0160949Y0278731D01*
X0160947Y0278643D01*
X0160941Y0278555D01*
X0160931Y0278467D01*
X0160917Y0278379D01*
X0160900Y0278293D01*
X0160878Y0278207D01*
X0160853Y0278123D01*
X0160823Y0278039D01*
X0160791Y0277957D01*
X0160754Y0277877D01*
X0160714Y0277798D01*
X0160670Y0277721D01*
X0160623Y0277646D01*
X0160573Y0277574D01*
X0160519Y0277503D01*
X0160463Y0277436D01*
X0160403Y0277370D01*
X0160341Y0277308D01*
X0160275Y0277248D01*
X0160208Y0277192D01*
X0160137Y0277138D01*
X0160065Y0277088D01*
X0159990Y0277041D01*
X0159913Y0276997D01*
X0159834Y0276957D01*
X0159754Y0276920D01*
X0159672Y0276888D01*
X0159588Y0276858D01*
X0159504Y0276833D01*
X0159418Y0276811D01*
X0159332Y0276794D01*
X0159244Y0276780D01*
X0159156Y0276770D01*
X0159068Y0276764D01*
X0158980Y0276762D01*
X0158892Y0276764D01*
X0158804Y0276770D01*
X0158716Y0276780D01*
X0158628Y0276794D01*
X0158542Y0276811D01*
X0158456Y0276833D01*
X0158372Y0276858D01*
X0158288Y0276888D01*
X0158206Y0276920D01*
X0158126Y0276957D01*
X0158047Y0276997D01*
X0157970Y0277041D01*
X0157895Y0277088D01*
X0157823Y0277138D01*
X0157752Y0277192D01*
X0157685Y0277248D01*
X0157619Y0277308D01*
X0157557Y0277370D01*
X0157497Y0277436D01*
X0157441Y0277503D01*
X0157387Y0277574D01*
X0157337Y0277646D01*
X0157290Y0277721D01*
X0157246Y0277798D01*
X0157206Y0277877D01*
X0157169Y0277957D01*
X0157137Y0278039D01*
X0157107Y0278123D01*
X0157082Y0278207D01*
X0157060Y0278293D01*
X0157043Y0278379D01*
X0157029Y0278467D01*
X0157019Y0278555D01*
X0157013Y0278643D01*
X0157011Y0278731D01*
X0208192Y0278731D02*
X0208194Y0278819D01*
X0208200Y0278907D01*
X0208210Y0278995D01*
X0208224Y0279083D01*
X0208241Y0279169D01*
X0208263Y0279255D01*
X0208288Y0279339D01*
X0208318Y0279423D01*
X0208350Y0279505D01*
X0208387Y0279585D01*
X0208427Y0279664D01*
X0208471Y0279741D01*
X0208518Y0279816D01*
X0208568Y0279888D01*
X0208622Y0279959D01*
X0208678Y0280026D01*
X0208738Y0280092D01*
X0208800Y0280154D01*
X0208866Y0280214D01*
X0208933Y0280270D01*
X0209004Y0280324D01*
X0209076Y0280374D01*
X0209151Y0280421D01*
X0209228Y0280465D01*
X0209307Y0280505D01*
X0209387Y0280542D01*
X0209469Y0280574D01*
X0209553Y0280604D01*
X0209637Y0280629D01*
X0209723Y0280651D01*
X0209809Y0280668D01*
X0209897Y0280682D01*
X0209985Y0280692D01*
X0210073Y0280698D01*
X0210161Y0280700D01*
X0210249Y0280698D01*
X0210337Y0280692D01*
X0210425Y0280682D01*
X0210513Y0280668D01*
X0210599Y0280651D01*
X0210685Y0280629D01*
X0210769Y0280604D01*
X0210853Y0280574D01*
X0210935Y0280542D01*
X0211015Y0280505D01*
X0211094Y0280465D01*
X0211171Y0280421D01*
X0211246Y0280374D01*
X0211318Y0280324D01*
X0211389Y0280270D01*
X0211456Y0280214D01*
X0211522Y0280154D01*
X0211584Y0280092D01*
X0211644Y0280026D01*
X0211700Y0279959D01*
X0211754Y0279888D01*
X0211804Y0279816D01*
X0211851Y0279741D01*
X0211895Y0279664D01*
X0211935Y0279585D01*
X0211972Y0279505D01*
X0212004Y0279423D01*
X0212034Y0279339D01*
X0212059Y0279255D01*
X0212081Y0279169D01*
X0212098Y0279083D01*
X0212112Y0278995D01*
X0212122Y0278907D01*
X0212128Y0278819D01*
X0212130Y0278731D01*
X0212128Y0278643D01*
X0212122Y0278555D01*
X0212112Y0278467D01*
X0212098Y0278379D01*
X0212081Y0278293D01*
X0212059Y0278207D01*
X0212034Y0278123D01*
X0212004Y0278039D01*
X0211972Y0277957D01*
X0211935Y0277877D01*
X0211895Y0277798D01*
X0211851Y0277721D01*
X0211804Y0277646D01*
X0211754Y0277574D01*
X0211700Y0277503D01*
X0211644Y0277436D01*
X0211584Y0277370D01*
X0211522Y0277308D01*
X0211456Y0277248D01*
X0211389Y0277192D01*
X0211318Y0277138D01*
X0211246Y0277088D01*
X0211171Y0277041D01*
X0211094Y0276997D01*
X0211015Y0276957D01*
X0210935Y0276920D01*
X0210853Y0276888D01*
X0210769Y0276858D01*
X0210685Y0276833D01*
X0210599Y0276811D01*
X0210513Y0276794D01*
X0210425Y0276780D01*
X0210337Y0276770D01*
X0210249Y0276764D01*
X0210161Y0276762D01*
X0210073Y0276764D01*
X0209985Y0276770D01*
X0209897Y0276780D01*
X0209809Y0276794D01*
X0209723Y0276811D01*
X0209637Y0276833D01*
X0209553Y0276858D01*
X0209469Y0276888D01*
X0209387Y0276920D01*
X0209307Y0276957D01*
X0209228Y0276997D01*
X0209151Y0277041D01*
X0209076Y0277088D01*
X0209004Y0277138D01*
X0208933Y0277192D01*
X0208866Y0277248D01*
X0208800Y0277308D01*
X0208738Y0277370D01*
X0208678Y0277436D01*
X0208622Y0277503D01*
X0208568Y0277574D01*
X0208518Y0277646D01*
X0208471Y0277721D01*
X0208427Y0277798D01*
X0208387Y0277877D01*
X0208350Y0277957D01*
X0208318Y0278039D01*
X0208288Y0278123D01*
X0208263Y0278207D01*
X0208241Y0278293D01*
X0208224Y0278379D01*
X0208210Y0278467D01*
X0208200Y0278555D01*
X0208194Y0278643D01*
X0208192Y0278731D01*
X0208192Y0255108D02*
X0208194Y0255196D01*
X0208200Y0255284D01*
X0208210Y0255372D01*
X0208224Y0255460D01*
X0208241Y0255546D01*
X0208263Y0255632D01*
X0208288Y0255716D01*
X0208318Y0255800D01*
X0208350Y0255882D01*
X0208387Y0255962D01*
X0208427Y0256041D01*
X0208471Y0256118D01*
X0208518Y0256193D01*
X0208568Y0256265D01*
X0208622Y0256336D01*
X0208678Y0256403D01*
X0208738Y0256469D01*
X0208800Y0256531D01*
X0208866Y0256591D01*
X0208933Y0256647D01*
X0209004Y0256701D01*
X0209076Y0256751D01*
X0209151Y0256798D01*
X0209228Y0256842D01*
X0209307Y0256882D01*
X0209387Y0256919D01*
X0209469Y0256951D01*
X0209553Y0256981D01*
X0209637Y0257006D01*
X0209723Y0257028D01*
X0209809Y0257045D01*
X0209897Y0257059D01*
X0209985Y0257069D01*
X0210073Y0257075D01*
X0210161Y0257077D01*
X0210249Y0257075D01*
X0210337Y0257069D01*
X0210425Y0257059D01*
X0210513Y0257045D01*
X0210599Y0257028D01*
X0210685Y0257006D01*
X0210769Y0256981D01*
X0210853Y0256951D01*
X0210935Y0256919D01*
X0211015Y0256882D01*
X0211094Y0256842D01*
X0211171Y0256798D01*
X0211246Y0256751D01*
X0211318Y0256701D01*
X0211389Y0256647D01*
X0211456Y0256591D01*
X0211522Y0256531D01*
X0211584Y0256469D01*
X0211644Y0256403D01*
X0211700Y0256336D01*
X0211754Y0256265D01*
X0211804Y0256193D01*
X0211851Y0256118D01*
X0211895Y0256041D01*
X0211935Y0255962D01*
X0211972Y0255882D01*
X0212004Y0255800D01*
X0212034Y0255716D01*
X0212059Y0255632D01*
X0212081Y0255546D01*
X0212098Y0255460D01*
X0212112Y0255372D01*
X0212122Y0255284D01*
X0212128Y0255196D01*
X0212130Y0255108D01*
X0212128Y0255020D01*
X0212122Y0254932D01*
X0212112Y0254844D01*
X0212098Y0254756D01*
X0212081Y0254670D01*
X0212059Y0254584D01*
X0212034Y0254500D01*
X0212004Y0254416D01*
X0211972Y0254334D01*
X0211935Y0254254D01*
X0211895Y0254175D01*
X0211851Y0254098D01*
X0211804Y0254023D01*
X0211754Y0253951D01*
X0211700Y0253880D01*
X0211644Y0253813D01*
X0211584Y0253747D01*
X0211522Y0253685D01*
X0211456Y0253625D01*
X0211389Y0253569D01*
X0211318Y0253515D01*
X0211246Y0253465D01*
X0211171Y0253418D01*
X0211094Y0253374D01*
X0211015Y0253334D01*
X0210935Y0253297D01*
X0210853Y0253265D01*
X0210769Y0253235D01*
X0210685Y0253210D01*
X0210599Y0253188D01*
X0210513Y0253171D01*
X0210425Y0253157D01*
X0210337Y0253147D01*
X0210249Y0253141D01*
X0210161Y0253139D01*
X0210073Y0253141D01*
X0209985Y0253147D01*
X0209897Y0253157D01*
X0209809Y0253171D01*
X0209723Y0253188D01*
X0209637Y0253210D01*
X0209553Y0253235D01*
X0209469Y0253265D01*
X0209387Y0253297D01*
X0209307Y0253334D01*
X0209228Y0253374D01*
X0209151Y0253418D01*
X0209076Y0253465D01*
X0209004Y0253515D01*
X0208933Y0253569D01*
X0208866Y0253625D01*
X0208800Y0253685D01*
X0208738Y0253747D01*
X0208678Y0253813D01*
X0208622Y0253880D01*
X0208568Y0253951D01*
X0208518Y0254023D01*
X0208471Y0254098D01*
X0208427Y0254175D01*
X0208387Y0254254D01*
X0208350Y0254334D01*
X0208318Y0254416D01*
X0208288Y0254500D01*
X0208263Y0254584D01*
X0208241Y0254670D01*
X0208224Y0254756D01*
X0208210Y0254844D01*
X0208200Y0254932D01*
X0208194Y0255020D01*
X0208192Y0255108D01*
X0259374Y0255108D02*
X0259376Y0255196D01*
X0259382Y0255284D01*
X0259392Y0255372D01*
X0259406Y0255460D01*
X0259423Y0255546D01*
X0259445Y0255632D01*
X0259470Y0255716D01*
X0259500Y0255800D01*
X0259532Y0255882D01*
X0259569Y0255962D01*
X0259609Y0256041D01*
X0259653Y0256118D01*
X0259700Y0256193D01*
X0259750Y0256265D01*
X0259804Y0256336D01*
X0259860Y0256403D01*
X0259920Y0256469D01*
X0259982Y0256531D01*
X0260048Y0256591D01*
X0260115Y0256647D01*
X0260186Y0256701D01*
X0260258Y0256751D01*
X0260333Y0256798D01*
X0260410Y0256842D01*
X0260489Y0256882D01*
X0260569Y0256919D01*
X0260651Y0256951D01*
X0260735Y0256981D01*
X0260819Y0257006D01*
X0260905Y0257028D01*
X0260991Y0257045D01*
X0261079Y0257059D01*
X0261167Y0257069D01*
X0261255Y0257075D01*
X0261343Y0257077D01*
X0261431Y0257075D01*
X0261519Y0257069D01*
X0261607Y0257059D01*
X0261695Y0257045D01*
X0261781Y0257028D01*
X0261867Y0257006D01*
X0261951Y0256981D01*
X0262035Y0256951D01*
X0262117Y0256919D01*
X0262197Y0256882D01*
X0262276Y0256842D01*
X0262353Y0256798D01*
X0262428Y0256751D01*
X0262500Y0256701D01*
X0262571Y0256647D01*
X0262638Y0256591D01*
X0262704Y0256531D01*
X0262766Y0256469D01*
X0262826Y0256403D01*
X0262882Y0256336D01*
X0262936Y0256265D01*
X0262986Y0256193D01*
X0263033Y0256118D01*
X0263077Y0256041D01*
X0263117Y0255962D01*
X0263154Y0255882D01*
X0263186Y0255800D01*
X0263216Y0255716D01*
X0263241Y0255632D01*
X0263263Y0255546D01*
X0263280Y0255460D01*
X0263294Y0255372D01*
X0263304Y0255284D01*
X0263310Y0255196D01*
X0263312Y0255108D01*
X0263310Y0255020D01*
X0263304Y0254932D01*
X0263294Y0254844D01*
X0263280Y0254756D01*
X0263263Y0254670D01*
X0263241Y0254584D01*
X0263216Y0254500D01*
X0263186Y0254416D01*
X0263154Y0254334D01*
X0263117Y0254254D01*
X0263077Y0254175D01*
X0263033Y0254098D01*
X0262986Y0254023D01*
X0262936Y0253951D01*
X0262882Y0253880D01*
X0262826Y0253813D01*
X0262766Y0253747D01*
X0262704Y0253685D01*
X0262638Y0253625D01*
X0262571Y0253569D01*
X0262500Y0253515D01*
X0262428Y0253465D01*
X0262353Y0253418D01*
X0262276Y0253374D01*
X0262197Y0253334D01*
X0262117Y0253297D01*
X0262035Y0253265D01*
X0261951Y0253235D01*
X0261867Y0253210D01*
X0261781Y0253188D01*
X0261695Y0253171D01*
X0261607Y0253157D01*
X0261519Y0253147D01*
X0261431Y0253141D01*
X0261343Y0253139D01*
X0261255Y0253141D01*
X0261167Y0253147D01*
X0261079Y0253157D01*
X0260991Y0253171D01*
X0260905Y0253188D01*
X0260819Y0253210D01*
X0260735Y0253235D01*
X0260651Y0253265D01*
X0260569Y0253297D01*
X0260489Y0253334D01*
X0260410Y0253374D01*
X0260333Y0253418D01*
X0260258Y0253465D01*
X0260186Y0253515D01*
X0260115Y0253569D01*
X0260048Y0253625D01*
X0259982Y0253685D01*
X0259920Y0253747D01*
X0259860Y0253813D01*
X0259804Y0253880D01*
X0259750Y0253951D01*
X0259700Y0254023D01*
X0259653Y0254098D01*
X0259609Y0254175D01*
X0259569Y0254254D01*
X0259532Y0254334D01*
X0259500Y0254416D01*
X0259470Y0254500D01*
X0259445Y0254584D01*
X0259423Y0254670D01*
X0259406Y0254756D01*
X0259392Y0254844D01*
X0259382Y0254932D01*
X0259376Y0255020D01*
X0259374Y0255108D01*
X0259374Y0278731D02*
X0259376Y0278819D01*
X0259382Y0278907D01*
X0259392Y0278995D01*
X0259406Y0279083D01*
X0259423Y0279169D01*
X0259445Y0279255D01*
X0259470Y0279339D01*
X0259500Y0279423D01*
X0259532Y0279505D01*
X0259569Y0279585D01*
X0259609Y0279664D01*
X0259653Y0279741D01*
X0259700Y0279816D01*
X0259750Y0279888D01*
X0259804Y0279959D01*
X0259860Y0280026D01*
X0259920Y0280092D01*
X0259982Y0280154D01*
X0260048Y0280214D01*
X0260115Y0280270D01*
X0260186Y0280324D01*
X0260258Y0280374D01*
X0260333Y0280421D01*
X0260410Y0280465D01*
X0260489Y0280505D01*
X0260569Y0280542D01*
X0260651Y0280574D01*
X0260735Y0280604D01*
X0260819Y0280629D01*
X0260905Y0280651D01*
X0260991Y0280668D01*
X0261079Y0280682D01*
X0261167Y0280692D01*
X0261255Y0280698D01*
X0261343Y0280700D01*
X0261431Y0280698D01*
X0261519Y0280692D01*
X0261607Y0280682D01*
X0261695Y0280668D01*
X0261781Y0280651D01*
X0261867Y0280629D01*
X0261951Y0280604D01*
X0262035Y0280574D01*
X0262117Y0280542D01*
X0262197Y0280505D01*
X0262276Y0280465D01*
X0262353Y0280421D01*
X0262428Y0280374D01*
X0262500Y0280324D01*
X0262571Y0280270D01*
X0262638Y0280214D01*
X0262704Y0280154D01*
X0262766Y0280092D01*
X0262826Y0280026D01*
X0262882Y0279959D01*
X0262936Y0279888D01*
X0262986Y0279816D01*
X0263033Y0279741D01*
X0263077Y0279664D01*
X0263117Y0279585D01*
X0263154Y0279505D01*
X0263186Y0279423D01*
X0263216Y0279339D01*
X0263241Y0279255D01*
X0263263Y0279169D01*
X0263280Y0279083D01*
X0263294Y0278995D01*
X0263304Y0278907D01*
X0263310Y0278819D01*
X0263312Y0278731D01*
X0263310Y0278643D01*
X0263304Y0278555D01*
X0263294Y0278467D01*
X0263280Y0278379D01*
X0263263Y0278293D01*
X0263241Y0278207D01*
X0263216Y0278123D01*
X0263186Y0278039D01*
X0263154Y0277957D01*
X0263117Y0277877D01*
X0263077Y0277798D01*
X0263033Y0277721D01*
X0262986Y0277646D01*
X0262936Y0277574D01*
X0262882Y0277503D01*
X0262826Y0277436D01*
X0262766Y0277370D01*
X0262704Y0277308D01*
X0262638Y0277248D01*
X0262571Y0277192D01*
X0262500Y0277138D01*
X0262428Y0277088D01*
X0262353Y0277041D01*
X0262276Y0276997D01*
X0262197Y0276957D01*
X0262117Y0276920D01*
X0262035Y0276888D01*
X0261951Y0276858D01*
X0261867Y0276833D01*
X0261781Y0276811D01*
X0261695Y0276794D01*
X0261607Y0276780D01*
X0261519Y0276770D01*
X0261431Y0276764D01*
X0261343Y0276762D01*
X0261255Y0276764D01*
X0261167Y0276770D01*
X0261079Y0276780D01*
X0260991Y0276794D01*
X0260905Y0276811D01*
X0260819Y0276833D01*
X0260735Y0276858D01*
X0260651Y0276888D01*
X0260569Y0276920D01*
X0260489Y0276957D01*
X0260410Y0276997D01*
X0260333Y0277041D01*
X0260258Y0277088D01*
X0260186Y0277138D01*
X0260115Y0277192D01*
X0260048Y0277248D01*
X0259982Y0277308D01*
X0259920Y0277370D01*
X0259860Y0277436D01*
X0259804Y0277503D01*
X0259750Y0277574D01*
X0259700Y0277646D01*
X0259653Y0277721D01*
X0259609Y0277798D01*
X0259569Y0277877D01*
X0259532Y0277957D01*
X0259500Y0278039D01*
X0259470Y0278123D01*
X0259445Y0278207D01*
X0259423Y0278293D01*
X0259406Y0278379D01*
X0259392Y0278467D01*
X0259382Y0278555D01*
X0259376Y0278643D01*
X0259374Y0278731D01*
D11*
X0287327Y0169282D02*
X0316657Y0169282D01*
X0316657Y0161408D01*
X0287327Y0161408D01*
X0287207Y0161410D01*
X0287087Y0161416D01*
X0286968Y0161425D01*
X0286849Y0161439D01*
X0286730Y0161456D01*
X0286612Y0161477D01*
X0286495Y0161502D01*
X0286378Y0161530D01*
X0286263Y0161563D01*
X0286148Y0161599D01*
X0286035Y0161638D01*
X0285924Y0161681D01*
X0285813Y0161728D01*
X0285704Y0161778D01*
X0285597Y0161832D01*
X0285492Y0161889D01*
X0285388Y0161950D01*
X0285287Y0162014D01*
X0285187Y0162081D01*
X0285090Y0162151D01*
X0284995Y0162224D01*
X0284903Y0162300D01*
X0284813Y0162379D01*
X0284725Y0162461D01*
X0284640Y0162546D01*
X0284558Y0162634D01*
X0284479Y0162724D01*
X0284403Y0162816D01*
X0284330Y0162911D01*
X0284260Y0163008D01*
X0284193Y0163108D01*
X0284129Y0163209D01*
X0284068Y0163313D01*
X0284011Y0163418D01*
X0283957Y0163525D01*
X0283907Y0163634D01*
X0283860Y0163745D01*
X0283817Y0163856D01*
X0283778Y0163969D01*
X0283742Y0164084D01*
X0283709Y0164199D01*
X0283681Y0164316D01*
X0283656Y0164433D01*
X0283635Y0164551D01*
X0283618Y0164670D01*
X0283604Y0164789D01*
X0283595Y0164908D01*
X0283589Y0165028D01*
X0283587Y0165148D01*
X0283587Y0165542D01*
X0283589Y0165662D01*
X0283595Y0165782D01*
X0283604Y0165901D01*
X0283618Y0166020D01*
X0283635Y0166139D01*
X0283656Y0166257D01*
X0283681Y0166374D01*
X0283709Y0166491D01*
X0283742Y0166606D01*
X0283778Y0166721D01*
X0283817Y0166834D01*
X0283860Y0166945D01*
X0283907Y0167056D01*
X0283957Y0167165D01*
X0284011Y0167272D01*
X0284068Y0167377D01*
X0284129Y0167481D01*
X0284193Y0167582D01*
X0284260Y0167682D01*
X0284330Y0167779D01*
X0284403Y0167874D01*
X0284479Y0167966D01*
X0284558Y0168056D01*
X0284640Y0168144D01*
X0284725Y0168229D01*
X0284813Y0168311D01*
X0284903Y0168390D01*
X0284995Y0168466D01*
X0285090Y0168539D01*
X0285187Y0168609D01*
X0285287Y0168676D01*
X0285388Y0168740D01*
X0285492Y0168801D01*
X0285597Y0168858D01*
X0285704Y0168912D01*
X0285813Y0168962D01*
X0285924Y0169009D01*
X0286035Y0169052D01*
X0286148Y0169091D01*
X0286263Y0169127D01*
X0286378Y0169160D01*
X0286495Y0169188D01*
X0286612Y0169213D01*
X0286730Y0169234D01*
X0286849Y0169251D01*
X0286968Y0169265D01*
X0287087Y0169274D01*
X0287207Y0169280D01*
X0287327Y0169282D01*
M02*
